Asap-BoldItalic.ufo
<glyph name="exclam" format="2">
  <advance width="294"/>
  <unicode hex="0021"/>
  <outline>
    <contour>
      <point x="122" y="222" type="curve" smooth="yes"/>
      <point x="133" y="222" type="line" smooth="yes"/>
      <point x="174" y="222"/>
      <point x="182" y="233"/>
      <point x="187" y="254" type="curve"/>
      <point x="219" y="394"/>
      <point x="282" y="654"/>
      <point x="282" y="673" type="curve"/>
      <point x="282" y="691"/>
      <point x="264" y="702"/>
      <point x="224" y="702" type="curve" smooth="yes"/>
      <point x="181" y="702" type="line" smooth="yes"/>
      <point x="139" y="702"/>
      <point x="120" y="691"/>
      <point x="118" y="670" type="curve" smooth="yes"/>
      <point x="74" y="254" type="line"/>
      <point x="74" y="232"/>
      <point x="79" y="222"/>
    </contour>
    <contour>
      <point x="88" y="-2" type="curve" smooth="yes"/>
      <point x="120" y="-2" type="line" smooth="yes"/>
      <point x="162" y="-2"/>
      <point x="181" y="9"/>
      <point x="183" y="30" type="curve" smooth="yes"/>
      <point x="193" y="122" type="line"/>
      <point x="193" y="143"/>
      <point x="179" y="154"/>
      <point x="136" y="154" type="curve" smooth="yes"/>
      <point x="104" y="154" type="line" smooth="yes"/>
      <point x="62" y="154"/>
      <point x="43" y="143"/>
      <point x="41" y="122" type="curve" smooth="yes"/>
      <point x="31" y="30" type="line"/>
      <point x="31" y="9"/>
      <point x="45" y="-2"/>
    </contour>
  </outline>
</glyph>
<glyph name="quotedbl" format="2">
  <advance width="319"/>
  <unicode hex="0022"/>
  <outline>
    <contour>
      <point x="246" y="464" type="curve" smooth="yes"/>
      <point x="261" y="464" type="line" smooth="yes"/>
      <point x="282" y="464"/>
      <point x="293" y="473"/>
      <point x="298" y="494" type="curve"/>
      <point x="312" y="553"/>
      <point x="339" y="664"/>
      <point x="339" y="670" type="curve" smooth="yes"/>
      <point x="339" y="691"/>
      <point x="325" y="702"/>
      <point x="282" y="702" type="curve" smooth="yes"/>
      <point x="275" y="702" type="line" smooth="yes"/>
      <point x="233" y="702"/>
      <point x="212" y="691"/>
      <point x="212" y="670" type="curve" smooth="yes"/>
      <point x="212" y="664" type="line"/>
      <point x="212" y="494" type="line" smooth="yes"/>
      <point x="212" y="473"/>
      <point x="225" y="464"/>
    </contour>
    <contour>
      <point x="100" y="464" type="curve" smooth="yes"/>
      <point x="115" y="464" type="line" smooth="yes"/>
      <point x="136" y="464"/>
      <point x="147" y="473"/>
      <point x="152" y="494" type="curve"/>
      <point x="166" y="553"/>
      <point x="193" y="664"/>
      <point x="193" y="670" type="curve" smooth="yes"/>
      <point x="193" y="691"/>
      <point x="179" y="702"/>
      <point x="136" y="702" type="curve" smooth="yes"/>
      <point x="129" y="702" type="line" smooth="yes"/>
      <point x="87" y="702"/>
      <point x="66" y="691"/>
      <point x="66" y="670" type="curve" smooth="yes"/>
      <point x="66" y="663" type="line"/>
      <point x="66" y="494" type="line" smooth="yes"/>
      <point x="66" y="473"/>
      <point x="79" y="464"/>
    </contour>
  </outline>
</glyph>
<glyph name="numbersign" format="2">
  <advance width="534"/>
  <unicode hex="0023"/>
  <outline>
    <contour>
      <point x="60" y="-2" type="curve" smooth="yes"/>
      <point x="73" y="-2" type="line" smooth="yes"/>
      <point x="105" y="-2"/>
      <point x="126" y="8"/>
      <point x="132" y="29" type="curve" smooth="yes"/>
      <point x="177" y="183" type="line"/>
      <point x="271" y="183" type="line"/>
      <point x="236" y="56"/>
      <point x="225" y="37"/>
      <point x="225" y="21" type="curve" smooth="yes"/>
      <point x="225" y="6"/>
      <point x="233" y="-2"/>
      <point x="267" y="-2" type="curve" smooth="yes"/>
      <point x="280" y="-2" type="line" smooth="yes"/>
      <point x="312" y="-2"/>
      <point x="333" y="8"/>
      <point x="339" y="29" type="curve" smooth="yes"/>
      <point x="384" y="183" type="line"/>
      <point x="446" y="183" type="line" smooth="yes"/>
      <point x="479" y="183"/>
      <point x="483" y="232"/>
      <point x="483" y="257" type="curve"/>
      <point x="483" y="259" type="line"/>
      <point x="483" y="282"/>
      <point x="474" y="293"/>
      <point x="457" y="293" type="curve" smooth="yes"/>
      <point x="415" y="293" type="line"/>
      <point x="448" y="403" type="line"/>
      <point x="501" y="403" type="line" smooth="yes"/>
      <point x="534" y="403"/>
      <point x="538" y="452"/>
      <point x="538" y="477" type="curve"/>
      <point x="538" y="479" type="line"/>
      <point x="538" y="502"/>
      <point x="529" y="513"/>
      <point x="512" y="513" type="curve" smooth="yes"/>
      <point x="479" y="513" type="line"/>
      <point x="508" y="615"/>
      <point x="522" y="654"/>
      <point x="522" y="664" type="curve"/>
      <point x="522" y="678"/>
      <point x="512" y="686"/>
      <point x="480" y="686" type="curve" smooth="yes"/>
      <point x="467" y="686" type="line" smooth="yes"/>
      <point x="435" y="686"/>
      <point x="413" y="676"/>
      <point x="407" y="655" type="curve" smooth="yes"/>
      <point x="366" y="513" type="line"/>
      <point x="272" y="513" type="line"/>
      <point x="301" y="615"/>
      <point x="315" y="654"/>
      <point x="315" y="664" type="curve"/>
      <point x="315" y="678"/>
      <point x="305" y="686"/>
      <point x="273" y="686" type="curve" smooth="yes"/>
      <point x="260" y="686" type="line" smooth="yes"/>
      <point x="228" y="686"/>
      <point x="206" y="676"/>
      <point x="200" y="655" type="curve" smooth="yes"/>
      <point x="159" y="513" type="line"/>
      <point x="91" y="513" type="line" smooth="yes"/>
      <point x="58" y="513"/>
      <point x="54" y="464"/>
      <point x="54" y="439" type="curve"/>
      <point x="54" y="437" type="line"/>
      <point x="54" y="413"/>
      <point x="62" y="403"/>
      <point x="80" y="403" type="curve" smooth="yes"/>
      <point x="128" y="403" type="line"/>
      <point x="95" y="293" type="line"/>
      <point x="32" y="293" type="line" smooth="yes"/>
      <point x="-2" y="293"/>
      <point x="-4" y="243"/>
      <point x="-4" y="218" type="curve"/>
      <point x="-4" y="216" type="line"/>
      <point x="-4" y="193"/>
      <point x="4" y="183"/>
      <point x="21" y="183" type="curve" smooth="yes"/>
      <point x="64" y="183" type="line"/>
      <point x="28" y="56"/>
      <point x="18" y="37"/>
      <point x="17" y="21" type="curve" smooth="yes"/>
      <point x="16" y="6"/>
      <point x="32" y="-2"/>
    </contour>
    <contour>
      <point x="208" y="293" type="line"/>
      <point x="241" y="403" type="line"/>
      <point x="335" y="403" type="line"/>
      <point x="302" y="293" type="line"/>
    </contour>
  </outline>
</glyph>
<glyph name="dollar" format="2">
  <advance width="496"/>
  <unicode hex="0024"/>
  <outline>
    <contour>
      <point x="209" y="-75" type="curve" smooth="yes"/>
      <point x="226" y="-75" type="line" smooth="yes"/>
      <point x="238" y="-75"/>
      <point x="246" y="-69"/>
      <point x="248" y="-55" type="curve" smooth="yes"/>
      <point x="253" y="-6" type="line"/>
      <point x="355" y="5"/>
      <point x="466" y="65"/>
      <point x="466" y="233" type="curve" smooth="yes"/>
      <point x="466" y="345"/>
      <point x="374" y="385"/>
      <point x="298" y="420" type="curve"/>
      <point x="314" y="576" type="line"/>
      <point x="352" y="575"/>
      <point x="376" y="566"/>
      <point x="393" y="559" type="curve" smooth="yes"/>
      <point x="404" y="555"/>
      <point x="411" y="551"/>
      <point x="416" y="551" type="curve" smooth="yes"/>
      <point x="440" y="551"/>
      <point x="480" y="614"/>
      <point x="480" y="640" type="curve" smooth="yes"/>
      <point x="480" y="651"/>
      <point x="471" y="663"/>
      <point x="456" y="674" type="curve" smooth="yes"/>
      <point x="430" y="691"/>
      <point x="385" y="705"/>
      <point x="328" y="707" type="curve"/>
      <point x="329" y="720"/>
      <point x="332" y="742"/>
      <point x="332" y="745" type="curve" smooth="yes"/>
      <point x="332" y="759"/>
      <point x="328" y="765"/>
      <point x="314" y="765" type="curve" smooth="yes"/>
      <point x="297" y="765" type="line" smooth="yes"/>
      <point x="283" y="765"/>
      <point x="276" y="759"/>
      <point x="275" y="745" type="curve" smooth="yes"/>
      <point x="271" y="706" type="line"/>
      <point x="158" y="695"/>
      <point x="47" y="633"/>
      <point x="47" y="483" type="curve" smooth="yes"/>
      <point x="47" y="363"/>
      <point x="146" y="323"/>
      <point x="227" y="289" type="curve"/>
      <point x="209" y="123" type="line"/>
      <point x="147" y="123"/>
      <point x="103" y="151"/>
      <point x="76" y="168" type="curve" smooth="yes"/>
      <point x="64" y="176"/>
      <point x="56" y="181"/>
      <point x="50" y="181" type="curve" smooth="yes"/>
      <point x="39" y="181"/>
      <point x="24" y="171"/>
      <point x="24" y="70" type="curve" smooth="yes"/>
      <point x="24" y="56"/>
      <point x="32" y="44"/>
      <point x="44" y="34" type="curve" smooth="yes"/>
      <point x="78" y="7"/>
      <point x="146" y="-5"/>
      <point x="196" y="-7" type="curve"/>
      <point x="194" y="-23"/>
      <point x="191" y="-50"/>
      <point x="191" y="-55" type="curve" smooth="yes"/>
      <point x="191" y="-69"/>
      <point x="194" y="-75"/>
    </contour>
    <contour>
      <point x="267" y="133" type="curve"/>
      <point x="281" y="260" type="line"/>
      <point x="302" y="245"/>
      <point x="317" y="227"/>
      <point x="317" y="203" type="curve" smooth="yes"/>
      <point x="317" y="164"/>
      <point x="295" y="143"/>
    </contour>
    <contour>
      <point x="243" y="447" type="line"/>
      <point x="215" y="463"/>
      <point x="196" y="482"/>
      <point x="196" y="510" type="curve" smooth="yes"/>
      <point x="196" y="527"/>
      <point x="203" y="559"/>
      <point x="256" y="571" type="curve"/>
    </contour>
  </outline>
</glyph>
<glyph name="ampersand" format="2">
  <advance width="624"/>
  <unicode hex="0026"/>
  <outline>
    <contour>
      <point x="211" y="-8" type="curve" smooth="yes"/>
      <point x="289" y="-8"/>
      <point x="339" y="5"/>
      <point x="397" y="32" type="curve"/>
      <point x="420" y="4"/>
      <point x="455" y="-8"/>
      <point x="500" y="-8" type="curve" smooth="yes"/>
      <point x="535" y="-8"/>
      <point x="582" y="7"/>
      <point x="588" y="44" type="curve" smooth="yes"/>
      <point x="594" y="79"/>
      <point x="595" y="102"/>
      <point x="595" y="104" type="curve" smooth="yes"/>
      <point x="595" y="113"/>
      <point x="593" y="115"/>
      <point x="587" y="115" type="curve" smooth="yes"/>
      <point x="582" y="115"/>
      <point x="568" y="109"/>
      <point x="549" y="109" type="curve" smooth="yes"/>
      <point x="528" y="109"/>
      <point x="519" y="119"/>
      <point x="519" y="142" type="curve" smooth="yes"/>
      <point x="519" y="145"/>
      <point x="536" y="309"/>
      <point x="536" y="309" type="curve"/>
      <point x="565" y="309" type="line" smooth="yes"/>
      <point x="603" y="309"/>
      <point x="623" y="370"/>
      <point x="623" y="404" type="curve" smooth="yes"/>
      <point x="623" y="406" type="line" smooth="yes"/>
      <point x="623" y="420"/>
      <point x="621" y="426"/>
      <point x="607" y="426" type="curve" smooth="yes"/>
      <point x="548" y="426" type="line"/>
      <point x="556" y="502" type="line"/>
      <point x="556" y="518"/>
      <point x="539" y="533"/>
      <point x="499" y="533" type="curve" smooth="yes"/>
      <point x="472" y="533" type="line" smooth="yes"/>
      <point x="433" y="533"/>
      <point x="411" y="522"/>
      <point x="409" y="501" type="curve" smooth="yes"/>
      <point x="400" y="426" type="line"/>
      <point x="306" y="426" type="line" smooth="yes"/>
      <point x="245" y="426"/>
      <point x="211" y="455"/>
      <point x="211" y="499" type="curve" smooth="yes"/>
      <point x="211" y="554"/>
      <point x="246" y="591"/>
      <point x="302" y="591" type="curve" smooth="yes"/>
      <point x="325" y="591"/>
      <point x="345" y="584"/>
      <point x="350" y="584" type="curve" smooth="yes"/>
      <point x="364" y="584"/>
      <point x="394" y="620"/>
      <point x="394" y="669" type="curve" smooth="yes"/>
      <point x="394" y="705"/>
      <point x="332" y="708"/>
      <point x="288" y="708" type="curve" smooth="yes"/>
      <point x="156" y="708"/>
      <point x="64" y="631"/>
      <point x="64" y="512" type="curve" smooth="yes"/>
      <point x="64" y="453"/>
      <point x="94" y="408"/>
      <point x="142" y="387" type="curve"/>
      <point x="142" y="383" type="line"/>
      <point x="52" y="350"/>
      <point x="6" y="271"/>
      <point x="6" y="177" type="curve" smooth="yes"/>
      <point x="6" y="60"/>
      <point x="87" y="-8"/>
    </contour>
    <contour>
      <point x="246" y="109" type="curve" smooth="yes"/>
      <point x="191" y="109"/>
      <point x="156" y="139"/>
      <point x="156" y="193" type="curve" smooth="yes"/>
      <point x="156" y="267"/>
      <point x="198" y="309"/>
      <point x="285" y="309" type="curve" smooth="yes"/>
      <point x="388" y="309" type="line"/>
      <point x="388" y="309"/>
      <point x="377" y="216"/>
      <point x="372" y="161" type="curve" smooth="yes"/>
      <point x="370" y="134"/>
      <point x="372" y="106"/>
      <point x="391" y="75" type="curve"/>
      <point x="421" y="160" type="line"/>
      <point x="354" y="122"/>
      <point x="292" y="109"/>
    </contour>
  </outline>
</glyph>
<glyph name="quotesingle" format="2">
  <advance width="183"/>
  <unicode hex="0027"/>
  <outline>
    <contour>
      <point x="106" y="464" type="curve" smooth="yes"/>
      <point x="121" y="464" type="line" smooth="yes"/>
      <point x="142" y="464"/>
      <point x="153" y="473"/>
      <point x="158" y="494" type="curve"/>
      <point x="172" y="553"/>
      <point x="199" y="664"/>
      <point x="199" y="670" type="curve" smooth="yes"/>
      <point x="199" y="691"/>
      <point x="185" y="702"/>
      <point x="142" y="702" type="curve" smooth="yes"/>
      <point x="135" y="702" type="line" smooth="yes"/>
      <point x="93" y="702"/>
      <point x="72" y="691"/>
      <point x="72" y="670" type="curve" smooth="yes"/>
      <point x="72" y="664" type="line"/>
      <point x="72" y="494" type="line" smooth="yes"/>
      <point x="72" y="473"/>
      <point x="85" y="464"/>
    </contour>
  </outline>
</glyph>
<glyph name="comma" format="2">
  <advance width="198"/>
  <unicode hex="002C"/>
  <outline>
    <contour>
      <point x="21" y="-125" type="curve" smooth="yes"/>
      <point x="68" y="-125"/>
      <point x="184" y="29"/>
      <point x="184" y="114" type="curve" smooth="yes"/>
      <point x="184" y="137"/>
      <point x="168" y="154"/>
      <point x="128" y="154" type="curve" smooth="yes"/>
      <point x="109" y="154" type="line" smooth="yes"/>
      <point x="67" y="154"/>
      <point x="47" y="137"/>
      <point x="45" y="110" type="curve"/>
      <point x="34" y="4"/>
      <point x="2" y="-47"/>
      <point x="-13" y="-79" type="curve" smooth="yes"/>
      <point x="-18" y="-89"/>
      <point x="-21" y="-97"/>
      <point x="-21" y="-105" type="curve" smooth="yes"/>
      <point x="-21" y="-120"/>
      <point x="4" y="-125"/>
    </contour>
  </outline>
</glyph>
<glyph name="hyphen" format="2">
  <advance width="320"/>
  <unicode hex="002D"/>
  <outline>
    <contour>
      <point x="52" y="212" type="curve" smooth="yes"/>
      <point x="256" y="212" type="line" smooth="yes"/>
      <point x="289" y="212"/>
      <point x="293" y="261"/>
      <point x="293" y="284" type="curve" smooth="yes"/>
      <point x="293" y="285" type="line" smooth="yes"/>
      <point x="293" y="308"/>
      <point x="284" y="319"/>
      <point x="267" y="319" type="curve" smooth="yes"/>
      <point x="63" y="319" type="line" smooth="yes"/>
      <point x="29" y="319"/>
      <point x="26" y="270"/>
      <point x="26" y="246" type="curve" smooth="yes"/>
      <point x="26" y="245" type="line" smooth="yes"/>
      <point x="26" y="222"/>
      <point x="34" y="212"/>
    </contour>
  </outline>
</glyph>
<glyph name="period" format="2">
  <advance width="198"/>
  <unicode hex="002E"/>
  <outline>
    <contour>
      <point x="55" y="-2" type="curve" smooth="yes"/>
      <point x="87" y="-2" type="line" smooth="yes"/>
      <point x="128" y="-2"/>
      <point x="149" y="9"/>
      <point x="151" y="30" type="curve" smooth="yes"/>
      <point x="160" y="122" type="line"/>
      <point x="160" y="142"/>
      <point x="147" y="154"/>
      <point x="104" y="154" type="curve" smooth="yes"/>
      <point x="72" y="154" type="line" smooth="yes"/>
      <point x="31" y="154"/>
      <point x="10" y="143"/>
      <point x="8" y="122" type="curve" smooth="yes"/>
      <point x="-1" y="30" type="line"/>
      <point x="-1" y="8"/>
      <point x="10" y="-2"/>
    </contour>
  </outline>
</glyph>
<glyph name="one" format="2">
  <advance width="535"/>
  <unicode hex="0031"/>
  <outline>
    <contour>
      <point x="58" y="0" type="curve" smooth="yes"/>
      <point x="446" y="0" type="line" smooth="yes"/>
      <point x="474" y="0"/>
      <point x="483" y="33"/>
      <point x="484" y="77" type="curve"/>
      <point x="484" y="81" type="line"/>
      <point x="484" y="106"/>
      <point x="476" y="117"/>
      <point x="458" y="117" type="curve" smooth="yes"/>
      <point x="351" y="117" type="line"/>
      <point x="410" y="680" type="line"/>
      <point x="410" y="692"/>
      <point x="388" y="704"/>
      <point x="371" y="704" type="curve"/>
      <point x="118" y="658" type="line" smooth="yes"/>
      <point x="89" y="653"/>
      <point x="88" y="635"/>
      <point x="88" y="605" type="curve" smooth="yes"/>
      <point x="88" y="577"/>
      <point x="92" y="546"/>
      <point x="112" y="546" type="curve"/>
      <point x="250" y="566" type="line"/>
      <point x="203" y="117" type="line"/>
      <point x="70" y="117" type="line" smooth="yes"/>
      <point x="42" y="117"/>
      <point x="33" y="85"/>
      <point x="32" y="42" type="curve"/>
      <point x="32" y="36" type="line"/>
      <point x="32" y="11"/>
      <point x="40" y="0"/>
    </contour>
  </outline>
</glyph>
<glyph name="two" format="2">
  <advance width="535"/>
  <unicode hex="0032"/>
  <outline>
    <contour>
      <point x="34" y="0" type="curve" smooth="yes"/>
      <point x="421" y="0" type="line" smooth="yes"/>
      <point x="450" y="0"/>
      <point x="459" y="32"/>
      <point x="460" y="76" type="curve"/>
      <point x="460" y="81" type="line"/>
      <point x="460" y="106"/>
      <point x="452" y="117"/>
      <point x="434" y="117" type="curve" smooth="yes"/>
      <point x="196" y="117" type="line"/>
      <point x="368" y="302" type="line"/>
      <point x="465" y="411"/>
      <point x="494" y="464"/>
      <point x="494" y="537" type="curve" smooth="yes"/>
      <point x="494" y="630"/>
      <point x="416" y="708"/>
      <point x="288" y="708" type="curve" smooth="yes"/>
      <point x="210" y="708"/>
      <point x="87" y="678"/>
      <point x="87" y="611" type="curve" smooth="yes"/>
      <point x="87" y="585"/>
      <point x="108" y="547"/>
      <point x="137" y="547" type="curve" smooth="yes"/>
      <point x="155" y="547"/>
      <point x="188" y="590"/>
      <point x="258" y="590" type="curve" smooth="yes"/>
      <point x="308" y="590"/>
      <point x="343" y="566"/>
      <point x="343" y="518" type="curve" smooth="yes"/>
      <point x="343" y="483"/>
      <point x="321" y="441"/>
      <point x="295" y="413" type="curve" smooth="yes"/>
      <point x="9" y="103" type="line"/>
      <point x="7" y="99"/>
      <point x="6" y="93"/>
      <point x="6" y="85" type="curve" smooth="yes"/>
      <point x="6" y="54"/>
      <point x="19" y="0"/>
    </contour>
  </outline>
</glyph>
<glyph name="four" format="2">
  <advance width="535"/>
  <unicode hex="0034"/>
  <outline>
    <contour>
      <point x="333" y="-2" type="curve" smooth="yes"/>
      <point x="361" y="-2" type="line" smooth="yes"/>
      <point x="403" y="-2"/>
      <point x="422" y="9"/>
      <point x="424" y="30" type="curve" smooth="yes"/>
      <point x="436" y="142" type="line"/>
      <point x="474" y="142" type="line" smooth="yes"/>
      <point x="503" y="142"/>
      <point x="513" y="175"/>
      <point x="513" y="220" type="curve"/>
      <point x="513" y="223" type="line"/>
      <point x="513" y="248"/>
      <point x="505" y="259"/>
      <point x="487" y="259" type="curve" smooth="yes"/>
      <point x="448" y="259" type="line"/>
      <point x="491" y="670" type="line"/>
      <point x="491" y="691"/>
      <point x="477" y="702"/>
      <point x="434" y="702" type="curve" smooth="yes"/>
      <point x="407" y="702" type="line" smooth="yes"/>
      <point x="378" y="702"/>
      <point x="357" y="700"/>
      <point x="344" y="683" type="curve" smooth="yes"/>
      <point x="2" y="246" type="line" smooth="yes"/>
      <point x="0" y="244"/>
      <point x="-1" y="235"/>
      <point x="-1" y="228" type="curve" smooth="yes"/>
      <point x="-1" y="199"/>
      <point x="10" y="142"/>
      <point x="26" y="142" type="curve" smooth="yes"/>
      <point x="288" y="142" type="line"/>
      <point x="276" y="30" type="line"/>
      <point x="276" y="9"/>
      <point x="290" y="-2"/>
    </contour>
    <contour>
      <point x="150" y="259" type="line"/>
      <point x="320" y="489" type="line"/>
      <point x="324" y="488" type="line"/>
      <point x="321" y="464"/>
      <point x="319" y="440"/>
      <point x="316" y="416" type="curve"/>
      <point x="300" y="259" type="line"/>
    </contour>
  </outline>
</glyph>
<glyph name="seven" format="2">
  <advance width="535"/>
  <unicode hex="0037"/>
  <outline>
    <contour>
      <point x="97" y="-2" type="curve" smooth="yes"/>
      <point x="139" y="-2" type="line" smooth="yes"/>
      <point x="168" y="-2"/>
      <point x="190" y="2"/>
      <point x="199" y="18" type="curve" smooth="yes"/>
      <point x="518" y="597" type="line" smooth="yes"/>
      <point x="520" y="602"/>
      <point x="521" y="611"/>
      <point x="521" y="620" type="curve" smooth="yes"/>
      <point x="521" y="652"/>
      <point x="510" y="700"/>
      <point x="500" y="700" type="curve" smooth="yes"/>
      <point x="104" y="700" type="line" smooth="yes"/>
      <point x="75" y="700"/>
      <point x="66" y="668"/>
      <point x="65" y="625" type="curve" smooth="yes"/>
      <point x="65" y="619" type="line" smooth="yes"/>
      <point x="65" y="594"/>
      <point x="73" y="583"/>
      <point x="92" y="583" type="curve"/>
      <point x="353" y="583" type="line"/>
      <point x="48" y="36" type="line" smooth="yes"/>
      <point x="43" y="28"/>
      <point x="41" y="22"/>
      <point x="41" y="17" type="curve" smooth="yes"/>
      <point x="41" y="-2"/>
      <point x="72" y="-2"/>
    </contour>
  </outline>
</glyph>
<glyph name="eight" format="2">
  <advance width="535"/>
  <unicode hex="0038"/>
  <outline>
    <contour>
      <point x="233" y="-8" type="curve" smooth="yes"/>
      <point x="429" y="-8"/>
      <point x="491" y="128"/>
      <point x="491" y="226" type="curve" smooth="yes"/>
      <point x="491" y="313"/>
      <point x="452" y="360"/>
      <point x="399" y="385" type="curve"/>
      <point x="452" y="412"/>
      <point x="503" y="457"/>
      <point x="503" y="552" type="curve" smooth="yes"/>
      <point x="503" y="638"/>
      <point x="435" y="708"/>
      <point x="313" y="708" type="curve" smooth="yes"/>
      <point x="152" y="708"/>
      <point x="72" y="602"/>
      <point x="72" y="496" type="curve" smooth="yes"/>
      <point x="72" y="437"/>
      <point x="96" y="401"/>
      <point x="132" y="375" type="curve"/>
      <point x="50" y="343"/>
      <point x="11" y="255"/>
      <point x="11" y="174" type="curve" smooth="yes"/>
      <point x="11" y="75"/>
      <point x="76" y="-8"/>
    </contour>
    <contour>
      <point x="243" y="109" type="curve" smooth="yes"/>
      <point x="191" y="109"/>
      <point x="162" y="142"/>
      <point x="162" y="193" type="curve" smooth="yes"/>
      <point x="162" y="259"/>
      <point x="191" y="300"/>
      <point x="230" y="326" type="curve"/>
      <point x="302" y="297"/>
      <point x="340" y="275"/>
      <point x="340" y="212" type="curve" smooth="yes"/>
      <point x="340" y="150"/>
      <point x="290" y="109"/>
    </contour>
    <contour>
      <point x="293" y="432" type="curve"/>
      <point x="251" y="449"/>
      <point x="219" y="470"/>
      <point x="219" y="513" type="curve" smooth="yes"/>
      <point x="219" y="565"/>
      <point x="258" y="591"/>
      <point x="296" y="591" type="curve" smooth="yes"/>
      <point x="330" y="591"/>
      <point x="357" y="569"/>
      <point x="357" y="532" type="curve" smooth="yes"/>
      <point x="357" y="493"/>
      <point x="334" y="457"/>
    </contour>
  </outline>
</glyph>
<glyph name="colon" format="2">
  <advance width="198"/>
  <unicode hex="003A"/>
  <outline>
    <contour>
      <point x="93" y="369" type="curve" smooth="yes"/>
      <point x="125" y="369" type="line" smooth="yes"/>
      <point x="167" y="369"/>
      <point x="186" y="380"/>
      <point x="188" y="401" type="curve" smooth="yes"/>
      <point x="198" y="493" type="line"/>
      <point x="198" y="514"/>
      <point x="184" y="525"/>
      <point x="141" y="525" type="curve" smooth="yes"/>
      <point x="109" y="525" type="line" smooth="yes"/>
      <point x="67" y="525"/>
      <point x="48" y="514"/>
      <point x="46" y="493" type="curve" smooth="yes"/>
      <point x="36" y="401" type="line"/>
      <point x="36" y="380"/>
      <point x="50" y="369"/>
    </contour>
    <contour>
      <point x="54" y="-2" type="curve" smooth="yes"/>
      <point x="86" y="-2" type="line" smooth="yes"/>
      <point x="128" y="-2"/>
      <point x="147" y="9"/>
      <point x="149" y="30" type="curve" smooth="yes"/>
      <point x="159" y="122" type="line"/>
      <point x="159" y="143"/>
      <point x="145" y="154"/>
      <point x="102" y="154" type="curve" smooth="yes"/>
      <point x="70" y="154" type="line" smooth="yes"/>
      <point x="28" y="154"/>
      <point x="9" y="143"/>
      <point x="7" y="122" type="curve" smooth="yes"/>
      <point x="-2" y="30" type="line"/>
      <point x="-2" y="9"/>
      <point x="11" y="-2"/>
    </contour>
  </outline>
</glyph>
<glyph name="less" format="2">
  <advance width="560"/>
  <unicode hex="003C"/>
  <outline>
    <contour>
      <point x="461" y="14" type="line" smooth="yes"/>
      <point x="489" y="0"/>
      <point x="496" y="40"/>
      <point x="498" y="75" type="curve"/>
      <point x="498" y="82" type="line"/>
      <point x="498" y="105"/>
      <point x="491" y="121"/>
      <point x="473" y="129" type="curve" smooth="yes"/>
      <point x="193" y="245" type="line"/>
      <point x="497" y="361" type="line" smooth="yes"/>
      <point x="529" y="373"/>
      <point x="535" y="418"/>
      <point x="536" y="448" type="curve"/>
      <point x="536" y="453" type="line"/>
      <point x="536" y="475"/>
      <point x="529" y="481"/>
      <point x="509" y="476" type="curve" smooth="yes"/>
      <point x="71" y="297" type="line" smooth="yes"/>
      <point x="47" y="287"/>
      <point x="36" y="255"/>
      <point x="36" y="235" type="curve"/>
      <point x="36" y="227" type="line"/>
      <point x="36" y="210"/>
      <point x="44" y="201"/>
      <point x="60" y="194" type="curve" smooth="yes"/>
    </contour>
  </outline>
</glyph>
<glyph name="equal" format="2">
  <advance width="560"/>
  <unicode hex="003D"/>
  <outline>
    <contour>
      <point x="73" y="267" type="curve" smooth="yes"/>
      <point x="493" y="267" type="line" smooth="yes"/>
      <point x="523" y="267"/>
      <point x="530" y="306"/>
      <point x="530" y="331" type="curve"/>
      <point x="530" y="340" type="line"/>
      <point x="530" y="364"/>
      <point x="522" y="374"/>
      <point x="504" y="374" type="curve" smooth="yes"/>
      <point x="84" y="374" type="line" smooth="yes"/>
      <point x="54" y="374"/>
      <point x="47" y="335"/>
      <point x="47" y="310" type="curve"/>
      <point x="47" y="301" type="line"/>
      <point x="47" y="277"/>
      <point x="55" y="267"/>
    </contour>
    <contour>
      <point x="54" y="86" type="curve" smooth="yes"/>
      <point x="474" y="86" type="line" smooth="yes"/>
      <point x="504" y="86"/>
      <point x="511" y="125"/>
      <point x="511" y="150" type="curve"/>
      <point x="511" y="159" type="line"/>
      <point x="511" y="183"/>
      <point x="503" y="193"/>
      <point x="485" y="193" type="curve" smooth="yes"/>
      <point x="65" y="193" type="line" smooth="yes"/>
      <point x="35" y="193"/>
      <point x="28" y="154"/>
      <point x="28" y="129" type="curve"/>
      <point x="28" y="120" type="line"/>
      <point x="28" y="96"/>
      <point x="36" y="86"/>
    </contour>
  </outline>
</glyph>
<glyph name="greater" format="2">
  <advance width="560"/>
  <unicode hex="003E"/>
  <outline>
    <contour>
      <point x="44" y="14" type="curve" smooth="yes"/>
      <point x="482" y="193" type="line" smooth="yes"/>
      <point x="507" y="203"/>
      <point x="517" y="231"/>
      <point x="517" y="257" type="curve" smooth="yes"/>
      <point x="517" y="263" type="line" smooth="yes"/>
      <point x="517" y="280"/>
      <point x="509" y="289"/>
      <point x="493" y="296" type="curve" smooth="yes"/>
      <point x="92" y="476" type="line" smooth="yes"/>
      <point x="63" y="490"/>
      <point x="56" y="446"/>
      <point x="55" y="415" type="curve" smooth="yes"/>
      <point x="55" y="408" type="line" smooth="yes"/>
      <point x="55" y="385"/>
      <point x="62" y="368"/>
      <point x="80" y="361" type="curve" smooth="yes"/>
      <point x="360" y="245" type="line"/>
      <point x="56" y="129" type="line" smooth="yes"/>
      <point x="25" y="117"/>
      <point x="18" y="74"/>
      <point x="17" y="44" type="curve" smooth="yes"/>
      <point x="17" y="37" type="line" smooth="yes"/>
      <point x="17" y="15"/>
      <point x="24" y="9"/>
    </contour>
  </outline>
</glyph>
<glyph name="C" format="2">
  <advance width="619"/>
  <unicode hex="0043"/>
  <anchor x="310" y="0" name="bottom"/>
  <anchor x="399" y="700" name="top"/>
  <outline>
    <contour>
      <point x="337" y="-8" type="curve" smooth="yes"/>
      <point x="396" y="-8"/>
      <point x="505" y="6"/>
      <point x="538" y="47" type="curve" smooth="yes"/>
      <point x="556" y="69"/>
      <point x="564" y="145"/>
      <point x="564" y="163" type="curve" smooth="yes"/>
      <point x="564" y="176"/>
      <point x="558" y="178"/>
      <point x="552" y="178" type="curve" smooth="yes"/>
      <point x="538" y="178"/>
      <point x="464" y="123"/>
      <point x="351" y="123" type="curve" smooth="yes"/>
      <point x="250" y="123"/>
      <point x="201" y="183"/>
      <point x="201" y="298" type="curve" smooth="yes"/>
      <point x="201" y="483"/>
      <point x="272" y="576"/>
      <point x="400" y="576" type="curve" smooth="yes"/>
      <point x="495" y="576"/>
      <point x="532" y="544"/>
      <point x="544" y="544" type="curve" smooth="yes"/>
      <point x="569" y="544"/>
      <point x="619" y="613"/>
      <point x="619" y="640" type="curve" smooth="yes"/>
      <point x="619" y="653"/>
      <point x="607" y="665"/>
      <point x="587" y="675" type="curve" smooth="yes"/>
      <point x="547" y="696"/>
      <point x="475" y="708"/>
      <point x="417" y="708" type="curve" smooth="yes"/>
      <point x="133" y="708"/>
      <point x="42" y="506"/>
      <point x="42" y="276" type="curve" smooth="yes"/>
      <point x="42" y="82"/>
      <point x="137" y="-8"/>
    </contour>
  </outline>
</glyph>
<glyph name="E" format="2">
  <advance width="546"/>
  <unicode hex="0045"/>
  <anchor x="253" y="0" name="bottom"/>
  <anchor x="444" y="0" name="ogonek"/>
  <anchor x="328" y="700" name="top"/>
  <outline>
    <contour>
      <point x="76" y="0" type="curve" smooth="yes"/>
      <point x="444" y="0" type="line" smooth="yes"/>
      <point x="471" y="0"/>
      <point x="481" y="34"/>
      <point x="482" y="82" type="curve" smooth="yes"/>
      <point x="482" y="91" type="line" smooth="yes"/>
      <point x="482" y="119"/>
      <point x="474" y="131"/>
      <point x="456" y="131" type="curve" smooth="yes"/>
      <point x="204" y="131" type="line"/>
      <point x="222" y="293" type="line"/>
      <point x="447" y="293" type="line" smooth="yes"/>
      <point x="475" y="293"/>
      <point x="484" y="328"/>
      <point x="485" y="376" type="curve" smooth="yes"/>
      <point x="485" y="384" type="line" smooth="yes"/>
      <point x="485" y="412"/>
      <point x="477" y="424"/>
      <point x="459" y="424" type="curve" smooth="yes"/>
      <point x="235" y="424" type="line"/>
      <point x="251" y="569" type="line"/>
      <point x="503" y="569" type="line" smooth="yes"/>
      <point x="530" y="569"/>
      <point x="540" y="604"/>
      <point x="541" y="651" type="curve" smooth="yes"/>
      <point x="541" y="660" type="line" smooth="yes"/>
      <point x="541" y="688"/>
      <point x="533" y="700"/>
      <point x="515" y="700" type="curve" smooth="yes"/>
      <point x="149" y="700" type="line" smooth="yes"/>
      <point x="121" y="700"/>
      <point x="108" y="688"/>
      <point x="105" y="660" type="curve" smooth="yes"/>
      <point x="40" y="32" type="line" smooth="yes"/>
      <point x="40" y="8"/>
      <point x="49" y="0"/>
    </contour>
  </outline>
</glyph>
<glyph name="F" format="2">
  <advance width="503"/>
  <unicode hex="0046"/>
  <anchor x="116" y="0" name="bottom"/>
  <anchor x="298" y="700" name="top"/>
  <outline>
    <contour>
      <point x="99" y="-2" type="curve" smooth="yes"/>
      <point x="134" y="-2" type="line" smooth="yes"/>
      <point x="173" y="-2"/>
      <point x="195" y="9"/>
      <point x="197" y="30" type="curve" smooth="yes"/>
      <point x="225" y="292" type="line"/>
      <point x="439" y="292" type="line" smooth="yes"/>
      <point x="466" y="292"/>
      <point x="476" y="326"/>
      <point x="477" y="372" type="curve" smooth="yes"/>
      <point x="477" y="383" type="line" smooth="yes"/>
      <point x="477" y="411"/>
      <point x="469" y="423"/>
      <point x="451" y="423" type="curve" smooth="yes"/>
      <point x="238" y="423" type="line"/>
      <point x="254" y="569" type="line"/>
      <point x="475" y="569" type="line" smooth="yes"/>
      <point x="502" y="569"/>
      <point x="511" y="602"/>
      <point x="513" y="648" type="curve" smooth="yes"/>
      <point x="513" y="660" type="line" smooth="yes"/>
      <point x="513" y="688"/>
      <point x="505" y="700"/>
      <point x="487" y="700" type="curve" smooth="yes"/>
      <point x="152" y="700" type="line" smooth="yes"/>
      <point x="124" y="700"/>
      <point x="111" y="688"/>
      <point x="108" y="660" type="curve" smooth="yes"/>
      <point x="42" y="29" type="line" smooth="yes"/>
      <point x="42" y="0"/>
      <point x="82" y="-2"/>
    </contour>
  </outline>
</glyph>
<glyph name="G" format="2">
  <advance width="672"/>
  <unicode hex="0047"/>
  <anchor x="336" y="0" name="bottom"/>
  <anchor x="397" y="700" name="top"/>
  <outline>
    <contour>
      <point x="336" y="-8" type="curve" smooth="yes"/>
      <point x="406" y="-8"/>
      <point x="569" y="2"/>
      <point x="577" y="71" type="curve" smooth="yes"/>
      <point x="608" y="358" type="line" smooth="yes"/>
      <point x="608" y="381"/>
      <point x="598" y="389"/>
      <point x="571" y="389" type="curve" smooth="yes"/>
      <point x="367" y="389" type="line" smooth="yes"/>
      <point x="343" y="389"/>
      <point x="331" y="362"/>
      <point x="330" y="324" type="curve" smooth="yes"/>
      <point x="329" y="298" type="line" smooth="yes"/>
      <point x="329" y="270"/>
      <point x="337" y="258"/>
      <point x="355" y="258" type="curve" smooth="yes"/>
      <point x="442" y="258" type="line"/>
      <point x="421" y="63" type="line"/>
      <point x="480" y="142" type="line"/>
      <point x="426" y="128"/>
      <point x="394" y="123"/>
      <point x="350" y="123" type="curve" smooth="yes"/>
      <point x="249" y="123"/>
      <point x="200" y="183"/>
      <point x="200" y="298" type="curve" smooth="yes"/>
      <point x="200" y="483"/>
      <point x="271" y="576"/>
      <point x="399" y="576" type="curve" smooth="yes"/>
      <point x="495" y="576"/>
      <point x="532" y="544"/>
      <point x="544" y="544" type="curve" smooth="yes"/>
      <point x="569" y="544"/>
      <point x="619" y="613"/>
      <point x="619" y="640" type="curve" smooth="yes"/>
      <point x="619" y="681"/>
      <point x="502" y="708"/>
      <point x="416" y="708" type="curve" smooth="yes"/>
      <point x="175" y="708"/>
      <point x="41" y="565"/>
      <point x="41" y="276" type="curve" smooth="yes"/>
      <point x="41" y="82"/>
      <point x="136" y="-8"/>
    </contour>
  </outline>
</glyph>
<glyph name="H" format="2">
  <advance width="733"/>
  <unicode hex="0048"/>
  <anchor x="341" y="0" name="bottom"/>
  <anchor x="381" y="523" name="center"/>
  <anchor x="399" y="700" name="top"/>
  <outline>
    <contour>
      <point x="99" y="-2" type="curve" smooth="yes"/>
      <point x="134" y="-2" type="line" smooth="yes"/>
      <point x="173" y="-2"/>
      <point x="195" y="9"/>
      <point x="197" y="30" type="curve" smooth="yes"/>
      <point x="224" y="291" type="line"/>
      <point x="494" y="291" type="line"/>
      <point x="467" y="29" type="line"/>
      <point x="467" y="0"/>
      <point x="507" y="-2"/>
      <point x="524" y="-2" type="curve" smooth="yes"/>
      <point x="559" y="-2" type="line" smooth="yes"/>
      <point x="598" y="-2"/>
      <point x="620" y="9"/>
      <point x="622" y="30" type="curve" smooth="yes"/>
      <point x="689" y="671" type="line"/>
      <point x="689" y="700"/>
      <point x="649" y="702"/>
      <point x="632" y="702" type="curve" smooth="yes"/>
      <point x="597" y="702" type="line" smooth="yes"/>
      <point x="558" y="702"/>
      <point x="536" y="691"/>
      <point x="534" y="670" type="curve" smooth="yes"/>
      <point x="508" y="423" type="line"/>
      <point x="238" y="423" type="line"/>
      <point x="264" y="671" type="line"/>
      <point x="264" y="700"/>
      <point x="224" y="702"/>
      <point x="207" y="702" type="curve" smooth="yes"/>
      <point x="172" y="702" type="line" smooth="yes"/>
      <point x="133" y="702"/>
      <point x="111" y="691"/>
      <point x="109" y="670" type="curve" smooth="yes"/>
      <point x="42" y="29" type="line"/>
      <point x="42" y="0"/>
      <point x="82" y="-2"/>
    </contour>
  </outline>
</glyph>
<glyph name="I" format="2">
  <advance width="282"/>
  <unicode hex="0049"/>
  <anchor x="103" y="0" name="bottom"/>
  <anchor x="142" y="0" name="ogonek"/>
  <anchor x="181" y="700" name="top"/>
  <outline>
    <contour>
      <point x="87" y="-2" type="curve" smooth="yes"/>
      <point x="122" y="-2" type="line" smooth="yes"/>
      <point x="161" y="-2"/>
      <point x="183" y="9"/>
      <point x="185" y="30" type="curve" smooth="yes"/>
      <point x="252" y="671" type="line"/>
      <point x="252" y="700"/>
      <point x="212" y="702"/>
      <point x="195" y="702" type="curve" smooth="yes"/>
      <point x="160" y="702" type="line" smooth="yes"/>
      <point x="121" y="702"/>
      <point x="99" y="691"/>
      <point x="97" y="670" type="curve" smooth="yes"/>
      <point x="30" y="29" type="line"/>
      <point x="30" y="0"/>
      <point x="70" y="-2"/>
    </contour>
  </outline>
</glyph>
<glyph name="L" format="2">
  <advance width="484"/>
  <unicode hex="004C"/>
  <anchor x="218" y="0" name="bottom"/>
  <anchor x="281" y="700" name="caron"/>
  <anchor x="184" y="700" name="top"/>
  <outline>
    <contour>
      <point x="72" y="0" type="curve" smooth="yes"/>
      <point x="412" y="0" type="line" smooth="yes"/>
      <point x="440" y="0"/>
      <point x="449" y="36"/>
      <point x="450" y="85" type="curve" smooth="yes"/>
      <point x="450" y="91" type="line" smooth="yes"/>
      <point x="450" y="119"/>
      <point x="442" y="131"/>
      <point x="424" y="131" type="curve" smooth="yes"/>
      <point x="201" y="131" type="line"/>
      <point x="258" y="671" type="line"/>
      <point x="258" y="700"/>
      <point x="218" y="702"/>
      <point x="201" y="702" type="curve" smooth="yes"/>
      <point x="166" y="702" type="line" smooth="yes"/>
      <point x="127" y="702"/>
      <point x="105" y="691"/>
      <point x="103" y="670" type="curve" smooth="yes"/>
      <point x="36" y="32" type="line"/>
      <point x="36" y="8"/>
      <point x="45" y="0"/>
    </contour>
  </outline>
</glyph>
<glyph name="M" format="2">
  <advance width="843"/>
  <unicode hex="004D"/>
  <outline>
    <contour>
      <point x="393" y="167" type="curve" smooth="yes"/>
      <point x="422" y="167" type="line" smooth="yes"/>
      <point x="441" y="167"/>
      <point x="454" y="174"/>
      <point x="464" y="186" type="curve"/>
      <point x="614" y="412" type="line" smooth="yes"/>
      <point x="623" y="425"/>
      <point x="628" y="433"/>
      <point x="635" y="445" type="curve"/>
      <point x="640" y="444" type="line"/>
      <point x="639" y="435"/>
      <point x="636" y="406"/>
      <point x="635" y="395" type="curve" smooth="yes"/>
      <point x="597" y="30" type="line"/>
      <point x="597" y="9"/>
      <point x="611" y="-2"/>
      <point x="654" y="-2" type="curve" smooth="yes"/>
      <point x="683" y="-2" type="line" smooth="yes"/>
      <point x="725" y="-2"/>
      <point x="744" y="9"/>
      <point x="746" y="30" type="curve" smooth="yes"/>
      <point x="813" y="670" type="line"/>
      <point x="813" y="691"/>
      <point x="799" y="702"/>
      <point x="756" y="702" type="curve" smooth="yes"/>
      <point x="704" y="702" type="line" smooth="yes"/>
      <point x="675" y="702"/>
      <point x="652" y="695"/>
      <point x="639" y="675" type="curve" smooth="yes"/>
      <point x="449" y="394" type="line" smooth="yes"/>
      <point x="442" y="383"/>
      <point x="435" y="373"/>
      <point x="428" y="362" type="curve"/>
      <point x="423" y="373"/>
      <point x="418" y="383"/>
      <point x="413" y="394" type="curve" smooth="yes"/>
      <point x="285" y="675" type="line" smooth="yes"/>
      <point x="276" y="695"/>
      <point x="253" y="702"/>
      <point x="224" y="702" type="curve" smooth="yes"/>
      <point x="171" y="702" type="line" smooth="yes"/>
      <point x="129" y="702"/>
      <point x="110" y="691"/>
      <point x="108" y="670" type="curve" smooth="yes"/>
      <point x="41" y="30" type="line"/>
      <point x="41" y="9"/>
      <point x="55" y="-2"/>
      <point x="98" y="-2" type="curve" smooth="yes"/>
      <point x="127" y="-2" type="line" smooth="yes"/>
      <point x="169" y="-2"/>
      <point x="188" y="9"/>
      <point x="190" y="30" type="curve" smooth="yes"/>
      <point x="228" y="395" type="line" smooth="yes"/>
      <point x="230" y="411"/>
      <point x="232" y="428"/>
      <point x="233" y="444" type="curve"/>
      <point x="237" y="445" type="line"/>
      <point x="243" y="431"/>
      <point x="249" y="418"/>
      <point x="255" y="405" type="curve" smooth="yes"/>
      <point x="355" y="186" type="line"/>
      <point x="363" y="174"/>
      <point x="374" y="167"/>
    </contour>
  </outline>
</glyph>
<glyph name="N" format="2">
  <advance width="719"/>
  <unicode hex="004E"/>
  <anchor x="341" y="0" name="bottom"/>
  <anchor x="396" y="700" name="top"/>
  <outline>
    <contour>
      <point x="92" y="-2" type="curve" smooth="yes"/>
      <point x="121" y="-2" type="line" smooth="yes"/>
      <point x="163" y="-2"/>
      <point x="182" y="9"/>
      <point x="184" y="30" type="curve" smooth="yes"/>
      <point x="219" y="366" type="line" smooth="yes"/>
      <point x="222" y="391"/>
      <point x="224" y="411"/>
      <point x="224" y="434" type="curve"/>
      <point x="230" y="435" type="line"/>
      <point x="237" y="415"/>
      <point x="248" y="395"/>
      <point x="259" y="376" type="curve" smooth="yes"/>
      <point x="451" y="25" type="line" smooth="yes"/>
      <point x="464" y="2"/>
      <point x="486" y="-2"/>
      <point x="515" y="-2" type="curve" smooth="yes"/>
      <point x="553" y="-2" type="line" smooth="yes"/>
      <point x="595" y="-2"/>
      <point x="614" y="9"/>
      <point x="616" y="30" type="curve" smooth="yes"/>
      <point x="683" y="670" type="line"/>
      <point x="683" y="691"/>
      <point x="669" y="702"/>
      <point x="626" y="702" type="curve" smooth="yes"/>
      <point x="597" y="702" type="line" smooth="yes"/>
      <point x="555" y="702"/>
      <point x="536" y="691"/>
      <point x="534" y="670" type="curve" smooth="yes"/>
      <point x="499" y="338" type="line" smooth="yes"/>
      <point x="496" y="313"/>
      <point x="494" y="293"/>
      <point x="494" y="270" type="curve"/>
      <point x="488" y="269" type="line"/>
      <point x="481" y="289"/>
      <point x="471" y="309"/>
      <point x="460" y="329" type="curve" smooth="yes"/>
      <point x="272" y="675" type="line" smooth="yes"/>
      <point x="259" y="698"/>
      <point x="237" y="702"/>
      <point x="208" y="702" type="curve" smooth="yes"/>
      <point x="165" y="702" type="line" smooth="yes"/>
      <point x="123" y="702"/>
      <point x="104" y="691"/>
      <point x="102" y="670" type="curve" smooth="yes"/>
      <point x="35" y="30" type="line"/>
      <point x="35" y="9"/>
      <point x="49" y="-2"/>
    </contour>
  </outline>
</glyph>
<glyph name="O" format="2">
  <advance width="731"/>
  <unicode hex="004F"/>
  <anchor x="327" y="0" name="bottom"/>
  <anchor x="517" y="682" name="horn"/>
  <anchor x="423" y="0" name="ogonek"/>
  <anchor x="396" y="700" name="top"/>
  <outline>
    <contour>
      <point x="328" y="-8" type="curve" smooth="yes"/>
      <point x="562" y="-8"/>
      <point x="689" y="143"/>
      <point x="689" y="414" type="curve" smooth="yes"/>
      <point x="689" y="604"/>
      <point x="589" y="708"/>
      <point x="403" y="708" type="curve" smooth="yes"/>
      <point x="140" y="708"/>
      <point x="41" y="496"/>
      <point x="41" y="284" type="curve" smooth="yes"/>
      <point x="41" y="95"/>
      <point x="142" y="-8"/>
    </contour>
    <contour>
      <point x="342" y="123" type="curve" smooth="yes"/>
      <point x="248" y="123"/>
      <point x="200" y="184"/>
      <point x="200" y="298" type="curve" smooth="yes"/>
      <point x="200" y="478"/>
      <point x="273" y="576"/>
      <point x="389" y="576" type="curve" smooth="yes"/>
      <point x="483" y="576"/>
      <point x="531" y="515"/>
      <point x="531" y="400" type="curve" smooth="yes"/>
      <point x="531" y="221"/>
      <point x="456" y="123"/>
    </contour>
  </outline>
</glyph>
<glyph name="P" format="2">
  <advance width="570"/>
  <unicode hex="0050"/>
  <anchor x="108" y="0" name="bottom"/>
  <anchor x="331" y="700" name="top"/>
  <outline>
    <contour>
      <point x="91" y="-2" type="curve" smooth="yes"/>
      <point x="125" y="-2" type="line" smooth="yes"/>
      <point x="167" y="-2"/>
      <point x="186" y="9"/>
      <point x="188" y="30" type="curve" smooth="yes"/>
      <point x="212" y="262" type="line"/>
      <point x="325" y="262" type="line" smooth="yes"/>
      <point x="393" y="262"/>
      <point x="578" y="291"/>
      <point x="578" y="517" type="curve" smooth="yes"/>
      <point x="578" y="677"/>
      <point x="444" y="700"/>
      <point x="361" y="700" type="curve" smooth="yes"/>
      <point x="144" y="700" type="line" smooth="yes"/>
      <point x="116" y="700"/>
      <point x="103" y="688"/>
      <point x="100" y="660" type="curve" smooth="yes"/>
      <point x="34" y="30" type="line"/>
      <point x="34" y="9"/>
      <point x="48" y="-2"/>
    </contour>
    <contour>
      <point x="226" y="394" type="line"/>
      <point x="245" y="569" type="line"/>
      <point x="341" y="569" type="line" smooth="yes"/>
      <point x="376" y="569"/>
      <point x="419" y="555"/>
      <point x="419" y="496" type="curve" smooth="yes"/>
      <point x="419" y="411"/>
      <point x="362" y="394"/>
      <point x="322" y="394" type="curve" smooth="yes"/>
    </contour>
  </outline>
</glyph>
<glyph name="Q" format="2">
  <advance width="731"/>
  <unicode hex="0051"/>
  <outline>
    <contour>
      <point x="625" y="-162" type="curve" smooth="yes"/>
      <point x="636" y="-162"/>
      <point x="654" y="-155"/>
      <point x="654" y="-54" type="curve" smooth="yes"/>
      <point x="654" y="-40"/>
      <point x="650" y="-32"/>
      <point x="637" y="-27" type="curve" smooth="yes"/>
      <point x="495" y="27" type="line"/>
      <point x="496" y="31" type="line"/>
      <point x="614" y="89"/>
      <point x="689" y="223"/>
      <point x="689" y="414" type="curve" smooth="yes"/>
      <point x="689" y="604"/>
      <point x="590" y="706"/>
      <point x="404" y="706" type="curve" smooth="yes"/>
      <point x="143" y="706"/>
      <point x="41" y="499"/>
      <point x="41" y="286" type="curve"/>
      <point x="42" y="149"/>
      <point x="93" y="57"/>
      <point x="192" y="16" type="curve" smooth="yes"/>
      <point x="396" y="-68"/>
      <point x="615" y="-162"/>
    </contour>
    <contour>
      <point x="342" y="119" type="curve" smooth="yes"/>
      <point x="248" y="119"/>
      <point x="200" y="181"/>
      <point x="200" y="297" type="curve" smooth="yes"/>
      <point x="200" y="477"/>
      <point x="274" y="576"/>
      <point x="390" y="576" type="curve" smooth="yes"/>
      <point x="483" y="576"/>
      <point x="531" y="516"/>
      <point x="531" y="403" type="curve" smooth="yes"/>
      <point x="531" y="219"/>
      <point x="457" y="119"/>
    </contour>
  </outline>
</glyph>
<glyph name="R" format="2">
  <advance width="610"/>
  <unicode hex="0052"/>
  <anchor x="276" y="0" name="bottom"/>
  <anchor x="332" y="700" name="top"/>
  <outline>
    <contour>
      <point x="92" y="-2" type="curve" smooth="yes"/>
      <point x="126" y="-2" type="line" smooth="yes"/>
      <point x="168" y="-2"/>
      <point x="187" y="9"/>
      <point x="189" y="30" type="curve" smooth="yes"/>
      <point x="215" y="274" type="line"/>
      <point x="254" y="274" type="line" smooth="yes"/>
      <point x="319" y="274"/>
      <point x="333" y="254"/>
      <point x="348" y="214" type="curve"/>
      <point x="407" y="19" type="line" smooth="yes"/>
      <point x="412" y="3"/>
      <point x="433" y="-2"/>
      <point x="463" y="-2" type="curve" smooth="yes"/>
      <point x="504" y="-2" type="line" smooth="yes"/>
      <point x="545" y="-2"/>
      <point x="564" y="6"/>
      <point x="566" y="18" type="curve"/>
      <point x="566" y="23"/>
      <point x="565" y="29"/>
      <point x="563" y="37" type="curve" smooth="yes"/>
      <point x="498" y="257" type="line" smooth="yes"/>
      <point x="485" y="300"/>
      <point x="459" y="339"/>
      <point x="436" y="349" type="curve"/>
      <point x="436" y="353" type="line"/>
      <point x="517" y="382"/>
      <point x="571" y="447"/>
      <point x="571" y="537" type="curve" smooth="yes"/>
      <point x="571" y="641"/>
      <point x="500" y="700"/>
      <point x="340" y="700" type="curve" smooth="yes"/>
      <point x="145" y="700" type="line" smooth="yes"/>
      <point x="117" y="700"/>
      <point x="104" y="688"/>
      <point x="101" y="660" type="curve" smooth="yes"/>
      <point x="35" y="30" type="line"/>
      <point x="35" y="9"/>
      <point x="49" y="-2"/>
    </contour>
    <contour>
      <point x="229" y="407" type="line"/>
      <point x="246" y="569" type="line"/>
      <point x="334" y="569" type="line" smooth="yes"/>
      <point x="383" y="569"/>
      <point x="410" y="543"/>
      <point x="410" y="501" type="curve" smooth="yes"/>
      <point x="410" y="449"/>
      <point x="367" y="407"/>
      <point x="324" y="407" type="curve" smooth="yes"/>
    </contour>
  </outline>
</glyph>
<glyph name="S" format="2">
  <advance width="500"/>
  <unicode hex="0053"/>
  <anchor x="233" y="0" name="bottom"/>
  <anchor x="289" y="700" name="top"/>
  <outline>
    <contour>
      <point x="218" y="-8" type="curve" smooth="yes"/>
      <point x="329" y="-8"/>
      <point x="468" y="41"/>
      <point x="468" y="238" type="curve" smooth="yes"/>
      <point x="468" y="337"/>
      <point x="402" y="379"/>
      <point x="337" y="408" type="curve" smooth="yes"/>
      <point x="273" y="438"/>
      <point x="210" y="455"/>
      <point x="210" y="513" type="curve" smooth="yes"/>
      <point x="210" y="535"/>
      <point x="222" y="576"/>
      <point x="309" y="576" type="curve" smooth="yes"/>
      <point x="348" y="576"/>
      <point x="373" y="568"/>
      <point x="391" y="561" type="curve" smooth="yes"/>
      <point x="404" y="556"/>
      <point x="412" y="551"/>
      <point x="418" y="551" type="curve" smooth="yes"/>
      <point x="442" y="551"/>
      <point x="482" y="614"/>
      <point x="482" y="640" type="curve" smooth="yes"/>
      <point x="482" y="649"/>
      <point x="476" y="659"/>
      <point x="465" y="668" type="curve" smooth="yes"/>
      <point x="439" y="690"/>
      <point x="383" y="708"/>
      <point x="309" y="708" type="curve" smooth="yes"/>
      <point x="186" y="708"/>
      <point x="49" y="654"/>
      <point x="49" y="478" type="curve" smooth="yes"/>
      <point x="49" y="376"/>
      <point x="106" y="334"/>
      <point x="167" y="304" type="curve" smooth="yes"/>
      <point x="235" y="271"/>
      <point x="307" y="254"/>
      <point x="307" y="200" type="curve" smooth="yes"/>
      <point x="307" y="137"/>
      <point x="249" y="123"/>
      <point x="206" y="123" type="curve" smooth="yes"/>
      <point x="142" y="123"/>
      <point x="101" y="152"/>
      <point x="76" y="169" type="curve" smooth="yes"/>
      <point x="65" y="176"/>
      <point x="57" y="181"/>
      <point x="52" y="181" type="curve" smooth="yes"/>
      <point x="41" y="181"/>
      <point x="26" y="171"/>
      <point x="26" y="70" type="curve" smooth="yes"/>
      <point x="26" y="55"/>
      <point x="34" y="43"/>
      <point x="47" y="33" type="curve" smooth="yes"/>
      <point x="87" y="3"/>
      <point x="170" y="-8"/>
    </contour>
  </outline>
</glyph>
<glyph name="T" format="2">
  <advance width="549"/>
  <unicode hex="0054"/>
  <anchor x="234" y="0" name="bottom"/>
  <anchor x="275" y="350" name="center"/>
  <anchor x="309" y="700" name="top"/>
  <outline>
    <contour>
      <point x="219" y="-2" type="curve" smooth="yes"/>
      <point x="254" y="-2" type="line" smooth="yes"/>
      <point x="293" y="-2"/>
      <point x="315" y="9"/>
      <point x="317" y="30" type="curve" smooth="yes"/>
      <point x="374" y="569" type="line"/>
      <point x="534" y="569" type="line" smooth="yes"/>
      <point x="561" y="569"/>
      <point x="571" y="604"/>
      <point x="572" y="651" type="curve"/>
      <point x="572" y="660" type="line"/>
      <point x="572" y="688"/>
      <point x="564" y="700"/>
      <point x="546" y="700" type="curve" smooth="yes"/>
      <point x="72" y="700" type="line" smooth="yes"/>
      <point x="46" y="700"/>
      <point x="34" y="664"/>
      <point x="34" y="625" type="curve"/>
      <point x="34" y="609" type="line"/>
      <point x="34" y="581"/>
      <point x="42" y="569"/>
      <point x="60" y="569" type="curve" smooth="yes"/>
      <point x="219" y="569" type="line"/>
      <point x="162" y="29" type="line"/>
      <point x="162" y="0"/>
      <point x="202" y="-2"/>
    </contour>
  </outline>
</glyph>
<glyph name="U" format="2">
  <advance width="712"/>
  <unicode hex="0055"/>
  <anchor x="317" y="0" name="bottom"/>
  <anchor x="589" y="702" name="horn"/>
  <anchor x="405" y="0" name="ogonek"/>
  <anchor x="396" y="700" name="top"/>
  <outline>
    <contour>
      <point x="317" y="-8" type="curve" smooth="yes"/>
      <point x="499" y="-8"/>
      <point x="617" y="80"/>
      <point x="633" y="234" type="curve" smooth="yes"/>
      <point x="678" y="670" type="line"/>
      <point x="678" y="690"/>
      <point x="665" y="702"/>
      <point x="622" y="702" type="curve" smooth="yes"/>
      <point x="589" y="702" type="line" smooth="yes"/>
      <point x="548" y="702"/>
      <point x="527" y="691"/>
      <point x="525" y="670" type="curve" smooth="yes"/>
      <point x="481" y="244" type="line" smooth="yes"/>
      <point x="474" y="174"/>
      <point x="411" y="123"/>
      <point x="331" y="123" type="curve" smooth="yes"/>
      <point x="254" y="123"/>
      <point x="200" y="168"/>
      <point x="209" y="252" type="curve" smooth="yes"/>
      <point x="252" y="670" type="line" smooth="yes"/>
      <point x="252" y="690"/>
      <point x="239" y="702"/>
      <point x="196" y="702" type="curve" smooth="yes"/>
      <point x="162" y="702" type="line" smooth="yes"/>
      <point x="121" y="702"/>
      <point x="100" y="691"/>
      <point x="98" y="670" type="curve" smooth="yes"/>
      <point x="55" y="242" type="line" smooth="yes"/>
      <point x="39" y="87"/>
      <point x="148" y="-8"/>
    </contour>
  </outline>
</glyph>
<glyph name="W" format="2">
  <advance width="882"/>
  <unicode hex="0057"/>
  <anchor x="483" y="700" name="top"/>
  <outline>
    <contour>
      <point x="174" y="-2" type="curve" smooth="yes"/>
      <point x="246" y="-2" type="line" smooth="yes"/>
      <point x="274" y="-2"/>
      <point x="297" y="5"/>
      <point x="303" y="19" type="curve" smooth="yes"/>
      <point x="416" y="343" type="line"/>
      <point x="448" y="433" type="line"/>
      <point x="460" y="346" type="line"/>
      <point x="503" y="19" type="line" smooth="yes"/>
      <point x="505" y="5"/>
      <point x="527" y="-2"/>
      <point x="556" y="-2" type="curve" smooth="yes"/>
      <point x="629" y="-2" type="line" smooth="yes"/>
      <point x="656" y="-2"/>
      <point x="681" y="5"/>
      <point x="686" y="19" type="curve"/>
      <point x="914" y="656" type="line" smooth="yes"/>
      <point x="918" y="667"/>
      <point x="920" y="674"/>
      <point x="920" y="677" type="curve" smooth="yes"/>
      <point x="920" y="692"/>
      <point x="902" y="702"/>
      <point x="860" y="702" type="curve" smooth="yes"/>
      <point x="849" y="702" type="line" smooth="yes"/>
      <point x="810" y="702"/>
      <point x="786" y="692"/>
      <point x="779" y="671" type="curve" smooth="yes"/>
      <point x="667" y="349" type="line"/>
      <point x="651" y="299"/>
      <point x="634" y="248"/>
      <point x="618" y="198" type="curve"/>
      <point x="612" y="248"/>
      <point x="605" y="299"/>
      <point x="599" y="349" type="curve"/>
      <point x="555" y="681" type="line" smooth="yes"/>
      <point x="553" y="697"/>
      <point x="534" y="702"/>
      <point x="502" y="702" type="curve" smooth="yes"/>
      <point x="464" y="702" type="line" smooth="yes"/>
      <point x="432" y="702"/>
      <point x="413" y="697"/>
      <point x="407" y="681" type="curve" smooth="yes"/>
      <point x="290" y="349" type="line"/>
      <point x="274" y="301"/>
      <point x="257" y="253"/>
      <point x="241" y="205" type="curve"/>
      <point x="236" y="253"/>
      <point x="230" y="301"/>
      <point x="225" y="349" type="curve"/>
      <point x="184" y="671" type="line" smooth="yes"/>
      <point x="181" y="692"/>
      <point x="159" y="702"/>
      <point x="120" y="702" type="curve" smooth="yes"/>
      <point x="94" y="702" type="line" smooth="yes"/>
      <point x="43" y="702"/>
      <point x="30" y="690"/>
      <point x="30" y="670" type="curve" smooth="yes"/>
      <point x="30" y="667"/>
      <point x="31" y="657"/>
      <point x="32" y="651" type="curve" smooth="yes"/>
      <point x="121" y="19" type="line" smooth="yes"/>
      <point x="122" y="5"/>
      <point x="142" y="-2"/>
    </contour>
  </outline>
</glyph>
<glyph name="X" format="2">
  <advance width="611"/>
  <unicode hex="0058"/>
  <outline>
    <contour>
      <point x="28" y="-2" type="curve" smooth="yes"/>
      <point x="66" y="-2" type="line" smooth="yes"/>
      <point x="95" y="-2"/>
      <point x="115" y="-1"/>
      <point x="129" y="17" type="curve" smooth="yes"/>
      <point x="289" y="232" type="line"/>
      <point x="400" y="17" type="line" smooth="yes"/>
      <point x="407" y="2"/>
      <point x="423" y="-2"/>
      <point x="458" y="-2" type="curve" smooth="yes"/>
      <point x="497" y="-2" type="line" smooth="yes"/>
      <point x="526" y="-2"/>
      <point x="560" y="0"/>
      <point x="560" y="23" type="curve" smooth="yes"/>
      <point x="560" y="28"/>
      <point x="558" y="35"/>
      <point x="555" y="42" type="curve" smooth="yes"/>
      <point x="389" y="363" type="line"/>
      <point x="609" y="658" type="line" smooth="yes"/>
      <point x="616" y="668"/>
      <point x="619" y="676"/>
      <point x="619" y="682" type="curve" smooth="yes"/>
      <point x="619" y="702"/>
      <point x="584" y="702"/>
      <point x="560" y="702" type="curve" smooth="yes"/>
      <point x="521" y="702" type="line" smooth="yes"/>
      <point x="492" y="702"/>
      <point x="471" y="700"/>
      <point x="458" y="683" type="curve" smooth="yes"/>
      <point x="319" y="497" type="line"/>
      <point x="224" y="683" type="line" smooth="yes"/>
      <point x="216" y="698"/>
      <point x="195" y="702"/>
      <point x="166" y="702" type="curve" smooth="yes"/>
      <point x="125" y="702" type="line" smooth="yes"/>
      <point x="93" y="702"/>
      <point x="61" y="701"/>
      <point x="61" y="678" type="curve" smooth="yes"/>
      <point x="61" y="673"/>
      <point x="63" y="666"/>
      <point x="67" y="658" type="curve" smooth="yes"/>
      <point x="219" y="365" type="line"/>
      <point x="-20" y="42" type="line" smooth="yes"/>
      <point x="-28" y="32"/>
      <point x="-31" y="24"/>
      <point x="-31" y="18" type="curve" smooth="yes"/>
      <point x="-31" y="-2"/>
      <point x="3" y="-2"/>
    </contour>
  </outline>
</glyph>
<glyph name="Z" format="2">
  <advance width="616"/>
  <unicode hex="005A"/>
  <anchor x="273" y="0" name="bottom"/>
  <anchor x="332" y="700" name="top"/>
  <outline>
    <contour>
      <point x="33" y="0" type="curve" smooth="yes"/>
      <point x="512" y="0" type="line" smooth="yes"/>
      <point x="539" y="0"/>
      <point x="550" y="38"/>
      <point x="550" y="79" type="curve" smooth="yes"/>
      <point x="550" y="91" type="line" smooth="yes"/>
      <point x="550" y="119"/>
      <point x="542" y="131"/>
      <point x="524" y="131" type="curve" smooth="yes"/>
      <point x="219" y="131" type="line"/>
      <point x="601" y="598" type="line" smooth="yes"/>
      <point x="603" y="600"/>
      <point x="604" y="605"/>
      <point x="604" y="613" type="curve" smooth="yes"/>
      <point x="604" y="641"/>
      <point x="591" y="700"/>
      <point x="572" y="700" type="curve" smooth="yes"/>
      <point x="119" y="700" type="line" smooth="yes"/>
      <point x="94" y="700"/>
      <point x="81" y="661"/>
      <point x="81" y="629" type="curve" smooth="yes"/>
      <point x="81" y="609" type="line"/>
      <point x="81" y="581"/>
      <point x="89" y="569"/>
      <point x="107" y="569" type="curve" smooth="yes"/>
      <point x="385" y="569" type="line"/>
      <point x="4" y="102" type="line" smooth="yes"/>
      <point x="2" y="100"/>
      <point x="1" y="95"/>
      <point x="1" y="87" type="curve" smooth="yes"/>
      <point x="1" y="59"/>
      <point x="14" y="0"/>
    </contour>
  </outline>
</glyph>
<glyph name="bracketleft" format="2">
  <advance width="291"/>
  <unicode hex="005B"/>
  <outline>
    <contour>
      <point x="58" y="-138" type="curve" smooth="yes"/>
      <point x="184" y="-138" type="line" smooth="yes"/>
      <point x="216" y="-138"/>
      <point x="221" y="-96"/>
      <point x="221" y="-75" type="curve"/>
      <point x="221" y="-73" type="line"/>
      <point x="221" y="-53"/>
      <point x="212" y="-43"/>
      <point x="195" y="-43" type="curve" smooth="yes"/>
      <point x="143" y="-43" type="line"/>
      <point x="218" y="673" type="line"/>
      <point x="269" y="673" type="line" smooth="yes"/>
      <point x="301" y="673"/>
      <point x="306" y="715"/>
      <point x="306" y="737" type="curve" smooth="yes"/>
      <point x="306" y="738" type="line" smooth="yes"/>
      <point x="306" y="758"/>
      <point x="297" y="768"/>
      <point x="280" y="768" type="curve" smooth="yes"/>
      <point x="153" y="768" type="line" smooth="yes"/>
      <point x="125" y="768"/>
      <point x="112" y="756"/>
      <point x="109" y="728" type="curve"/>
      <point x="80" y="450"/>
      <point x="22" y="-93"/>
      <point x="22" y="-106" type="curve" smooth="yes"/>
      <point x="22" y="-130"/>
      <point x="31" y="-138"/>
    </contour>
  </outline>
</glyph>
<glyph name="bracketright" format="2">
  <advance width="291"/>
  <unicode hex="005D"/>
  <outline>
    <contour>
      <point x="35" y="-138" type="curve" smooth="yes"/>
      <point x="162" y="-138" type="line" smooth="yes"/>
      <point x="190" y="-138"/>
      <point x="203" y="-126"/>
      <point x="206" y="-98" type="curve"/>
      <point x="235" y="180"/>
      <point x="293" y="714"/>
      <point x="293" y="736" type="curve" smooth="yes"/>
      <point x="293" y="760"/>
      <point x="284" y="768"/>
      <point x="257" y="768" type="curve" smooth="yes"/>
      <point x="131" y="768" type="line" smooth="yes"/>
      <point x="99" y="768"/>
      <point x="94" y="725"/>
      <point x="94" y="704" type="curve" smooth="yes"/>
      <point x="94" y="703" type="line" smooth="yes"/>
      <point x="94" y="683"/>
      <point x="103" y="673"/>
      <point x="120" y="673" type="curve" smooth="yes"/>
      <point x="172" y="673" type="line"/>
      <point x="97" y="-43" type="line"/>
      <point x="46" y="-43" type="line" smooth="yes"/>
      <point x="14" y="-43"/>
      <point x="9" y="-85"/>
      <point x="9" y="-106" type="curve"/>
      <point x="9" y="-108" type="line"/>
      <point x="9" y="-128"/>
      <point x="18" y="-138"/>
    </contour>
  </outline>
</glyph>
<glyph name="asciicircum" format="2">
  <advance width="450"/>
  <unicode hex="005E"/>
  <outline>
    <contour>
      <point x="67" y="318" type="curve" smooth="yes"/>
      <point x="88" y="318" type="line" smooth="yes"/>
      <point x="114" y="318"/>
      <point x="131" y="327"/>
      <point x="142" y="348" type="curve" smooth="yes"/>
      <point x="281" y="615" type="line"/>
      <point x="230" y="619" type="line"/>
      <point x="314" y="348" type="line" smooth="yes"/>
      <point x="320" y="327"/>
      <point x="337" y="318"/>
      <point x="363" y="318" type="curve" smooth="yes"/>
      <point x="384" y="318" type="line" smooth="yes"/>
      <point x="406" y="318"/>
      <point x="417" y="324"/>
      <point x="418" y="333" type="curve" smooth="yes"/>
      <point x="418" y="337"/>
      <point x="418" y="342"/>
      <point x="415" y="348" type="curve"/>
      <point x="319" y="656" type="line" smooth="yes"/>
      <point x="313" y="676"/>
      <point x="299" y="686"/>
      <point x="280" y="686" type="curve" smooth="yes"/>
      <point x="249" y="686" type="line" smooth="yes"/>
      <point x="228" y="686"/>
      <point x="214" y="676"/>
      <point x="204" y="656" type="curve" smooth="yes"/>
      <point x="42" y="348" type="line" smooth="yes"/>
      <point x="38" y="341"/>
      <point x="37" y="336"/>
      <point x="37" y="332" type="curve" smooth="yes"/>
      <point x="37" y="323"/>
      <point x="46" y="318"/>
    </contour>
  </outline>
</glyph>
<glyph name="underscore" format="2">
  <advance width="534"/>
  <unicode hex="005F"/>
  <outline>
    <contour>
      <point x="-33" y="-143" type="curve" smooth="yes"/>
      <point x="482" y="-143" type="line" smooth="yes"/>
      <point x="514" y="-143"/>
      <point x="519" y="-96"/>
      <point x="519" y="-72" type="curve"/>
      <point x="519" y="-70" type="line"/>
      <point x="519" y="-47"/>
      <point x="510" y="-36"/>
      <point x="493" y="-36" type="curve" smooth="yes"/>
      <point x="-22" y="-36" type="line" smooth="yes"/>
      <point x="-55" y="-36"/>
      <point x="-59" y="-83"/>
      <point x="-59" y="-107" type="curve"/>
      <point x="-59" y="-109" type="line"/>
      <point x="-59" y="-133"/>
      <point x="-51" y="-143"/>
    </contour>
  </outline>
</glyph>
<glyph name="grave" format="2">
  <advance width="256"/>
  <unicode hex="0060"/>
  <anchor x="192" y="523" name="_top"/>
  <outline>
    <contour>
      <point x="224" y="575" type="curve" smooth="yes"/>
      <point x="248" y="575"/>
      <point x="257" y="579"/>
      <point x="257" y="591" type="curve" smooth="yes"/>
      <point x="257" y="602"/>
      <point x="241" y="628"/>
      <point x="204" y="707" type="curve" smooth="yes"/>
      <point x="194" y="728"/>
      <point x="162" y="734"/>
      <point x="122" y="734" type="curve" smooth="yes"/>
      <point x="80" y="734"/>
      <point x="60" y="731"/>
      <point x="60" y="718" type="curve" smooth="yes"/>
      <point x="60" y="708"/>
      <point x="70" y="700"/>
      <point x="152" y="600" type="curve" smooth="yes"/>
      <point x="162" y="588"/>
      <point x="177" y="575"/>
    </contour>
  </outline>
</glyph>
<glyph name="a" format="2">
  <advance width="545"/>
  <unicode hex="0061"/>
  <anchor x="231" y="0" name="bottom"/>
  <anchor x="478" y="0" name="ogonek"/>
  <anchor x="295" y="523" name="top"/>
  <outline>
    <contour>
      <point x="186" y="-9" type="curve" smooth="yes"/>
      <point x="260" y="-9"/>
      <point x="320" y="45"/>
      <point x="341" y="105" type="curve"/>
      <point x="317" y="123" type="line"/>
      <point x="317" y="114" type="line"/>
      <point x="317" y="27"/>
      <point x="361" y="-8"/>
      <point x="437" y="-8" type="curve" smooth="yes"/>
      <point x="472" y="-8"/>
      <point x="519" y="7"/>
      <point x="525" y="44" type="curve" smooth="yes"/>
      <point x="531" y="79"/>
      <point x="532" y="102"/>
      <point x="532" y="104" type="curve" smooth="yes"/>
      <point x="532" y="113"/>
      <point x="530" y="115"/>
      <point x="524" y="115" type="curve" smooth="yes"/>
      <point x="520" y="115"/>
      <point x="509" y="109"/>
      <point x="495" y="109" type="curve" smooth="yes"/>
      <point x="474" y="109"/>
      <point x="465" y="118"/>
      <point x="465" y="141" type="curve" smooth="yes"/>
      <point x="465" y="158"/>
      <point x="502" y="495"/>
      <point x="502" y="499" type="curve" smooth="yes"/>
      <point x="502" y="515"/>
      <point x="484" y="524"/>
      <point x="444" y="524" type="curve" smooth="yes"/>
      <point x="432" y="524" type="line" smooth="yes"/>
      <point x="381" y="523"/>
      <point x="378" y="513"/>
      <point x="367" y="477" type="curve"/>
      <point x="346" y="497"/>
      <point x="303" y="530"/>
      <point x="246" y="530" type="curve" smooth="yes"/>
      <point x="115" y="530"/>
      <point x="24" y="400"/>
      <point x="24" y="208" type="curve" smooth="yes"/>
      <point x="24" y="67"/>
      <point x="89" y="-9"/>
    </contour>
    <contour>
      <point x="242" y="112" type="curve" smooth="yes"/>
      <point x="196" y="112"/>
      <point x="174" y="148"/>
      <point x="174" y="217" type="curve" smooth="yes"/>
      <point x="174" y="345"/>
      <point x="213" y="413"/>
      <point x="280" y="413" type="curve" smooth="yes"/>
      <point x="308" y="413"/>
      <point x="329" y="401"/>
      <point x="346" y="386" type="curve"/>
      <point x="341" y="364"/>
      <point x="335" y="328"/>
      <point x="333" y="308" type="curve" smooth="yes"/>
      <point x="320" y="170" type="line"/>
      <point x="300" y="139"/>
      <point x="274" y="112"/>
    </contour>
  </outline>
</glyph>
<glyph name="b" format="2">
  <advance width="569"/>
  <unicode hex="0062"/>
  <outline>
    <contour>
      <point x="282" y="-8" type="curve" smooth="yes"/>
      <point x="425" y="-8"/>
      <point x="524" y="122"/>
      <point x="524" y="314" type="curve" smooth="yes"/>
      <point x="524" y="455"/>
      <point x="451" y="531"/>
      <point x="342" y="531" type="curve" smooth="yes"/>
      <point x="292" y="531"/>
      <point x="250" y="508"/>
      <point x="221" y="474" type="curve"/>
      <point x="248" y="723" type="line"/>
      <point x="248" y="739"/>
      <point x="231" y="754"/>
      <point x="191" y="754" type="curve" smooth="yes"/>
      <point x="163" y="754" type="line" smooth="yes"/>
      <point x="124" y="754"/>
      <point x="102" y="743"/>
      <point x="100" y="722" type="curve" smooth="yes"/>
      <point x="26" y="23" type="line"/>
      <point x="26" y="7"/>
      <point x="44" y="-2"/>
      <point x="84" y="-2" type="curve" smooth="yes"/>
      <point x="96" y="-2" type="line" smooth="yes"/>
      <point x="150" y="-1"/>
      <point x="150" y="11"/>
      <point x="164" y="53" type="curve" smooth="yes"/>
      <point x="172" y="78" type="line"/>
      <point x="146" y="60" type="line"/>
      <point x="157" y="47"/>
      <point x="206" y="-8"/>
    </contour>
    <contour>
      <point x="248" y="109" type="curve" smooth="yes"/>
      <point x="220" y="109"/>
      <point x="199" y="121"/>
      <point x="183" y="135" type="curve"/>
      <point x="187" y="164"/>
      <point x="191" y="194"/>
      <point x="195" y="223" type="curve" smooth="yes"/>
      <point x="209" y="354" type="line"/>
      <point x="229" y="384"/>
      <point x="254" y="410"/>
      <point x="286" y="410" type="curve" smooth="yes"/>
      <point x="347" y="410"/>
      <point x="374" y="377"/>
      <point x="374" y="305" type="curve" smooth="yes"/>
      <point x="374" y="177"/>
      <point x="327" y="109"/>
    </contour>
  </outline>
</glyph>
<glyph name="c" format="2">
  <advance width="485"/>
  <unicode hex="0063"/>
  <anchor x="243" y="0" name="bottom"/>
  <anchor x="297" y="523" name="top"/>
  <outline>
    <contour>
      <point x="260" y="-8" type="curve" smooth="yes"/>
      <point x="306" y="-8"/>
      <point x="384" y="5"/>
      <point x="414" y="42" type="curve" smooth="yes"/>
      <point x="429" y="61"/>
      <point x="431" y="109"/>
      <point x="431" y="135" type="curve" smooth="yes"/>
      <point x="431" y="149"/>
      <point x="428" y="149"/>
      <point x="424" y="149" type="curve" smooth="yes"/>
      <point x="420" y="149"/>
      <point x="413" y="146"/>
      <point x="403" y="141" type="curve" smooth="yes"/>
      <point x="379" y="129"/>
      <point x="337" y="109"/>
      <point x="279" y="109" type="curve" smooth="yes"/>
      <point x="214" y="109"/>
      <point x="186" y="145"/>
      <point x="186" y="219" type="curve" smooth="yes"/>
      <point x="186" y="349"/>
      <point x="229" y="414"/>
      <point x="318" y="414" type="curve" smooth="yes"/>
      <point x="362" y="414"/>
      <point x="385" y="401"/>
      <point x="400" y="393" type="curve" smooth="yes"/>
      <point x="407" y="389"/>
      <point x="411" y="386"/>
      <point x="416" y="386" type="curve" smooth="yes"/>
      <point x="437" y="386"/>
      <point x="471" y="443"/>
      <point x="471" y="462" type="curve" smooth="yes"/>
      <point x="470" y="520"/>
      <point x="361" y="531"/>
      <point x="313" y="531" type="curve" smooth="yes"/>
      <point x="102" y="531"/>
      <point x="33" y="378"/>
      <point x="33" y="204" type="curve" smooth="yes"/>
      <point x="33" y="61"/>
      <point x="107" y="-8"/>
    </contour>
  </outline>
</glyph>
<glyph name="h" format="2">
  <advance width="565"/>
  <unicode hex="0068"/>
  <anchor x="261" y="0" name="bottom"/>
  <anchor x="184" y="630" name="center"/>
  <anchor x="176" y="730" name="top"/>
  <outline>
    <contour>
      <point x="442" y="-8" type="curve" smooth="yes"/>
      <point x="477" y="-8"/>
      <point x="524" y="7"/>
      <point x="530" y="44" type="curve" smooth="yes"/>
      <point x="536" y="79"/>
      <point x="537" y="102"/>
      <point x="537" y="104" type="curve" smooth="yes"/>
      <point x="537" y="113"/>
      <point x="535" y="115"/>
      <point x="529" y="115" type="curve" smooth="yes"/>
      <point x="525" y="115"/>
      <point x="514" y="109"/>
      <point x="500" y="109" type="curve" smooth="yes"/>
      <point x="479" y="109"/>
      <point x="470" y="119"/>
      <point x="470" y="142" type="curve" smooth="yes"/>
      <point x="470" y="159"/>
      <point x="495" y="382"/>
      <point x="495" y="404" type="curve" smooth="yes"/>
      <point x="495" y="491"/>
      <point x="452" y="531"/>
      <point x="363" y="531" type="curve" smooth="yes"/>
      <point x="307" y="531"/>
      <point x="250" y="499"/>
      <point x="216" y="463" type="curve"/>
      <point x="243" y="723" type="line"/>
      <point x="243" y="739"/>
      <point x="226" y="754"/>
      <point x="186" y="754" type="curve" smooth="yes"/>
      <point x="158" y="754" type="line" smooth="yes"/>
      <point x="119" y="754"/>
      <point x="97" y="743"/>
      <point x="95" y="722" type="curve" smooth="yes"/>
      <point x="22" y="29" type="line"/>
      <point x="22" y="13"/>
      <point x="39" y="-2"/>
      <point x="79" y="-2" type="curve" smooth="yes"/>
      <point x="107" y="-2" type="line" smooth="yes"/>
      <point x="146" y="-2"/>
      <point x="168" y="9"/>
      <point x="170" y="30" type="curve" smooth="yes"/>
      <point x="204" y="352" type="line"/>
      <point x="223" y="379"/>
      <point x="252" y="409"/>
      <point x="290" y="409" type="curve" smooth="yes"/>
      <point x="329" y="409"/>
      <point x="348" y="387"/>
      <point x="344" y="349" type="curve" smooth="yes"/>
      <point x="331" y="232" type="line" smooth="yes"/>
      <point x="326" y="181"/>
      <point x="321" y="130"/>
      <point x="321" y="119" type="curve" smooth="yes"/>
      <point x="321" y="29"/>
      <point x="364" y="-8"/>
    </contour>
  </outline>
</glyph>
<glyph name="l" format="2">
  <advance width="297"/>
  <unicode hex="006C"/>
  <anchor x="149" y="0" name="bottom"/>
  <anchor x="223" y="752" name="caron"/>
  <anchor x="305" y="335" name="center"/>
  <anchor x="176" y="720" name="top"/>
  <outline>
    <contour>
      <point x="154" y="-8" type="curve" smooth="yes"/>
      <point x="189" y="-8"/>
      <point x="236" y="7"/>
      <point x="242" y="44" type="curve" smooth="yes"/>
      <point x="248" y="79"/>
      <point x="249" y="102"/>
      <point x="249" y="104" type="curve" smooth="yes"/>
      <point x="249" y="113"/>
      <point x="247" y="115"/>
      <point x="241" y="115" type="curve" smooth="yes"/>
      <point x="237" y="115"/>
      <point x="226" y="109"/>
      <point x="212" y="109" type="curve" smooth="yes"/>
      <point x="180" y="109"/>
      <point x="176" y="124"/>
      <point x="180" y="158" type="curve" smooth="yes"/>
      <point x="242" y="721" type="line" smooth="yes"/>
      <point x="245" y="746"/>
      <point x="240" y="755"/>
      <point x="196" y="755" type="curve" smooth="yes"/>
      <point x="148" y="755" type="line" smooth="yes"/>
      <point x="111" y="755"/>
      <point x="99" y="745"/>
      <point x="96" y="725" type="curve" smooth="yes"/>
      <point x="35" y="148" type="line" smooth="yes"/>
      <point x="25" y="54"/>
      <point x="42" y="-8"/>
    </contour>
  </outline>
</glyph>
<glyph name="n" format="2">
  <advance width="557"/>
  <unicode hex="006E"/>
  <anchor x="257" y="0" name="bottom"/>
  <anchor x="294" y="523" name="top"/>
  <outline>
    <contour>
      <point x="363" y="531" type="curve" smooth="yes"/>
      <point x="286" y="531"/>
      <point x="207" y="470"/>
      <point x="188" y="423" type="curve"/>
      <point x="204" y="395" type="line"/>
      <point x="205" y="406"/>
      <point x="207" y="424"/>
      <point x="207" y="443" type="curve" smooth="yes"/>
      <point x="207" y="480"/>
      <point x="201" y="520"/>
      <point x="174" y="520" type="curve" smooth="yes"/>
      <point x="109" y="520"/>
      <point x="58" y="506"/>
      <point x="58" y="484" type="curve" smooth="yes"/>
      <point x="58" y="469"/>
      <point x="60" y="452"/>
      <point x="60" y="428" type="curve" smooth="yes"/>
      <point x="60" y="413"/>
      <point x="60" y="406"/>
      <point x="57" y="377" type="curve"/>
      <point x="22" y="29" type="line"/>
      <point x="22" y="13"/>
      <point x="39" y="-2"/>
      <point x="79" y="-2" type="curve" smooth="yes"/>
      <point x="107" y="-2" type="line" smooth="yes"/>
      <point x="146" y="-2"/>
      <point x="168" y="9"/>
      <point x="170" y="30" type="curve" smooth="yes"/>
      <point x="202" y="348" type="line"/>
      <point x="220" y="376"/>
      <point x="251" y="409"/>
      <point x="290" y="409" type="curve" smooth="yes"/>
      <point x="329" y="409"/>
      <point x="344" y="391"/>
      <point x="344" y="359" type="curve" smooth="yes"/>
      <point x="344" y="349"/>
      <point x="332" y="241"/>
      <point x="325" y="173" type="curve" smooth="yes"/>
      <point x="323" y="146"/>
      <point x="321" y="126"/>
      <point x="321" y="119" type="curve" smooth="yes"/>
      <point x="321" y="29"/>
      <point x="364" y="-8"/>
      <point x="442" y="-8" type="curve" smooth="yes"/>
      <point x="477" y="-8"/>
      <point x="524" y="7"/>
      <point x="530" y="44" type="curve" smooth="yes"/>
      <point x="536" y="79"/>
      <point x="537" y="102"/>
      <point x="537" y="104" type="curve" smooth="yes"/>
      <point x="537" y="113"/>
      <point x="535" y="115"/>
      <point x="529" y="115" type="curve" smooth="yes"/>
      <point x="525" y="115"/>
      <point x="514" y="109"/>
      <point x="500" y="109" type="curve" smooth="yes"/>
      <point x="479" y="109"/>
      <point x="470" y="119"/>
      <point x="470" y="142" type="curve" smooth="yes"/>
      <point x="470" y="159"/>
      <point x="495" y="382"/>
      <point x="495" y="404" type="curve" smooth="yes"/>
      <point x="495" y="491"/>
      <point x="452" y="531"/>
    </contour>
  </outline>
</glyph>
<glyph name="o" format="2">
  <advance width="569"/>
  <unicode hex="006F"/>
  <anchor x="251" y="0" name="bottom"/>
  <anchor x="402" y="505" name="horn"/>
  <anchor x="313" y="0" name="ogonek"/>
  <anchor x="294" y="523" name="top"/>
  <outline>
    <contour>
      <point x="250" y="-8" type="curve" smooth="yes"/>
      <point x="419" y="-8"/>
      <point x="524" y="106"/>
      <point x="524" y="311" type="curve" smooth="yes"/>
      <point x="524" y="454"/>
      <point x="450" y="531"/>
      <point x="307" y="531" type="curve" smooth="yes"/>
      <point x="98" y="531"/>
      <point x="33" y="374"/>
      <point x="33" y="211" type="curve" smooth="yes"/>
      <point x="33" y="69"/>
      <point x="107" y="-8"/>
    </contour>
    <contour>
      <point x="262" y="109" type="curve" smooth="yes"/>
      <point x="208" y="109"/>
      <point x="183" y="146"/>
      <point x="183" y="218" type="curve" smooth="yes"/>
      <point x="183" y="346"/>
      <point x="225" y="414"/>
      <point x="295" y="414" type="curve" smooth="yes"/>
      <point x="349" y="414"/>
      <point x="373" y="377"/>
      <point x="373" y="304" type="curve" smooth="yes"/>
      <point x="373" y="177"/>
      <point x="331" y="109"/>
    </contour>
  </outline>
</glyph>
<glyph name="p" format="2">
  <advance width="573"/>
  <unicode hex="0070"/>
  <anchor x="260" y="0" name="bottom"/>
  <anchor x="314" y="523" name="top"/>
  <outline>
    <contour>
      <point x="348" y="531" type="curve" smooth="yes"/>
      <point x="276" y="531"/>
      <point x="218" y="479"/>
      <point x="198" y="423" type="curve"/>
      <point x="212" y="404" type="line"/>
      <point x="215" y="420"/>
      <point x="217" y="440"/>
      <point x="217" y="458" type="curve" smooth="yes"/>
      <point x="217" y="488"/>
      <point x="211" y="520"/>
      <point x="185" y="520" type="curve" smooth="yes"/>
      <point x="120" y="520"/>
      <point x="69" y="506"/>
      <point x="69" y="484" type="curve" smooth="yes"/>
      <point x="69" y="469"/>
      <point x="71" y="452"/>
      <point x="71" y="428" type="curve" smooth="yes"/>
      <point x="71" y="411"/>
      <point x="70" y="386"/>
      <point x="67" y="357" type="curve" smooth="yes"/>
      <point x="11" y="-175" type="line"/>
      <point x="11" y="-191"/>
      <point x="28" y="-206"/>
      <point x="68" y="-206" type="curve" smooth="yes"/>
      <point x="96" y="-206" type="line" smooth="yes"/>
      <point x="135" y="-206"/>
      <point x="157" y="-195"/>
      <point x="159" y="-174" type="curve"/>
      <point x="181" y="32" type="line"/>
      <point x="205" y="13"/>
      <point x="241" y="-8"/>
      <point x="288" y="-8" type="curve" smooth="yes"/>
      <point x="428" y="-8"/>
      <point x="525" y="122"/>
      <point x="525" y="314" type="curve" smooth="yes"/>
      <point x="525" y="455"/>
      <point x="454" y="531"/>
    </contour>
    <contour>
      <point x="292" y="410" type="curve" smooth="yes"/>
      <point x="347" y="410"/>
      <point x="375" y="374"/>
      <point x="375" y="305" type="curve" smooth="yes"/>
      <point x="375" y="177"/>
      <point x="330" y="109"/>
      <point x="254" y="109" type="curve" smooth="yes"/>
      <point x="228" y="109"/>
      <point x="207" y="119"/>
      <point x="191" y="132" type="curve"/>
      <point x="212" y="349" type="line"/>
      <point x="232" y="382"/>
      <point x="258" y="410"/>
    </contour>
  </outline>
</glyph>
<glyph name="r" format="2">
  <advance width="366"/>
  <unicode hex="0072"/>
  <anchor x="112" y="0" name="bottom"/>
  <anchor x="169" y="523" name="top"/>
  <outline>
    <contour>
      <point x="84" y="-2" type="curve" smooth="yes"/>
      <point x="112" y="-2" type="line" smooth="yes"/>
      <point x="151" y="-2"/>
      <point x="173" y="9"/>
      <point x="175" y="30" type="curve" smooth="yes"/>
      <point x="207" y="350" type="line"/>
      <point x="231" y="382"/>
      <point x="263" y="401"/>
      <point x="294" y="401" type="curve" smooth="yes"/>
      <point x="318" y="401"/>
      <point x="325" y="392"/>
      <point x="335" y="392" type="curve" smooth="yes"/>
      <point x="349" y="392"/>
      <point x="375" y="452"/>
      <point x="375" y="485" type="curve" smooth="yes"/>
      <point x="375" y="500"/>
      <point x="372" y="531"/>
      <point x="328" y="531" type="curve" smooth="yes"/>
      <point x="253" y="531"/>
      <point x="216" y="464"/>
      <point x="190" y="423" type="curve"/>
      <point x="208" y="392" type="line"/>
      <point x="209" y="402"/>
      <point x="212" y="423"/>
      <point x="212" y="444" type="curve" smooth="yes"/>
      <point x="212" y="480"/>
      <point x="205" y="520"/>
      <point x="179" y="520" type="curve" smooth="yes"/>
      <point x="114" y="520"/>
      <point x="63" y="506"/>
      <point x="63" y="484" type="curve" smooth="yes"/>
      <point x="63" y="469"/>
      <point x="65" y="452"/>
      <point x="65" y="428" type="curve" smooth="yes"/>
      <point x="65" y="411"/>
      <point x="64" y="386"/>
      <point x="61" y="357" type="curve" smooth="yes"/>
      <point x="27" y="29" type="line" smooth="yes"/>
      <point x="27" y="13"/>
      <point x="44" y="-2"/>
    </contour>
  </outline>
</glyph>
<glyph name="s" format="2">
  <advance width="413"/>
  <unicode hex="0073"/>
  <anchor x="187" y="0" name="bottom"/>
  <anchor x="227" y="523" name="top"/>
  <outline>
    <contour>
      <point x="166" y="-8" type="curve" smooth="yes"/>
      <point x="285" y="-8"/>
      <point x="372" y="62"/>
      <point x="372" y="185" type="curve" smooth="yes"/>
      <point x="372" y="262"/>
      <point x="323" y="291"/>
      <point x="276" y="311" type="curve" smooth="yes"/>
      <point x="234" y="329"/>
      <point x="194" y="339"/>
      <point x="194" y="378" type="curve" smooth="yes"/>
      <point x="194" y="403"/>
      <point x="215" y="415"/>
      <point x="251" y="415" type="curve" smooth="yes"/>
      <point x="302" y="415"/>
      <point x="320" y="395"/>
      <point x="333" y="395" type="curve" smooth="yes"/>
      <point x="353" y="395"/>
      <point x="386" y="451"/>
      <point x="386" y="470" type="curve" smooth="yes"/>
      <point x="386" y="518"/>
      <point x="295" y="531"/>
      <point x="240" y="531" type="curve" smooth="yes"/>
      <point x="127" y="531"/>
      <point x="42" y="468"/>
      <point x="42" y="349" type="curve" smooth="yes"/>
      <point x="42" y="264"/>
      <point x="91" y="237"/>
      <point x="137" y="218" type="curve" smooth="yes"/>
      <point x="180" y="201"/>
      <point x="220" y="191"/>
      <point x="220" y="156" type="curve" smooth="yes"/>
      <point x="220" y="126"/>
      <point x="198" y="109"/>
      <point x="154" y="109" type="curve" smooth="yes"/>
      <point x="95" y="109"/>
      <point x="53" y="143"/>
      <point x="44" y="143" type="curve" smooth="yes"/>
      <point x="38" y="143"/>
      <point x="22" y="140"/>
      <point x="22" y="53" type="curve" smooth="yes"/>
      <point x="22" y="-1"/>
      <point x="135" y="-8"/>
    </contour>
  </outline>
</glyph>
<glyph name="t" format="2">
  <advance width="342"/>
  <unicode hex="0074"/>
  <anchor x="161" y="0" name="bottom"/>
  <anchor x="241" y="752" name="caron"/>
  <anchor x="156" y="292" name="center"/>
  <outline>
    <contour>
      <point x="186" y="-8" type="curve" smooth="yes"/>
      <point x="221" y="-8"/>
      <point x="268" y="7"/>
      <point x="274" y="44" type="curve" smooth="yes"/>
      <point x="280" y="79"/>
      <point x="281" y="102"/>
      <point x="281" y="104" type="curve" smooth="yes"/>
      <point x="281" y="113"/>
      <point x="279" y="115"/>
      <point x="273" y="115" type="curve" smooth="yes"/>
      <point x="268" y="115"/>
      <point x="254" y="109"/>
      <point x="235" y="109" type="curve" smooth="yes"/>
      <point x="214" y="109"/>
      <point x="205" y="119"/>
      <point x="205" y="142" type="curve" smooth="yes"/>
      <point x="205" y="145"/>
      <point x="233" y="406"/>
      <point x="233" y="406" type="curve"/>
      <point x="262" y="406" type="line" smooth="yes"/>
      <point x="301" y="406"/>
      <point x="320" y="466"/>
      <point x="320" y="503" type="curve" smooth="yes"/>
      <point x="320" y="517"/>
      <point x="318" y="523"/>
      <point x="304" y="523" type="curve" smooth="yes"/>
      <point x="245" y="523" type="line"/>
      <point x="255" y="619" type="line"/>
      <point x="255" y="635"/>
      <point x="238" y="650"/>
      <point x="198" y="650" type="curve" smooth="yes"/>
      <point x="170" y="650" type="line" smooth="yes"/>
      <point x="131" y="650"/>
      <point x="109" y="639"/>
      <point x="107" y="618" type="curve" smooth="yes"/>
      <point x="97" y="523" type="line"/>
      <point x="77" y="523" type="line" smooth="yes"/>
      <point x="48" y="523"/>
      <point x="39" y="488"/>
      <point x="39" y="442" type="curve" smooth="yes"/>
      <point x="39" y="417"/>
      <point x="47" y="406"/>
      <point x="65" y="406" type="curve" smooth="yes"/>
      <point x="85" y="406" type="line"/>
      <point x="85" y="406"/>
      <point x="56" y="147"/>
      <point x="56" y="125" type="curve" smooth="yes"/>
      <point x="56" y="32"/>
      <point x="106" y="-8"/>
    </contour>
  </outline>
</glyph>
<glyph name="u" format="2">
  <advance width="557"/>
  <unicode hex="0075"/>
  <anchor x="231" y="0" name="bottom"/>
  <anchor x="416" y="525" name="horn"/>
  <anchor x="482" y="0" name="ogonek"/>
  <anchor x="294" y="523" name="top"/>
  <outline>
    <contour>
      <point x="160" y="-8" type="curve" smooth="yes"/>
      <point x="240" y="-8"/>
      <point x="315" y="52"/>
      <point x="341" y="102" type="curve"/>
      <point x="316" y="126" type="line"/>
      <point x="316" y="118" type="line"/>
      <point x="315" y="29"/>
      <point x="358" y="-8"/>
      <point x="436" y="-8" type="curve" smooth="yes"/>
      <point x="471" y="-8"/>
      <point x="518" y="7"/>
      <point x="524" y="44" type="curve" smooth="yes"/>
      <point x="530" y="79"/>
      <point x="531" y="102"/>
      <point x="531" y="104" type="curve" smooth="yes"/>
      <point x="531" y="113"/>
      <point x="529" y="115"/>
      <point x="523" y="115" type="curve" smooth="yes"/>
      <point x="519" y="115"/>
      <point x="508" y="109"/>
      <point x="494" y="109" type="curve" smooth="yes"/>
      <point x="473" y="109"/>
      <point x="464" y="119"/>
      <point x="464" y="142" type="curve" smooth="yes"/>
      <point x="464" y="147"/>
      <point x="472" y="219"/>
      <point x="480" y="297" type="curve" smooth="yes"/>
      <point x="487" y="362"/>
      <point x="496" y="447"/>
      <point x="501" y="494" type="curve"/>
      <point x="501" y="510"/>
      <point x="484" y="525"/>
      <point x="444" y="525" type="curve" smooth="yes"/>
      <point x="416" y="525" type="line" smooth="yes"/>
      <point x="377" y="525"/>
      <point x="355" y="514"/>
      <point x="353" y="493" type="curve"/>
      <point x="319" y="168" type="line"/>
      <point x="301" y="143"/>
      <point x="271" y="114"/>
      <point x="233" y="114" type="curve" smooth="yes"/>
      <point x="194" y="114"/>
      <point x="176" y="136"/>
      <point x="179" y="167" type="curve" smooth="yes"/>
      <point x="213" y="494" type="line" smooth="yes"/>
      <point x="213" y="510"/>
      <point x="196" y="525"/>
      <point x="156" y="525" type="curve" smooth="yes"/>
      <point x="128" y="525" type="line" smooth="yes"/>
      <point x="89" y="525"/>
      <point x="67" y="514"/>
      <point x="65" y="493" type="curve" smooth="yes"/>
      <point x="30" y="146" type="line" smooth="yes"/>
      <point x="22" y="66"/>
      <point x="46" y="-8"/>
    </contour>
  </outline>
</glyph>
<glyph name="w" format="2">
  <advance width="747"/>
  <unicode hex="0077"/>
  <anchor x="404" y="523" name="top"/>
  <outline>
    <contour>
      <point x="169" y="-2" type="curve" smooth="yes"/>
      <point x="218" y="-2" type="line" smooth="yes"/>
      <point x="247" y="-2"/>
      <point x="270" y="5"/>
      <point x="275" y="19" type="curve" smooth="yes"/>
      <point x="361" y="268" type="line"/>
      <point x="365" y="286"/>
      <point x="369" y="305"/>
      <point x="373" y="323" type="curve"/>
      <point x="376" y="323" type="line"/>
      <point x="377" y="305"/>
      <point x="378" y="286"/>
      <point x="379" y="268" type="curve"/>
      <point x="415" y="19" type="line"/>
      <point x="418" y="5"/>
      <point x="436" y="-2"/>
      <point x="468" y="-2" type="curve" smooth="yes"/>
      <point x="517" y="-2" type="line" smooth="yes"/>
      <point x="545" y="-2"/>
      <point x="569" y="5"/>
      <point x="574" y="19" type="curve" smooth="yes"/>
      <point x="741" y="484" type="line" smooth="yes"/>
      <point x="743" y="491"/>
      <point x="744" y="497"/>
      <point x="744" y="501" type="curve" smooth="yes"/>
      <point x="744" y="515"/>
      <point x="728" y="524"/>
      <point x="691" y="525" type="curve"/>
      <point x="685" y="525" type="line"/>
      <point x="649" y="525"/>
      <point x="629" y="518"/>
      <point x="624" y="504" type="curve" smooth="yes"/>
      <point x="526" y="231" type="line"/>
      <point x="521" y="211"/>
      <point x="517" y="192"/>
      <point x="512" y="172" type="curve"/>
      <point x="509" y="172" type="line"/>
      <point x="508" y="191"/>
      <point x="507" y="211"/>
      <point x="506" y="230" type="curve"/>
      <point x="469" y="504" type="line" smooth="yes"/>
      <point x="467" y="518"/>
      <point x="444" y="525"/>
      <point x="416" y="525" type="curve" smooth="yes"/>
      <point x="392" y="525" type="line" smooth="yes"/>
      <point x="359" y="525"/>
      <point x="340" y="518"/>
      <point x="335" y="504" type="curve" smooth="yes"/>
      <point x="243" y="241" type="line"/>
      <point x="238" y="220"/>
      <point x="233" y="199"/>
      <point x="228" y="178" type="curve"/>
      <point x="224" y="178" type="line"/>
      <point x="222" y="199"/>
      <point x="220" y="219"/>
      <point x="218" y="240" type="curve"/>
      <point x="180" y="504" type="line" smooth="yes"/>
      <point x="178" y="518"/>
      <point x="154" y="525"/>
      <point x="127" y="525" type="curve" smooth="yes"/>
      <point x="103" y="525" type="line" smooth="yes"/>
      <point x="60" y="525"/>
      <point x="40" y="515"/>
      <point x="38" y="499" type="curve" smooth="yes"/>
      <point x="38" y="494"/>
      <point x="38" y="488"/>
      <point x="43" y="458" type="curve" smooth="yes"/>
      <point x="116" y="19" type="line" smooth="yes"/>
      <point x="118" y="5"/>
      <point x="136" y="-2"/>
    </contour>
  </outline>
</glyph>
<glyph name="x" format="2">
  <advance width="485"/>
  <unicode hex="0078"/>
  <outline>
    <contour>
      <point x="32" y="-2" type="curve" smooth="yes"/>
      <point x="62" y="-2" type="line" smooth="yes"/>
      <point x="91" y="-2"/>
      <point x="112" y="-1"/>
      <point x="125" y="17" type="curve" smooth="yes"/>
      <point x="209" y="131" type="line"/>
      <point x="213" y="137"/>
      <point x="216" y="142"/>
      <point x="220" y="148" type="curve"/>
      <point x="223" y="148" type="line"/>
      <point x="226" y="142"/>
      <point x="228" y="136"/>
      <point x="231" y="130" type="curve"/>
      <point x="290" y="17" type="line" smooth="yes"/>
      <point x="299" y="-1"/>
      <point x="320" y="-2"/>
      <point x="349" y="-2" type="curve" smooth="yes"/>
      <point x="381" y="-2" type="line" smooth="yes"/>
      <point x="415" y="-2"/>
      <point x="444" y="-1"/>
      <point x="444" y="20" type="curve" smooth="yes"/>
      <point x="444" y="25"/>
      <point x="442" y="33"/>
      <point x="437" y="42" type="curve" smooth="yes"/>
      <point x="313" y="266" type="line"/>
      <point x="482" y="482" type="line" smooth="yes"/>
      <point x="490" y="492"/>
      <point x="494" y="500"/>
      <point x="494" y="506" type="curve" smooth="yes"/>
      <point x="494" y="525"/>
      <point x="458" y="525"/>
      <point x="434" y="525" type="curve" smooth="yes"/>
      <point x="405" y="525" type="line" smooth="yes"/>
      <point x="376" y="525"/>
      <point x="355" y="524"/>
      <point x="342" y="506" type="curve" smooth="yes"/>
      <point x="267" y="406" type="line"/>
      <point x="262" y="399"/>
      <point x="258" y="391"/>
      <point x="253" y="384" type="curve"/>
      <point x="248" y="384" type="line"/>
      <point x="244" y="392"/>
      <point x="241" y="400"/>
      <point x="237" y="408" type="curve"/>
      <point x="187" y="506" type="line" smooth="yes"/>
      <point x="178" y="524"/>
      <point x="157" y="525"/>
      <point x="128" y="525" type="curve" smooth="yes"/>
      <point x="96" y="525" type="line" smooth="yes"/>
      <point x="65" y="525"/>
      <point x="32" y="523"/>
      <point x="32" y="505" type="curve" smooth="yes"/>
      <point x="32" y="499"/>
      <point x="34" y="491"/>
      <point x="40" y="481" type="curve" smooth="yes"/>
      <point x="159" y="265" type="line"/>
      <point x="-16" y="41" type="line" smooth="yes"/>
      <point x="-24" y="31"/>
      <point x="-28" y="24"/>
      <point x="-28" y="18" type="curve" smooth="yes"/>
      <point x="-28" y="-2"/>
      <point x="10" y="-2"/>
    </contour>
  </outline>
</glyph>
<glyph name="z" format="2">
  <advance width="489"/>
  <unicode hex="007A"/>
  <anchor x="211" y="0" name="bottom"/>
  <anchor x="285" y="523" name="top"/>
  <outline>
    <contour>
      <point x="31" y="0" type="curve" smooth="yes"/>
      <point x="402" y="0" type="line" smooth="yes"/>
      <point x="430" y="0"/>
      <point x="440" y="34"/>
      <point x="440" y="75" type="curve" smooth="yes"/>
      <point x="440" y="81" type="line" smooth="yes"/>
      <point x="440" y="106"/>
      <point x="432" y="117"/>
      <point x="414" y="117" type="curve" smooth="yes"/>
      <point x="207" y="117" type="line"/>
      <point x="468" y="431" type="line" smooth="yes"/>
      <point x="471" y="434"/>
      <point x="472" y="441"/>
      <point x="472" y="450" type="curve" smooth="yes"/>
      <point x="472" y="477"/>
      <point x="461" y="523"/>
      <point x="448" y="523" type="curve" smooth="yes"/>
      <point x="96" y="523" type="line" smooth="yes"/>
      <point x="68" y="523"/>
      <point x="58" y="489"/>
      <point x="58" y="445" type="curve" smooth="yes"/>
      <point x="58" y="442" type="line" smooth="yes"/>
      <point x="58" y="417"/>
      <point x="66" y="406"/>
      <point x="84" y="406" type="curve" smooth="yes"/>
      <point x="272" y="406" type="line"/>
      <point x="11" y="92" type="line" smooth="yes"/>
      <point x="8" y="89"/>
      <point x="7" y="82"/>
      <point x="7" y="73" type="curve" smooth="yes"/>
      <point x="7" y="46"/>
      <point x="18" y="0"/>
    </contour>
  </outline>
</glyph>
<glyph name="braceleft" format="2">
  <advance width="274"/>
  <unicode hex="007B"/>
  <outline>
    <contour>
      <point x="145" y="-138" type="curve" smooth="yes"/>
      <point x="184" y="-138" type="line" smooth="yes"/>
      <point x="210" y="-138"/>
      <point x="220" y="-111"/>
      <point x="220" y="-75" type="curve"/>
      <point x="220" y="-73" type="line"/>
      <point x="220" y="-53"/>
      <point x="211" y="-44"/>
      <point x="195" y="-44" type="curve"/>
      <point x="194" y="-44" type="line"/>
      <point x="182" y="-44"/>
      <point x="174" y="-37"/>
      <point x="174" y="-18" type="curve" smooth="yes"/>
      <point x="174" y="18"/>
      <point x="194" y="152"/>
      <point x="194" y="195" type="curve" smooth="yes"/>
      <point x="194" y="252"/>
      <point x="176" y="294"/>
      <point x="141" y="315" type="curve"/>
      <point x="183" y="340"/>
      <point x="217" y="394"/>
      <point x="225" y="468" type="curve" smooth="yes"/>
      <point x="242" y="638" type="line" smooth="yes"/>
      <point x="244" y="664"/>
      <point x="252" y="674"/>
      <point x="269" y="674" type="curve"/>
      <point x="270" y="674" type="line"/>
      <point x="297" y="675"/>
      <point x="306" y="701"/>
      <point x="306" y="737" type="curve"/>
      <point x="306" y="739" type="line"/>
      <point x="306" y="759"/>
      <point x="297" y="768"/>
      <point x="279" y="768" type="curve" smooth="yes"/>
      <point x="240" y="768" type="line" smooth="yes"/>
      <point x="177" y="768"/>
      <point x="136" y="720"/>
      <point x="129" y="652" type="curve" smooth="yes"/>
      <point x="111" y="484" type="line" smooth="yes"/>
      <point x="104" y="417"/>
      <point x="88" y="389"/>
      <point x="52" y="371" type="curve" smooth="yes"/>
      <point x="24" y="356"/>
      <point x="16" y="341"/>
      <point x="16" y="305" type="curve"/>
      <point x="16" y="303" type="line"/>
      <point x="16" y="281"/>
      <point x="28" y="273"/>
      <point x="42" y="263" type="curve" smooth="yes"/>
      <point x="59" y="250"/>
      <point x="78" y="233"/>
      <point x="78" y="182" type="curve" smooth="yes"/>
      <point x="78" y="116"/>
      <point x="57" y="2"/>
      <point x="57" y="-39" type="curve" smooth="yes"/>
      <point x="57" y="-98"/>
      <point x="92" y="-138"/>
    </contour>
  </outline>
</glyph>
<glyph name="bar" format="2">
  <advance width="250"/>
  <unicode hex="007C"/>
  <outline>
    <contour>
      <point x="133" y="768" type="curve" smooth="yes"/>
      <point x="118" y="768" type="line" smooth="yes"/>
      <point x="83" y="768"/>
      <point x="68" y="759"/>
      <point x="68" y="738" type="curve" smooth="yes"/>
      <point x="68" y="-108" type="line" smooth="yes"/>
      <point x="68" y="-129"/>
      <point x="83" y="-138"/>
      <point x="118" y="-138" type="curve" smooth="yes"/>
      <point x="133" y="-138" type="line" smooth="yes"/>
      <point x="168" y="-138"/>
      <point x="183" y="-129"/>
      <point x="183" y="-108" type="curve" smooth="yes"/>
      <point x="183" y="738" type="line" smooth="yes"/>
      <point x="183" y="759"/>
      <point x="168" y="768"/>
    </contour>
  </outline>
</glyph>
<glyph name="asciitilde" format="2">
  <advance width="547"/>
  <unicode hex="007E"/>
  <outline>
    <contour>
      <point x="372" y="206" type="curve" smooth="yes"/>
      <point x="425" y="206"/>
      <point x="462" y="237"/>
      <point x="478" y="275" type="curve" smooth="yes"/>
      <point x="481" y="282"/>
      <point x="482" y="287"/>
      <point x="482" y="291" type="curve" smooth="yes"/>
      <point x="482" y="298"/>
      <point x="479" y="307"/>
      <point x="469" y="312" type="curve" smooth="yes"/>
      <point x="459" y="317" type="line" smooth="yes"/>
      <point x="435" y="329"/>
      <point x="429" y="319"/>
      <point x="410" y="303" type="curve" smooth="yes"/>
      <point x="397" y="292"/>
      <point x="383" y="288"/>
      <point x="368" y="288" type="curve" smooth="yes"/>
      <point x="343" y="288"/>
      <point x="315" y="295"/>
      <point x="286" y="302" type="curve" smooth="yes"/>
      <point x="252" y="311"/>
      <point x="216" y="318"/>
      <point x="188" y="318" type="curve" smooth="yes"/>
      <point x="135" y="318"/>
      <point x="98" y="287"/>
      <point x="82" y="249" type="curve" smooth="yes"/>
      <point x="79" y="242"/>
      <point x="78" y="237"/>
      <point x="78" y="233" type="curve" smooth="yes"/>
      <point x="78" y="226"/>
      <point x="81" y="217"/>
      <point x="91" y="212" type="curve" smooth="yes"/>
      <point x="101" y="207" type="line" smooth="yes"/>
      <point x="125" y="195"/>
      <point x="131" y="205"/>
      <point x="150" y="221" type="curve" smooth="yes"/>
      <point x="163" y="232"/>
      <point x="177" y="236"/>
      <point x="192" y="236" type="curve" smooth="yes"/>
      <point x="217" y="236"/>
      <point x="245" y="229"/>
      <point x="274" y="222" type="curve" smooth="yes"/>
      <point x="308" y="213"/>
      <point x="344" y="206"/>
    </contour>
  </outline>
</glyph>
<glyph name="cent" format="2">
  <advance width="486"/>
  <unicode hex="00A2"/>
  <anchor x="297" y="523" name="top"/>
  <anchor x="243" y="0" name="bottom"/>
  <outline>
    <contour>
      <point x="287" y="-55" type="curve"/>
      <point x="353" y="571" type="line"/>
      <point x="353" y="585"/>
      <point x="349" y="591"/>
      <point x="335" y="591" type="curve" smooth="yes"/>
      <point x="318" y="591" type="line" smooth="yes"/>
      <point x="303" y="591"/>
      <point x="298" y="585"/>
      <point x="296" y="571" type="curve"/>
      <point x="230" y="-55" type="line"/>
      <point x="230" y="-69"/>
      <point x="233" y="-75"/>
      <point x="248" y="-75" type="curve" smooth="yes"/>
      <point x="265" y="-75" type="line" smooth="yes"/>
      <point x="278" y="-75"/>
      <point x="286" y="-69"/>
    </contour>
    <component base="c"/>
  </outline>
</glyph>
<glyph name="sterling" format="2">
  <advance width="491"/>
  <unicode hex="00A3"/>
  <outline>
    <contour>
      <point x="34" y="0" type="curve" smooth="yes"/>
      <point x="397" y="0" type="line" smooth="yes"/>
      <point x="416" y="0"/>
      <point x="431" y="15"/>
      <point x="433" y="50" type="curve"/>
      <point x="435" y="84" type="line"/>
      <point x="435" y="107"/>
      <point x="427" y="117"/>
      <point x="410" y="117" type="curve" smooth="yes"/>
      <point x="187" y="117" type="line"/>
      <point x="217" y="145"/>
      <point x="236" y="188"/>
      <point x="242" y="251" type="curve" smooth="yes"/>
      <point x="248" y="311" type="line"/>
      <point x="338" y="311" type="line" smooth="yes"/>
      <point x="376" y="311"/>
      <point x="395" y="369"/>
      <point x="396" y="406" type="curve"/>
      <point x="396" y="408" type="line"/>
      <point x="396" y="422"/>
      <point x="394" y="428"/>
      <point x="380" y="428" type="curve" smooth="yes"/>
      <point x="260" y="428" type="line"/>
      <point x="269" y="507" type="line" smooth="yes"/>
      <point x="276" y="570"/>
      <point x="308" y="596"/>
      <point x="369" y="596" type="curve" smooth="yes"/>
      <point x="403" y="596"/>
      <point x="427" y="588"/>
      <point x="432" y="588" type="curve" smooth="yes"/>
      <point x="448" y="588"/>
      <point x="480" y="630"/>
      <point x="480" y="667" type="curve" smooth="yes"/>
      <point x="480" y="708"/>
      <point x="397" y="708"/>
      <point x="375" y="708" type="curve" smooth="yes"/>
      <point x="222" y="708"/>
      <point x="138" y="640"/>
      <point x="123" y="502" type="curve" smooth="yes"/>
      <point x="115" y="428" type="line"/>
      <point x="80" y="428" type="line" smooth="yes"/>
      <point x="51" y="428"/>
      <point x="42" y="394"/>
      <point x="42" y="349" type="curve"/>
      <point x="42" y="347" type="line"/>
      <point x="42" y="322"/>
      <point x="50" y="311"/>
      <point x="68" y="311" type="curve" smooth="yes"/>
      <point x="103" y="311" type="line"/>
      <point x="89" y="175" type="line" smooth="yes"/>
      <point x="82" y="107"/>
      <point x="7" y="100"/>
      <point x="1" y="59" type="curve" smooth="yes"/>
      <point x="-1" y="46"/>
      <point x="-1" y="43"/>
      <point x="-1" y="40" type="curve"/>
      <point x="-1" y="12"/>
      <point x="5" y="0"/>
    </contour>
  </outline>
</glyph>
<glyph name="currency" format="2">
  <advance width="534"/>
  <unicode hex="00A4"/>
  <outline>
    <contour>
      <point x="85" y="72" type="curve" smooth="yes"/>
      <point x="94" y="72"/>
      <point x="103" y="76"/>
      <point x="112" y="84" type="curve" smooth="yes"/>
      <point x="135" y="105" type="line"/>
      <point x="164" y="88"/>
      <point x="199" y="78"/>
      <point x="237" y="78" type="curve" smooth="yes"/>
      <point x="275" y="78"/>
      <point x="313" y="88"/>
      <point x="346" y="107" type="curve"/>
      <point x="367" y="84" type="line" smooth="yes"/>
      <point x="374" y="76"/>
      <point x="382" y="72"/>
      <point x="390" y="72" type="curve" smooth="yes"/>
      <point x="399" y="72"/>
      <point x="408" y="76"/>
      <point x="417" y="84" type="curve" smooth="yes"/>
      <point x="450" y="114" type="line" smooth="yes"/>
      <point x="460" y="123"/>
      <point x="464" y="133"/>
      <point x="464" y="142" type="curve" smooth="yes"/>
      <point x="464" y="150"/>
      <point x="461" y="157"/>
      <point x="455" y="164" type="curve" smooth="yes"/>
      <point x="433" y="188" type="line"/>
      <point x="457" y="224"/>
      <point x="471" y="266"/>
      <point x="471" y="312" type="curve" smooth="yes"/>
      <point x="471" y="341"/>
      <point x="465" y="368"/>
      <point x="453" y="393" type="curve"/>
      <point x="485" y="422" type="line" smooth="yes"/>
      <point x="495" y="431"/>
      <point x="500" y="441"/>
      <point x="500" y="450" type="curve" smooth="yes"/>
      <point x="500" y="458"/>
      <point x="496" y="465"/>
      <point x="490" y="472" type="curve" smooth="yes"/>
      <point x="463" y="502" type="line" smooth="yes"/>
      <point x="456" y="510"/>
      <point x="449" y="514"/>
      <point x="440" y="514" type="curve" smooth="yes"/>
      <point x="432" y="514"/>
      <point x="422" y="510"/>
      <point x="413" y="502" type="curve" smooth="yes"/>
      <point x="381" y="473" type="line"/>
      <point x="352" y="490"/>
      <point x="318" y="500"/>
      <point x="281" y="500" type="curve" smooth="yes"/>
      <point x="244" y="500"/>
      <point x="209" y="490"/>
      <point x="178" y="474" type="curve"/>
      <point x="152" y="502" type="line" smooth="yes"/>
      <point x="145" y="510"/>
      <point x="138" y="514"/>
      <point x="129" y="514" type="curve" smooth="yes"/>
      <point x="121" y="514"/>
      <point x="111" y="510"/>
      <point x="102" y="502" type="curve" smooth="yes"/>
      <point x="69" y="472" type="line" smooth="yes"/>
      <point x="59" y="463"/>
      <point x="55" y="454"/>
      <point x="55" y="444" type="curve" smooth="yes"/>
      <point x="55" y="437"/>
      <point x="58" y="429"/>
      <point x="64" y="422" type="curve" smooth="yes"/>
      <point x="88" y="395" type="line"/>
      <point x="61" y="358"/>
      <point x="47" y="312"/>
      <point x="47" y="266" type="curve" smooth="yes"/>
      <point x="47" y="237"/>
      <point x="53" y="210"/>
      <point x="64" y="186" type="curve"/>
      <point x="40" y="164" type="line" smooth="yes"/>
      <point x="30" y="155"/>
      <point x="25" y="146"/>
      <point x="25" y="136" type="curve" smooth="yes"/>
      <point x="25" y="129"/>
      <point x="29" y="121"/>
      <point x="35" y="114" type="curve" smooth="yes"/>
      <point x="62" y="84" type="line" smooth="yes"/>
      <point x="69" y="76"/>
      <point x="77" y="72"/>
    </contour>
    <contour>
      <point x="249" y="192" type="curve" smooth="yes"/>
      <point x="199" y="192"/>
      <point x="161" y="229"/>
      <point x="161" y="278" type="curve" smooth="yes"/>
      <point x="161" y="337"/>
      <point x="211" y="386"/>
      <point x="269" y="386" type="curve" smooth="yes"/>
      <point x="319" y="386"/>
      <point x="356" y="349"/>
      <point x="356" y="300" type="curve" smooth="yes"/>
      <point x="356" y="241"/>
      <point x="306" y="192"/>
    </contour>
  </outline>
</glyph>
<glyph name="yen" format="2">
  <advance width="559"/>
  <unicode hex="00A5"/>
  <anchor x="313" y="700" name="top"/>
  <anchor x="246" y="0" name="bottom"/>
  <outline>
    <contour>
      <point x="67" y="333" type="curve"/>
      <point x="483" y="333" type="line"/>
      <point x="513" y="333"/>
      <point x="519" y="362"/>
      <point x="520" y="380" type="curve"/>
      <point x="520" y="384" type="line"/>
      <point x="520" y="400"/>
      <point x="511" y="408"/>
      <point x="494" y="408" type="curve"/>
      <point x="348" y="408" type="line"/>
      <point x="285" y="408" type="line"/>
      <point x="200" y="408" type="line"/>
      <point x="78" y="408" type="line"/>
      <point x="48" y="408"/>
      <point x="42" y="381"/>
      <point x="41" y="363" type="curve"/>
      <point x="41" y="357" type="line"/>
      <point x="41" y="340"/>
      <point x="49" y="333"/>
    </contour>
    <contour>
      <point x="52" y="195" type="curve"/>
      <point x="468" y="195" type="line"/>
      <point x="498" y="195"/>
      <point x="504" y="223"/>
      <point x="505" y="241" type="curve"/>
      <point x="505" y="246" type="line"/>
      <point x="505" y="262"/>
      <point x="496" y="270"/>
      <point x="479" y="270" type="curve"/>
      <point x="63" y="270" type="line"/>
      <point x="33" y="270"/>
      <point x="27" y="244"/>
      <point x="26" y="226" type="curve"/>
      <point x="26" y="219" type="line"/>
      <point x="26" y="202"/>
      <point x="34" y="195"/>
    </contour>
    <component base="Y"/>
  </outline>
</glyph>
<glyph name="dieresis" format="2">
  <advance width="256"/>
  <unicode hex="00A8"/>
  <anchor x="147" y="523" name="_top"/>
  <outline>
    <contour>
      <point x="244" y="578" type="curve" smooth="yes"/>
      <point x="284" y="578"/>
      <point x="304" y="589"/>
      <point x="307" y="610" type="curve" smooth="yes"/>
      <point x="314" y="670" type="line"/>
      <point x="314" y="691"/>
      <point x="300" y="702"/>
      <point x="257" y="702" type="curve" smooth="yes"/>
      <point x="215" y="702"/>
      <point x="196" y="691"/>
      <point x="194" y="670" type="curve" smooth="yes"/>
      <point x="187" y="610" type="line"/>
      <point x="187" y="589"/>
      <point x="201" y="578"/>
    </contour>
    <contour>
      <point x="64" y="578" type="curve" smooth="yes"/>
      <point x="104" y="578"/>
      <point x="124" y="589"/>
      <point x="127" y="610" type="curve" smooth="yes"/>
      <point x="134" y="670" type="line"/>
      <point x="134" y="691"/>
      <point x="120" y="702"/>
      <point x="77" y="702" type="curve" smooth="yes"/>
      <point x="35" y="702"/>
      <point x="16" y="691"/>
      <point x="14" y="670" type="curve" smooth="yes"/>
      <point x="7" y="610" type="line"/>
      <point x="7" y="589"/>
      <point x="21" y="578"/>
    </contour>
  </outline>
</glyph>
<glyph name="ordfeminine" format="2">
  <advance width="313"/>
  <unicode hex="00AA"/>
  <outline>
    <contour>
      <point x="133" y="437" type="curve" smooth="yes"/>
      <point x="172" y="437"/>
      <point x="194" y="456"/>
      <point x="209" y="474" type="curve"/>
      <point x="215" y="450"/>
      <point x="231" y="438"/>
      <point x="257" y="438" type="curve" smooth="yes"/>
      <point x="293" y="438"/>
      <point x="312" y="461"/>
      <point x="312" y="489" type="curve" smooth="yes"/>
      <point x="312" y="496"/>
      <point x="310" y="505"/>
      <point x="304" y="505" type="curve" smooth="yes"/>
      <point x="302" y="505"/>
      <point x="299" y="505"/>
      <point x="297" y="505" type="curve" smooth="yes"/>
      <point x="292" y="505"/>
      <point x="290" y="507"/>
      <point x="290" y="511" type="curve" smooth="yes"/>
      <point x="290" y="513"/>
      <point x="297" y="578"/>
      <point x="303" y="634" type="curve" smooth="yes"/>
      <point x="305" y="653"/>
      <point x="309" y="683"/>
      <point x="309" y="691" type="curve" smooth="yes"/>
      <point x="309" y="700"/>
      <point x="298" y="705"/>
      <point x="275" y="705" type="curve"/>
      <point x="268" y="705" type="line"/>
      <point x="241" y="705"/>
      <point x="238" y="700"/>
      <point x="232" y="682" type="curve"/>
      <point x="219" y="692"/>
      <point x="201" y="708"/>
      <point x="163" y="708" type="curve" smooth="yes"/>
      <point x="105" y="708"/>
      <point x="60" y="668"/>
      <point x="48" y="578" type="curve" smooth="yes"/>
      <point x="39" y="513"/>
      <point x="54" y="437"/>
    </contour>
    <contour>
      <point x="167" y="505" type="curve" smooth="yes"/>
      <point x="128" y="505"/>
      <point x="127" y="535"/>
      <point x="132" y="576" type="curve" smooth="yes"/>
      <point x="139" y="631"/>
      <point x="157" y="642"/>
      <point x="185" y="642" type="curve" smooth="yes"/>
      <point x="202" y="642"/>
      <point x="212" y="640"/>
      <point x="221" y="635" type="curve"/>
      <point x="220" y="629"/>
      <point x="218" y="615"/>
      <point x="216" y="598" type="curve" smooth="yes"/>
      <point x="208" y="520" type="line"/>
      <point x="202" y="516"/>
      <point x="188" y="505"/>
    </contour>
  </outline>
</glyph>
<glyph name="logicalnot" format="2">
  <advance width="560"/>
  <unicode hex="00AC"/>
  <outline>
    <contour>
      <point x="455" y="72" type="curve" smooth="yes"/>
      <point x="475" y="72" type="line" smooth="yes"/>
      <point x="503" y="72"/>
      <point x="516" y="83"/>
      <point x="518" y="104" type="curve" smooth="yes"/>
      <point x="540" y="309" type="line"/>
      <point x="540" y="336"/>
      <point x="533" y="349"/>
      <point x="504" y="349" type="curve" smooth="yes"/>
      <point x="74" y="349" type="line" smooth="yes"/>
      <point x="43" y="349"/>
      <point x="38" y="306"/>
      <point x="37" y="281" type="curve"/>
      <point x="37" y="276" type="line"/>
      <point x="37" y="253"/>
      <point x="46" y="242"/>
      <point x="63" y="242" type="curve" smooth="yes"/>
      <point x="433" y="242" type="line"/>
      <point x="418" y="104" type="line"/>
      <point x="418" y="83"/>
      <point x="425" y="72"/>
    </contour>
  </outline>
</glyph>
<glyph name="macron" format="2">
  <advance width="255"/>
  <unicode hex="00AF"/>
  <anchor x="141" y="523" name="_top"/>
  <outline>
    <contour>
      <point x="44" y="597" type="curve" smooth="yes"/>
      <point x="260" y="597" type="line" smooth="yes"/>
      <point x="289" y="597"/>
      <point x="296" y="632"/>
      <point x="297" y="654" type="curve" smooth="yes"/>
      <point x="297" y="662" type="line" smooth="yes"/>
      <point x="297" y="682"/>
      <point x="288" y="692"/>
      <point x="271" y="692" type="curve" smooth="yes"/>
      <point x="55" y="692" type="line" smooth="yes"/>
      <point x="25" y="692"/>
      <point x="19" y="659"/>
      <point x="18" y="636" type="curve" smooth="yes"/>
      <point x="18" y="627" type="line" smooth="yes"/>
      <point x="18" y="606"/>
      <point x="26" y="597"/>
    </contour>
  </outline>
</glyph>
<glyph name="acute" format="2">
  <advance width="256"/>
  <unicode hex="00B4"/>
  <anchor x="104" y="523" name="_top"/>
  <outline>
    <contour>
      <point x="76" y="575" type="curve" smooth="yes"/>
      <point x="123" y="575"/>
      <point x="142" y="588"/>
      <point x="154" y="600" type="curve" smooth="yes"/>
      <point x="266" y="710"/>
      <point x="270" y="708"/>
      <point x="270" y="721" type="curve" smooth="yes"/>
      <point x="270" y="731"/>
      <point x="250" y="734"/>
      <point x="212" y="734" type="curve" smooth="yes"/>
      <point x="172" y="734"/>
      <point x="138" y="728"/>
      <point x="124" y="707" type="curve" smooth="yes"/>
      <point x="66" y="619"/>
      <point x="47" y="599"/>
      <point x="47" y="588" type="curve" smooth="yes"/>
      <point x="47" y="578"/>
      <point x="54" y="575"/>
    </contour>
  </outline>
</glyph>
<glyph name="periodcentered" format="2">
  <advance width="267"/>
  <unicode hex="00B7"/>
  <anchor x="72" y="700" name="_caron"/>
  <outline>
    <contour>
      <point x="133" y="289" type="curve" smooth="yes"/>
      <point x="179" y="289"/>
      <point x="211" y="324"/>
      <point x="211" y="366" type="curve" smooth="yes"/>
      <point x="211" y="402"/>
      <point x="184" y="429"/>
      <point x="148" y="429" type="curve" smooth="yes"/>
      <point x="97" y="429"/>
      <point x="70" y="388"/>
      <point x="70" y="350" type="curve" smooth="yes"/>
      <point x="70" y="315"/>
      <point x="97" y="289"/>
    </contour>
  </outline>
</glyph>
<glyph name="cedilla" format="2">
  <advance width="256"/>
  <unicode hex="00B8"/>
  <anchor x="187" y="0" name="_bottom"/>
  <outline>
    <contour>
      <point x="148" y="-212" type="curve" smooth="yes"/>
      <point x="228" y="-212"/>
      <point x="277" y="-177"/>
      <point x="277" y="-110" type="curve" smooth="yes"/>
      <point x="277" y="-53"/>
      <point x="221" y="-33"/>
      <point x="189" y="-33" type="curve"/>
      <point x="172" y="-33" type="line"/>
      <point x="195" y="-66" type="line"/>
      <point x="225" y="10" type="line"/>
      <point x="159" y="10" type="line"/>
      <point x="126" y="-64"/>
      <point x="125" y="-70"/>
      <point x="125" y="-74" type="curve" smooth="yes"/>
      <point x="125" y="-98"/>
      <point x="172" y="-98"/>
      <point x="173" y="-122" type="curve"/>
      <point x="172" y="-133"/>
      <point x="166" y="-139"/>
      <point x="148" y="-139" type="curve" smooth="yes"/>
      <point x="102" y="-139"/>
      <point x="71" y="-112"/>
      <point x="59" y="-112" type="curve" smooth="yes"/>
      <point x="53" y="-112"/>
      <point x="45" y="-120"/>
      <point x="45" y="-160" type="curve" smooth="yes"/>
      <point x="45" y="-207"/>
      <point x="119" y="-212"/>
    </contour>
  </outline>
</glyph>
<glyph name="onesuperior" format="2">
  <advance width="300"/>
  <unicode hex="00B9"/>
  <outline>
    <contour>
      <point x="173" y="293" type="curve" smooth="yes"/>
      <point x="189" y="293" type="line" smooth="yes"/>
      <point x="213" y="293"/>
      <point x="225" y="300"/>
      <point x="226" y="312" type="curve" smooth="yes"/>
      <point x="266" y="690" type="line"/>
      <point x="266" y="697"/>
      <point x="253" y="704"/>
      <point x="244" y="704" type="curve"/>
      <point x="96" y="678" type="line" smooth="yes"/>
      <point x="80" y="675"/>
      <point x="78" y="664"/>
      <point x="78" y="647" type="curve" smooth="yes"/>
      <point x="78" y="631"/>
      <point x="81" y="611"/>
      <point x="93" y="611" type="curve"/>
      <point x="173" y="624" type="line"/>
      <point x="140" y="312" type="line"/>
      <point x="140" y="300"/>
      <point x="148" y="293"/>
    </contour>
  </outline>
</glyph>
<glyph name="ordmasculine" format="2">
  <advance width="337"/>
  <unicode hex="00BA"/>
  <outline>
    <contour>
      <point x="153" y="441" type="curve" smooth="yes"/>
      <point x="237" y="441"/>
      <point x="289" y="497"/>
      <point x="289" y="600" type="curve" smooth="yes"/>
      <point x="289" y="670"/>
      <point x="253" y="708"/>
      <point x="182" y="708" type="curve" smooth="yes"/>
      <point x="82" y="708"/>
      <point x="45" y="628"/>
      <point x="45" y="548" type="curve" smooth="yes"/>
      <point x="45" y="478"/>
      <point x="82" y="441"/>
    </contour>
    <contour>
      <point x="160" y="499" type="curve" smooth="yes"/>
      <point x="133" y="499"/>
      <point x="120" y="517"/>
      <point x="120" y="552" type="curve" smooth="yes"/>
      <point x="120" y="616"/>
      <point x="140" y="650"/>
      <point x="175" y="650" type="curve" smooth="yes"/>
      <point x="202" y="650"/>
      <point x="214" y="631"/>
      <point x="214" y="596" type="curve" smooth="yes"/>
      <point x="214" y="532"/>
      <point x="193" y="499"/>
    </contour>
  </outline>
</glyph>
<glyph name="onehalf" format="2">
  <advance width="728"/>
  <unicode hex="00BD"/>
  <outline>
    <contour>
      <point x="98" y="0" type="curve" smooth="yes"/>
      <point x="115" y="0" type="line" smooth="yes"/>
      <point x="135" y="0"/>
      <point x="149" y="7"/>
      <point x="162" y="26" type="curve" smooth="yes"/>
      <point x="589" y="674" type="line"/>
      <point x="594" y="680"/>
      <point x="597" y="686"/>
      <point x="597" y="690" type="curve" smooth="yes"/>
      <point x="597" y="696"/>
      <point x="590" y="700"/>
      <point x="577" y="700" type="curve" smooth="yes"/>
      <point x="560" y="700" type="line" smooth="yes"/>
      <point x="540" y="700"/>
      <point x="524" y="692"/>
      <point x="512" y="674" type="curve" smooth="yes"/>
      <point x="85" y="26" type="line" smooth="yes"/>
      <point x="80" y="19"/>
      <point x="78" y="14"/>
      <point x="78" y="9" type="curve" smooth="yes"/>
      <point x="78" y="2"/>
      <point x="85" y="0"/>
    </contour>
    <component base="onesuperior"/>
    <component base="two" xScale="0.584" yScale="0.584" xOffset="371"/>
  </outline>
</glyph>
<glyph name="threequarters" format="2">
  <advance width="738"/>
  <unicode hex="00BE"/>
  <outline>
    <contour>
      <point x="136" y="0" type="curve" smooth="yes"/>
      <point x="153" y="0" type="line" smooth="yes"/>
      <point x="173" y="0"/>
      <point x="187" y="7"/>
      <point x="200" y="26" type="curve" smooth="yes"/>
      <point x="627" y="674" type="line"/>
      <point x="632" y="680"/>
      <point x="635" y="686"/>
      <point x="635" y="690" type="curve" smooth="yes"/>
      <point x="635" y="696"/>
      <point x="628" y="700"/>
      <point x="615" y="700" type="curve" smooth="yes"/>
      <point x="598" y="700" type="line" smooth="yes"/>
      <point x="578" y="700"/>
      <point x="562" y="692"/>
      <point x="550" y="674" type="curve" smooth="yes"/>
      <point x="123" y="26" type="line" smooth="yes"/>
      <point x="118" y="19"/>
      <point x="116" y="14"/>
      <point x="116" y="9" type="curve" smooth="yes"/>
      <point x="116" y="2"/>
      <point x="123" y="0"/>
    </contour>
    <component base="three" xScale="0.587" yScale="0.587" xOffset="21" yOffset="293"/>
    <component base="four" xScale="0.585" yScale="0.585" xOffset="366" yOffset="-1"/>
  </outline>
</glyph>
<glyph name="AE" format="2">
  <advance width="915"/>
  <unicode hex="00C6"/>
  <anchor x="458" y="700" name="top"/>
  <outline>
    <contour>
      <point x="25" y="-2" type="curve" smooth="yes"/>
      <point x="62" y="-2" type="line" smooth="yes"/>
      <point x="86" y="-2"/>
      <point x="101" y="5"/>
      <point x="110" y="19" type="curve" smooth="yes"/>
      <point x="183" y="141" type="line"/>
      <point x="426" y="141" type="line"/>
      <point x="435" y="30" type="line" smooth="yes"/>
      <point x="437" y="9"/>
      <point x="445" y="0"/>
      <point x="467" y="0" type="curve" smooth="yes"/>
      <point x="801" y="0" type="line" smooth="yes"/>
      <point x="829" y="0"/>
      <point x="838" y="35"/>
      <point x="839" y="84" type="curve" smooth="yes"/>
      <point x="839" y="91" type="line" smooth="yes"/>
      <point x="839" y="119"/>
      <point x="831" y="131"/>
      <point x="813" y="131" type="curve" smooth="yes"/>
      <point x="579" y="131" type="line"/>
      <point x="565" y="293" type="line"/>
      <point x="804" y="293" type="line" smooth="yes"/>
      <point x="832" y="293"/>
      <point x="841" y="329"/>
      <point x="842" y="377" type="curve" smooth="yes"/>
      <point x="842" y="384" type="line" smooth="yes"/>
      <point x="842" y="412"/>
      <point x="834" y="424"/>
      <point x="816" y="424" type="curve" smooth="yes"/>
      <point x="552" y="424" type="line"/>
      <point x="540" y="569" type="line"/>
      <point x="860" y="569" type="line" smooth="yes"/>
      <point x="888" y="569"/>
      <point x="897" y="605"/>
      <point x="898" y="655" type="curve" smooth="yes"/>
      <point x="898" y="660" type="line" smooth="yes"/>
      <point x="898" y="688"/>
      <point x="890" y="700"/>
      <point x="872" y="700" type="curve" smooth="yes"/>
      <point x="406" y="700" type="line" smooth="yes"/>
      <point x="385" y="700"/>
      <point x="372" y="692"/>
      <point x="360" y="673" type="curve" smooth="yes"/>
      <point x="-27" y="38" type="line" smooth="yes"/>
      <point x="-32" y="31"/>
      <point x="-35" y="25"/>
      <point x="-35" y="20" type="curve" smooth="yes"/>
      <point x="-35" y="0"/>
      <point x="1" y="-2"/>
    </contour>
    <contour>
      <point x="262" y="273" type="line"/>
      <point x="370" y="455" type="line"/>
      <point x="406" y="537" type="line"/>
      <point x="410" y="537" type="line"/>
      <point x="402" y="454" type="line"/>
      <point x="416" y="273" type="line"/>
    </contour>
  </outline>
</glyph>
<glyph name="Eth" format="2">
  <advance width="695"/>
  <unicode hex="00D0"/>
  <anchor x="348" y="700" name="top"/>
  <anchor x="348" y="350" name="center"/>
  <anchor x="291" y="0" name="bottom"/>
  <outline>
    <contour>
      <point x="35" y="290" type="curve"/>
      <point x="280" y="290" type="line"/>
      <point x="309" y="290"/>
      <point x="318" y="329"/>
      <point x="318" y="381" type="curve" smooth="yes"/>
      <point x="318" y="409"/>
      <point x="310" y="421"/>
      <point x="292" y="421" type="curve"/>
      <point x="47" y="421" type="line"/>
      <point x="18" y="421"/>
      <point x="9" y="382"/>
      <point x="9" y="330" type="curve" smooth="yes"/>
      <point x="9" y="302"/>
      <point x="17" y="290"/>
    </contour>
    <component base="D"/>
  </outline>
</glyph>
<glyph name="Oslash" format="2">
  <advance width="731"/>
  <unicode hex="00D8"/>
  <anchor x="396" y="700" name="top"/>
  <anchor x="423" y="0" name="ogonek"/>
  <anchor x="517" y="682" name="horn"/>
  <anchor x="327" y="0" name="bottom"/>
  <outline>
    <contour>
      <point x="89" y="0" type="curve"/>
      <point x="672" y="658" type="line"/>
      <point x="679" y="665"/>
      <point x="682" y="672"/>
      <point x="682" y="678" type="curve" smooth="yes"/>
      <point x="682" y="695"/>
      <point x="647" y="724"/>
      <point x="634" y="724" type="curve" smooth="yes"/>
      <point x="626" y="724"/>
      <point x="619" y="720"/>
      <point x="612" y="712" type="curve"/>
      <point x="29" y="54" type="line"/>
      <point x="22" y="47"/>
      <point x="19" y="40"/>
      <point x="19" y="34" type="curve" smooth="yes"/>
      <point x="19" y="17"/>
      <point x="54" y="-12"/>
      <point x="67" y="-12" type="curve" smooth="yes"/>
      <point x="74" y="-12"/>
      <point x="82" y="-8"/>
    </contour>
    <component base="O"/>
  </outline>
</glyph>
<glyph name="eth" format="2">
  <advance width="569"/>
  <unicode hex="00F0"/>
  <outline>
    <contour>
      <point x="258" y="-8" type="curve" smooth="yes"/>
      <point x="433" y="-8"/>
      <point x="531" y="110"/>
      <point x="531" y="322" type="curve" smooth="yes"/>
      <point x="531" y="435"/>
      <point x="500" y="540"/>
      <point x="464" y="606" type="curve"/>
      <point x="511" y="612" type="line" smooth="yes"/>
      <point x="527" y="614"/>
      <point x="533" y="620"/>
      <point x="533" y="631" type="curve" smooth="yes"/>
      <point x="533" y="650"/>
      <point x="517" y="670"/>
      <point x="501" y="670" type="curve" smooth="yes"/>
      <point x="500" y="670"/>
      <point x="499" y="670"/>
      <point x="432" y="661" type="curve"/>
      <point x="431" y="663"/>
      <point x="430" y="664"/>
      <point x="429" y="666" type="curve" smooth="yes"/>
      <point x="412" y="692"/>
      <point x="395" y="715"/>
      <point x="359" y="715" type="curve"/>
      <point x="338" y="713"/>
      <point x="318" y="711"/>
      <point x="297" y="708" type="curve" smooth="yes"/>
      <point x="286" y="706"/>
      <point x="282" y="702"/>
      <point x="282" y="695" type="curve" smooth="yes"/>
      <point x="282" y="689"/>
      <point x="285" y="682"/>
      <point x="289" y="675" type="curve" smooth="yes"/>
      <point x="296" y="664"/>
      <point x="305" y="652"/>
      <point x="309" y="645" type="curve"/>
      <point x="266" y="639" type="line" smooth="yes"/>
      <point x="248" y="636"/>
      <point x="243" y="629"/>
      <point x="243" y="619" type="curve" smooth="yes"/>
      <point x="243" y="600"/>
      <point x="258" y="581"/>
      <point x="277" y="581" type="curve" smooth="yes"/>
      <point x="280" y="581"/>
      <point x="283" y="581"/>
      <point x="339" y="589" type="curve"/>
      <point x="354" y="557"/>
      <point x="369" y="523"/>
      <point x="379" y="476" type="curve"/>
      <point x="405" y="523" type="line"/>
      <point x="378" y="524"/>
      <point x="348" y="531"/>
      <point x="314" y="531" type="curve" smooth="yes"/>
      <point x="144" y="531"/>
      <point x="40" y="418"/>
      <point x="40" y="213" type="curve" smooth="yes"/>
      <point x="40" y="70"/>
      <point x="114" y="-8"/>
    </contour>
    <contour>
      <point x="270" y="109" type="curve" smooth="yes"/>
      <point x="216" y="109"/>
      <point x="190" y="147"/>
      <point x="190" y="219" type="curve" smooth="yes"/>
      <point x="190" y="347"/>
      <point x="232" y="414"/>
      <point x="302" y="414" type="curve" smooth="yes"/>
      <point x="356" y="414"/>
      <point x="380" y="377"/>
      <point x="380" y="304" type="curve" smooth="yes"/>
      <point x="380" y="177"/>
      <point x="339" y="109"/>
    </contour>
  </outline>
</glyph>
<glyph name="oslash" format="2">
  <advance width="569"/>
  <unicode hex="00F8"/>
  <anchor x="285" y="523" name="top"/>
  <anchor x="319" y="0" name="ogonek"/>
  <anchor x="408" y="505" name="horn"/>
  <anchor x="257" y="0" name="bottom"/>
  <outline>
    <contour>
      <point x="86" y="-11" type="curve" smooth="yes"/>
      <point x="93" y="-11"/>
      <point x="100" y="-7"/>
      <point x="108" y="2" type="curve" smooth="yes"/>
      <point x="519" y="480" type="line" smooth="yes"/>
      <point x="525" y="487"/>
      <point x="529" y="494"/>
      <point x="529" y="501" type="curve" smooth="yes"/>
      <point x="529" y="508"/>
      <point x="524" y="515"/>
      <point x="516" y="523" type="curve" smooth="yes"/>
      <point x="511" y="527"/>
      <point x="507" y="531"/>
      <point x="502" y="535" type="curve" smooth="yes"/>
      <point x="494" y="541"/>
      <point x="488" y="545"/>
      <point x="481" y="545" type="curve" smooth="yes"/>
      <point x="474" y="545"/>
      <point x="466" y="540"/>
      <point x="459" y="532" type="curve"/>
      <point x="48" y="54" type="line"/>
      <point x="41" y="46"/>
      <point x="38" y="40"/>
      <point x="38" y="33" type="curve" smooth="yes"/>
      <point x="38" y="26"/>
      <point x="42" y="18"/>
      <point x="51" y="11" type="curve" smooth="yes"/>
      <point x="56" y="7"/>
      <point x="60" y="3"/>
      <point x="65" y="-1" type="curve" smooth="yes"/>
      <point x="72" y="-8"/>
      <point x="79" y="-11"/>
    </contour>
    <component base="o" xOffset="6"/>
  </outline>
</glyph>
<glyph name="thorn" format="2">
  <advance width="571"/>
  <unicode hex="00FE"/>
  <outline>
    <contour>
      <point x="80" y="-206" type="curve" smooth="yes"/>
      <point x="108" y="-206" type="line" smooth="yes"/>
      <point x="147" y="-206"/>
      <point x="169" y="-195"/>
      <point x="171" y="-174" type="curve" smooth="yes"/>
      <point x="193" y="32" type="line"/>
      <point x="216" y="13"/>
      <point x="253" y="-8"/>
      <point x="300" y="-8" type="curve" smooth="yes"/>
      <point x="431" y="-8"/>
      <point x="522" y="122"/>
      <point x="522" y="314" type="curve" smooth="yes"/>
      <point x="522" y="455"/>
      <point x="457" y="531"/>
      <point x="360" y="531" type="curve" smooth="yes"/>
      <point x="311" y="531"/>
      <point x="269" y="508"/>
      <point x="240" y="475" type="curve"/>
      <point x="266" y="723" type="line"/>
      <point x="266" y="739"/>
      <point x="249" y="754"/>
      <point x="209" y="754" type="curve" smooth="yes"/>
      <point x="181" y="754" type="line" smooth="yes"/>
      <point x="142" y="754"/>
      <point x="120" y="743"/>
      <point x="118" y="722" type="curve" smooth="yes"/>
      <point x="23" y="-175" type="line"/>
      <point x="23" y="-191"/>
      <point x="40" y="-206"/>
    </contour>
    <contour>
      <point x="266" y="109" type="curve" smooth="yes"/>
      <point x="240" y="109"/>
      <point x="219" y="119"/>
      <point x="203" y="132" type="curve"/>
      <point x="227" y="354" type="line"/>
      <point x="247" y="385"/>
      <point x="272" y="410"/>
      <point x="304" y="410" type="curve" smooth="yes"/>
      <point x="350" y="410"/>
      <point x="372" y="374"/>
      <point x="372" y="305" type="curve" smooth="yes"/>
      <point x="372" y="177"/>
      <point x="333" y="109"/>
    </contour>
  </outline>
</glyph>
<glyph name="idotless" format="2">
  <advance width="265"/>
  <unicode hex="0131"/>
  <anchor x="110" y="0" name="bottom"/>
  <anchor x="193" y="0" name="ogonek"/>
  <anchor x="144" y="523" name="top"/>
  <outline>
    <contour>
      <point x="150" y="-8" type="curve" smooth="yes"/>
      <point x="185" y="-8"/>
      <point x="232" y="7"/>
      <point x="238" y="44" type="curve" smooth="yes"/>
      <point x="244" y="79"/>
      <point x="245" y="102"/>
      <point x="245" y="104" type="curve" smooth="yes"/>
      <point x="245" y="113"/>
      <point x="243" y="115"/>
      <point x="237" y="115" type="curve" smooth="yes"/>
      <point x="233" y="115"/>
      <point x="222" y="109"/>
      <point x="208" y="109" type="curve" smooth="yes"/>
      <point x="187" y="109"/>
      <point x="178" y="119"/>
      <point x="178" y="142" type="curve" smooth="yes"/>
      <point x="178" y="152"/>
      <point x="215" y="494"/>
      <point x="215" y="494" type="curve"/>
      <point x="215" y="510"/>
      <point x="198" y="525"/>
      <point x="158" y="525" type="curve" smooth="yes"/>
      <point x="130" y="525" type="line" smooth="yes"/>
      <point x="91" y="525"/>
      <point x="69" y="514"/>
      <point x="67" y="493" type="curve"/>
      <point x="59" y="421"/>
      <point x="46" y="296"/>
      <point x="37" y="214" type="curve" smooth="yes"/>
      <point x="33" y="166"/>
      <point x="29" y="128"/>
      <point x="29" y="119" type="curve" smooth="yes"/>
      <point x="29" y="29"/>
      <point x="72" y="-8"/>
    </contour>
  </outline>
</glyph>
<glyph name="Lslash" format="2">
  <advance width="486"/>
  <unicode hex="0141"/>
  <anchor x="281" y="700" name="caron"/>
  <anchor x="184" y="700" name="top"/>
  <anchor x="218" y="0" name="bottom"/>
  <outline>
    <contour>
      <point x="29" y="283" type="curve" smooth="yes"/>
      <point x="33" y="283"/>
      <point x="38" y="285"/>
      <point x="45" y="289" type="curve" smooth="yes"/>
      <point x="322" y="448" type="line" smooth="yes"/>
      <point x="340" y="458"/>
      <point x="355" y="472"/>
      <point x="355" y="512" type="curve" smooth="yes"/>
      <point x="355" y="514" type="line" smooth="yes"/>
      <point x="355" y="526"/>
      <point x="353" y="534"/>
      <point x="346" y="534" type="curve" smooth="yes"/>
      <point x="342" y="534"/>
      <point x="337" y="532"/>
      <point x="330" y="528" type="curve" smooth="yes"/>
      <point x="53" y="369" type="line" smooth="yes"/>
      <point x="35" y="358"/>
      <point x="20" y="344"/>
      <point x="20" y="305" type="curve" smooth="yes"/>
      <point x="20" y="303" type="line" smooth="yes"/>
      <point x="20" y="291"/>
      <point x="22" y="283"/>
    </contour>
    <component base="L"/>
  </outline>
</glyph>
<glyph name="lslash" format="2">
  <advance width="293"/>
  <unicode hex="0142"/>
  <anchor x="232" y="752" name="caron"/>
  <anchor x="185" y="720" name="top"/>
  <anchor x="314" y="335" name="center"/>
  <anchor x="158" y="0" name="bottom"/>
  <outline>
    <contour>
      <point x="44" y="317" type="curve"/>
      <point x="247" y="432" type="line"/>
      <point x="264" y="442"/>
      <point x="279" y="455"/>
      <point x="280" y="492" type="curve"/>
      <point x="280" y="498" type="line"/>
      <point x="280" y="510"/>
      <point x="278" y="518"/>
      <point x="271" y="518" type="curve" smooth="yes"/>
      <point x="267" y="518"/>
      <point x="262" y="516"/>
      <point x="255" y="512" type="curve"/>
      <point x="52" y="397" type="line"/>
      <point x="35" y="387"/>
      <point x="21" y="374"/>
      <point x="19" y="338" type="curve"/>
      <point x="19" y="331" type="line"/>
      <point x="19" y="319"/>
      <point x="21" y="311"/>
      <point x="28" y="311" type="curve" smooth="yes"/>
      <point x="32" y="311"/>
      <point x="37" y="313"/>
    </contour>
    <component base="l" xOffset="9"/>
  </outline>
</glyph>
<glyph name="Eng" format="2">
  <advance width="719"/>
  <unicode hex="014A"/>
  <outline>
    <contour>
      <point x="444" y="-212" type="curve" smooth="yes"/>
      <point x="540" y="-212"/>
      <point x="596" y="-152"/>
      <point x="607" y="-50" type="curve"/>
      <point x="683" y="670" type="line"/>
      <point x="683" y="691"/>
      <point x="669" y="702"/>
      <point x="626" y="702" type="curve" smooth="yes"/>
      <point x="597" y="702" type="line" smooth="yes"/>
      <point x="555" y="702"/>
      <point x="536" y="691"/>
      <point x="534" y="670" type="curve" smooth="yes"/>
      <point x="499" y="338" type="line" smooth="yes"/>
      <point x="496" y="313"/>
      <point x="494" y="293"/>
      <point x="494" y="270" type="curve"/>
      <point x="488" y="269" type="line"/>
      <point x="481" y="289"/>
      <point x="471" y="309"/>
      <point x="460" y="329" type="curve" smooth="yes"/>
      <point x="272" y="675" type="line" smooth="yes"/>
      <point x="259" y="698"/>
      <point x="237" y="702"/>
      <point x="208" y="702" type="curve" smooth="yes"/>
      <point x="165" y="702" type="line" smooth="yes"/>
      <point x="123" y="702"/>
      <point x="104" y="691"/>
      <point x="102" y="670" type="curve" smooth="yes"/>
      <point x="35" y="30" type="line"/>
      <point x="35" y="9"/>
      <point x="49" y="-2"/>
      <point x="92" y="-2" type="curve" smooth="yes"/>
      <point x="121" y="-2" type="line" smooth="yes"/>
      <point x="163" y="-2"/>
      <point x="182" y="9"/>
      <point x="184" y="30" type="curve" smooth="yes"/>
      <point x="219" y="366" type="line" smooth="yes"/>
      <point x="222" y="391"/>
      <point x="224" y="411"/>
      <point x="224" y="434" type="curve"/>
      <point x="230" y="435" type="line"/>
      <point x="237" y="415"/>
      <point x="248" y="395"/>
      <point x="259" y="376" type="curve" smooth="yes"/>
      <point x="465" y="-1" type="line"/>
      <point x="459" y="-52" type="line" smooth="yes"/>
      <point x="456" y="-82"/>
      <point x="444" y="-95"/>
      <point x="419" y="-95" type="curve" smooth="yes"/>
      <point x="399" y="-95"/>
      <point x="389" y="-90"/>
      <point x="384" y="-90" type="curve" smooth="yes"/>
      <point x="375" y="-90"/>
      <point x="366" y="-110"/>
      <point x="366" y="-173" type="curve" smooth="yes"/>
      <point x="366" y="-211"/>
      <point x="414" y="-212"/>
    </contour>
  </outline>
</glyph>
<glyph name="eng" format="2">
  <advance width="557"/>
  <unicode hex="014B"/>
  <anchor x="294" y="523" name="top"/>
  <outline>
    <contour>
      <point x="285" y="-212" type="curve" smooth="yes"/>
      <point x="381" y="-212"/>
      <point x="437" y="-152"/>
      <point x="448" y="-50" type="curve" smooth="yes"/>
      <point x="495" y="404" type="line"/>
      <point x="495" y="491"/>
      <point x="452" y="531"/>
      <point x="363" y="531" type="curve" smooth="yes"/>
      <point x="302" y="531"/>
      <point x="239" y="493"/>
      <point x="207" y="453" type="curve"/>
      <point x="206" y="487"/>
      <point x="199" y="520"/>
      <point x="174" y="520" type="curve" smooth="yes"/>
      <point x="109" y="520"/>
      <point x="58" y="506"/>
      <point x="58" y="484" type="curve" smooth="yes"/>
      <point x="58" y="469"/>
      <point x="60" y="452"/>
      <point x="60" y="428" type="curve" smooth="yes"/>
      <point x="60" y="410"/>
      <point x="60" y="403"/>
      <point x="56" y="357" type="curve"/>
      <point x="22" y="29" type="line"/>
      <point x="22" y="13"/>
      <point x="39" y="-2"/>
      <point x="79" y="-2" type="curve" smooth="yes"/>
      <point x="107" y="-2" type="line" smooth="yes"/>
      <point x="146" y="-2"/>
      <point x="168" y="9"/>
      <point x="170" y="30" type="curve"/>
      <point x="202" y="348" type="line"/>
      <point x="220" y="376"/>
      <point x="251" y="409"/>
      <point x="290" y="409" type="curve" smooth="yes"/>
      <point x="325" y="409"/>
      <point x="341" y="395"/>
      <point x="343" y="369" type="curve"/>
      <point x="300" y="-52" type="line" smooth="yes"/>
      <point x="297" y="-82"/>
      <point x="285" y="-95"/>
      <point x="260" y="-95" type="curve" smooth="yes"/>
      <point x="240" y="-95"/>
      <point x="230" y="-90"/>
      <point x="225" y="-90" type="curve" smooth="yes"/>
      <point x="216" y="-90"/>
      <point x="207" y="-110"/>
      <point x="207" y="-173" type="curve" smooth="yes"/>
      <point x="207" y="-211"/>
      <point x="255" y="-212"/>
    </contour>
  </outline>
</glyph>
<glyph name="OE" format="2">
  <advance width="1021"/>
  <unicode hex="0152"/>
  <anchor x="490" y="0" name="bottom"/>
  <anchor x="914" y="10" name="ogonek"/>
  <anchor x="571" y="700" name="top"/>
  <outline>
    <contour>
      <point x="318" y="-8" type="curve" smooth="yes"/>
      <point x="401" y="-8"/>
      <point x="471" y="14"/>
      <point x="534" y="61" type="curve"/>
      <point x="496" y="103" type="line"/>
      <point x="496" y="32" type="line"/>
      <point x="496" y="8"/>
      <point x="505" y="0"/>
      <point x="532" y="0" type="curve" smooth="yes"/>
      <point x="900" y="0" type="line" smooth="yes"/>
      <point x="927" y="0"/>
      <point x="937" y="34"/>
      <point x="938" y="80" type="curve" smooth="yes"/>
      <point x="938" y="91" type="line" smooth="yes"/>
      <point x="938" y="119"/>
      <point x="930" y="131"/>
      <point x="912" y="131" type="curve" smooth="yes"/>
      <point x="660" y="131" type="line"/>
      <point x="678" y="293" type="line"/>
      <point x="903" y="293" type="line" smooth="yes"/>
      <point x="930" y="293"/>
      <point x="939" y="326"/>
      <point x="941" y="372" type="curve" smooth="yes"/>
      <point x="941" y="384" type="line" smooth="yes"/>
      <point x="941" y="412"/>
      <point x="933" y="424"/>
      <point x="915" y="424" type="curve" smooth="yes"/>
      <point x="691" y="424" type="line"/>
      <point x="707" y="569" type="line"/>
      <point x="959" y="569" type="line" smooth="yes"/>
      <point x="986" y="569"/>
      <point x="995" y="602"/>
      <point x="997" y="647" type="curve" smooth="yes"/>
      <point x="997" y="660" type="line" smooth="yes"/>
      <point x="997" y="688"/>
      <point x="989" y="700"/>
      <point x="971" y="700" type="curve" smooth="yes"/>
      <point x="605" y="700" type="line" smooth="yes"/>
      <point x="574" y="700"/>
      <point x="563" y="685"/>
      <point x="560" y="651" type="curve" smooth="yes"/>
      <point x="554" y="588" type="line"/>
      <point x="593" y="635" type="line"/>
      <point x="544" y="684"/>
      <point x="477" y="708"/>
      <point x="393" y="708" type="curve" smooth="yes"/>
      <point x="178" y="708"/>
      <point x="41" y="556"/>
      <point x="41" y="282" type="curve" smooth="yes"/>
      <point x="41" y="94"/>
      <point x="138" y="-8"/>
    </contour>
    <contour>
      <point x="342" y="123" type="curve" smooth="yes"/>
      <point x="248" y="123"/>
      <point x="200" y="184"/>
      <point x="200" y="298" type="curve" smooth="yes"/>
      <point x="200" y="478"/>
      <point x="273" y="576"/>
      <point x="389" y="576" type="curve" smooth="yes"/>
      <point x="483" y="576"/>
      <point x="531" y="515"/>
      <point x="531" y="400" type="curve" smooth="yes"/>
      <point x="531" y="221"/>
      <point x="456" y="123"/>
    </contour>
  </outline>
</glyph>
<glyph name="oe" format="2">
  <advance width="871"/>
  <unicode hex="0153"/>
  <anchor x="436" y="523" name="top"/>
  <anchor x="690" y="0" name="ogonek"/>
  <anchor x="611" y="0" name="bottom"/>
  <outline>
    <contour>
      <point x="256" y="-8" type="curve" smooth="yes"/>
      <point x="327" y="-8"/>
      <point x="386" y="15"/>
      <point x="432" y="53" type="curve"/>
      <point x="474" y="472" type="line"/>
      <point x="438" y="509"/>
      <point x="384" y="531"/>
      <point x="313" y="531" type="curve" smooth="yes"/>
      <point x="104" y="531"/>
      <point x="39" y="374"/>
      <point x="39" y="211" type="curve" smooth="yes"/>
      <point x="39" y="69"/>
      <point x="113" y="-8"/>
    </contour>
    <contour>
      <point x="268" y="109" type="curve" smooth="yes"/>
      <point x="214" y="109"/>
      <point x="189" y="146"/>
      <point x="189" y="218" type="curve" smooth="yes"/>
      <point x="189" y="346"/>
      <point x="231" y="414"/>
      <point x="301" y="414" type="curve" smooth="yes"/>
      <point x="355" y="414"/>
      <point x="379" y="377"/>
      <point x="379" y="304" type="curve" smooth="yes"/>
      <point x="379" y="177"/>
      <point x="337" y="109"/>
    </contour>
    <component base="e" xOffset="341"/>
  </outline>
</glyph>
<glyph name="Schwa" format="2">
  <advance width="672"/>
  <unicode hex="018F"/>
  <outline>
    <contour>
      <point x="300" y="-6" type="curve" smooth="yes"/>
      <point x="473" y="-6"/>
      <point x="625" y="118"/>
      <point x="625" y="433" type="curve" smooth="yes"/>
      <point x="625" y="603"/>
      <point x="537" y="708"/>
      <point x="339" y="708" type="curve" smooth="yes"/>
      <point x="269" y="708"/>
      <point x="136" y="689"/>
      <point x="115" y="618" type="curve" smooth="yes"/>
      <point x="110" y="602"/>
      <point x="108" y="545"/>
      <point x="107" y="541" type="curve"/>
      <point x="107" y="527"/>
      <point x="111" y="527"/>
      <point x="115" y="527" type="curve" smooth="yes"/>
      <point x="131" y="527"/>
      <point x="215" y="591"/>
      <point x="320" y="591" type="curve" smooth="yes"/>
      <point x="409" y="591"/>
      <point x="471" y="562"/>
      <point x="475" y="435" type="curve"/>
      <point x="432" y="439"/>
      <point x="385" y="442"/>
      <point x="321" y="442" type="curve" smooth="yes"/>
      <point x="197" y="442"/>
      <point x="56" y="374"/>
      <point x="56" y="199" type="curve" smooth="yes"/>
      <point x="56" y="123"/>
      <point x="97" y="-6"/>
    </contour>
    <contour>
      <point x="310" y="111" type="curve" smooth="yes"/>
      <point x="245" y="111"/>
      <point x="200" y="143"/>
      <point x="200" y="218" type="curve" smooth="yes"/>
      <point x="200" y="271"/>
      <point x="236" y="343"/>
      <point x="370" y="343" type="curve" smooth="yes"/>
      <point x="468" y="343" type="line"/>
      <point x="449" y="209"/>
      <point x="402" y="111"/>
    </contour>
  </outline>
</glyph>
<glyph name="florin" format="2">
  <advance width="332"/>
  <unicode hex="0192"/>
  <outline>
    <contour>
      <point x="262" y="760" type="curve" smooth="yes"/>
      <point x="168" y="760"/>
      <point x="105" y="700"/>
      <point x="93" y="598" type="curve" smooth="yes"/>
      <point x="84" y="523" type="line"/>
      <point x="63" y="523" type="line" smooth="yes"/>
      <point x="32" y="523"/>
      <point x="23" y="484"/>
      <point x="23" y="435" type="curve" smooth="yes"/>
      <point x="23" y="415"/>
      <point x="31" y="406"/>
      <point x="47" y="406" type="curve" smooth="yes"/>
      <point x="67" y="406" type="line"/>
      <point x="-13" y="-175" type="line"/>
      <point x="-13" y="-191"/>
      <point x="4" y="-206"/>
      <point x="44" y="-206" type="curve" smooth="yes"/>
      <point x="72" y="-206" type="line" smooth="yes"/>
      <point x="111" y="-206"/>
      <point x="132" y="-195"/>
      <point x="135" y="-174" type="curve" smooth="yes"/>
      <point x="215" y="406" type="line"/>
      <point x="245" y="406" type="line" smooth="yes"/>
      <point x="282" y="406"/>
      <point x="307" y="466"/>
      <point x="307" y="503" type="curve" smooth="yes"/>
      <point x="307" y="517"/>
      <point x="305" y="523"/>
      <point x="291" y="523" type="curve" smooth="yes"/>
      <point x="231" y="523" type="line"/>
      <point x="242" y="600" type="line" smooth="yes"/>
      <point x="246" y="629"/>
      <point x="259" y="643"/>
      <point x="284" y="643" type="curve" smooth="yes"/>
      <point x="304" y="643"/>
      <point x="309" y="638"/>
      <point x="317" y="638" type="curve" smooth="yes"/>
      <point x="336" y="638"/>
      <point x="356" y="703"/>
      <point x="356" y="716" type="curve" smooth="yes"/>
      <point x="356" y="752"/>
      <point x="309" y="760"/>
    </contour>
  </outline>
</glyph>
<glyph name="Ohorn" format="2">
  <advance width="731"/>
  <unicode hex="01A0"/>
  <anchor x="327" y="0" name="bottom"/>
  <anchor x="423" y="0" name="ogonek"/>
  <anchor x="396" y="700" name="top"/>
  <outline>
    <contour>
      <point x="328" y="-8" type="curve" smooth="yes"/>
      <point x="562" y="-8"/>
      <point x="689" y="143"/>
      <point x="689" y="414" type="curve" smooth="yes"/>
      <point x="689" y="515"/>
      <point x="661" y="591"/>
      <point x="607" y="641" type="curve"/>
      <point x="679" y="649"/>
      <point x="717" y="686"/>
      <point x="717" y="737" type="curve" smooth="yes"/>
      <point x="717" y="763"/>
      <point x="705" y="816"/>
      <point x="679" y="816" type="curve" smooth="yes"/>
      <point x="673" y="816"/>
      <point x="668" y="815"/>
      <point x="662" y="811" type="curve" smooth="yes"/>
      <point x="628" y="789" type="line" smooth="yes"/>
      <point x="620" y="784"/>
      <point x="615" y="777"/>
      <point x="615" y="770" type="curve" smooth="yes"/>
      <point x="615" y="757"/>
      <point x="636" y="740"/>
      <point x="636" y="722" type="curve" smooth="yes"/>
      <point x="636" y="692"/>
      <point x="612" y="681"/>
      <point x="580" y="682" type="curve" smooth="yes"/>
      <point x="560" y="682"/>
      <point x="536" y="688"/>
      <point x="513" y="693" type="curve" smooth="yes"/>
      <point x="475" y="702"/>
      <point x="444" y="708"/>
      <point x="403" y="708" type="curve" smooth="yes"/>
      <point x="140" y="708"/>
      <point x="41" y="496"/>
      <point x="41" y="284" type="curve" smooth="yes"/>
      <point x="41" y="95"/>
      <point x="142" y="-8"/>
    </contour>
    <contour>
      <point x="342" y="123" type="curve" smooth="yes"/>
      <point x="248" y="123"/>
      <point x="200" y="184"/>
      <point x="200" y="298" type="curve" smooth="yes"/>
      <point x="200" y="478"/>
      <point x="273" y="576"/>
      <point x="389" y="576" type="curve" smooth="yes"/>
      <point x="483" y="576"/>
      <point x="531" y="515"/>
      <point x="531" y="400" type="curve" smooth="yes"/>
      <point x="531" y="221"/>
      <point x="456" y="123"/>
    </contour>
  </outline>
</glyph>
<glyph name="ohorn" format="2">
  <advance width="569"/>
  <unicode hex="01A1"/>
  <anchor x="251" y="0" name="bottom"/>
  <anchor x="313" y="0" name="ogonek"/>
  <anchor x="294" y="523" name="top"/>
  <outline>
    <contour>
      <point x="250" y="-8" type="curve" smooth="yes"/>
      <point x="419" y="-8"/>
      <point x="524" y="106"/>
      <point x="524" y="311" type="curve" smooth="yes"/>
      <point x="524" y="376"/>
      <point x="509" y="427"/>
      <point x="479" y="463" type="curve"/>
      <point x="552" y="471"/>
      <point x="592" y="508"/>
      <point x="592" y="560" type="curve" smooth="yes"/>
      <point x="592" y="586"/>
      <point x="580" y="639"/>
      <point x="554" y="639" type="curve" smooth="yes"/>
      <point x="548" y="639"/>
      <point x="543" y="638"/>
      <point x="537" y="634" type="curve" smooth="yes"/>
      <point x="503" y="612" type="line" smooth="yes"/>
      <point x="495" y="607"/>
      <point x="490" y="600"/>
      <point x="490" y="593" type="curve" smooth="yes"/>
      <point x="490" y="580"/>
      <point x="511" y="563"/>
      <point x="511" y="545" type="curve" smooth="yes"/>
      <point x="511" y="518"/>
      <point x="497" y="505"/>
      <point x="468" y="505" type="curve" smooth="yes"/>
      <point x="446" y="505"/>
      <point x="417" y="513"/>
      <point x="402" y="517" type="curve" smooth="yes"/>
      <point x="373" y="525"/>
      <point x="335" y="531"/>
      <point x="307" y="531" type="curve" smooth="yes"/>
      <point x="98" y="531"/>
      <point x="33" y="374"/>
      <point x="33" y="211" type="curve" smooth="yes"/>
      <point x="33" y="69"/>
      <point x="107" y="-8"/>
    </contour>
    <contour>
      <point x="262" y="109" type="curve" smooth="yes"/>
      <point x="208" y="109"/>
      <point x="183" y="146"/>
      <point x="183" y="218" type="curve" smooth="yes"/>
      <point x="183" y="346"/>
      <point x="225" y="414"/>
      <point x="295" y="414" type="curve" smooth="yes"/>
      <point x="349" y="414"/>
      <point x="373" y="377"/>
      <point x="373" y="304" type="curve" smooth="yes"/>
      <point x="373" y="177"/>
      <point x="331" y="109"/>
    </contour>
  </outline>
</glyph>
<glyph name="LJ" format="2">
  <advance width="718"/>
  <unicode hex="01C7"/>
  <outline>
    <contour>
      <point x="201" y="702" type="curve" smooth="yes"/>
      <point x="166" y="702" type="line" smooth="yes"/>
      <point x="127" y="702"/>
      <point x="105" y="691"/>
      <point x="103" y="670" type="curve" smooth="yes"/>
      <point x="36" y="32" type="line"/>
      <point x="36" y="8"/>
      <point x="45" y="0"/>
      <point x="72" y="0" type="curve" smooth="yes"/>
      <point x="342" y="0" type="line" smooth="yes"/>
      <point x="371" y="0"/>
      <point x="380" y="39"/>
      <point x="380" y="91" type="curve" smooth="yes"/>
      <point x="380" y="119"/>
      <point x="372" y="131"/>
      <point x="354" y="131" type="curve" smooth="yes"/>
      <point x="201" y="131" type="line"/>
      <point x="258" y="671" type="line"/>
      <point x="258" y="700"/>
      <point x="218" y="702"/>
    </contour>
    <contour>
      <point x="639" y="702" type="curve" smooth="yes"/>
      <point x="604" y="702" type="line" smooth="yes"/>
      <point x="565" y="702"/>
      <point x="543" y="691"/>
      <point x="541" y="670" type="curve" smooth="yes"/>
      <point x="474" y="53" type="line" smooth="yes"/>
      <point x="466" y="-20"/>
      <point x="439" y="-51"/>
      <point x="379" y="-51" type="curve" smooth="yes"/>
      <point x="335" y="-51"/>
      <point x="324" y="-42"/>
      <point x="316" y="-42" type="curve" smooth="yes"/>
      <point x="309" y="-42"/>
      <point x="296" y="-53"/>
      <point x="296" y="-139" type="curve" smooth="yes"/>
      <point x="296" y="-176"/>
      <point x="352" y="-182"/>
      <point x="392" y="-182" type="curve" smooth="yes"/>
      <point x="541" y="-182"/>
      <point x="612" y="-99"/>
      <point x="626" y="28" type="curve" smooth="yes"/>
      <point x="696" y="671" type="line"/>
      <point x="696" y="700"/>
      <point x="656" y="702"/>
    </contour>
  </outline>
</glyph>
<glyph name="circumflex" format="2">
  <advance width="256"/>
  <unicode hex="02C6"/>
  <anchor x="148.5" y="523" name="_top"/>
  <anchor x="343" y="597" name="top"/>
  <anchor x="199" y="675" name="top2"/>
  <outline>
    <contour>
      <point x="31" y="572" type="curve" smooth="yes"/>
      <point x="55" y="572" type="line" smooth="yes"/>
      <point x="83" y="572"/>
      <point x="107" y="575"/>
      <point x="124" y="597" type="curve" smooth="yes"/>
      <point x="155" y="636" type="line"/>
      <point x="180" y="596" type="line" smooth="yes"/>
      <point x="192" y="577"/>
      <point x="214" y="572"/>
      <point x="244" y="572" type="curve" smooth="yes"/>
      <point x="266" y="572" type="line" smooth="yes"/>
      <point x="279" y="572"/>
      <point x="285" y="577"/>
      <point x="285" y="585" type="curve" smooth="yes"/>
      <point x="285" y="589"/>
      <point x="284" y="592"/>
      <point x="282" y="597" type="curve" smooth="yes"/>
      <point x="228" y="699" type="line" smooth="yes"/>
      <point x="218" y="717"/>
      <point x="198" y="718"/>
      <point x="169" y="718" type="curve" smooth="yes"/>
      <point x="158" y="718" type="line" smooth="yes"/>
      <point x="129" y="718"/>
      <point x="108" y="717"/>
      <point x="95" y="699" type="curve" smooth="yes"/>
      <point x="19" y="597" type="line" smooth="yes"/>
      <point x="14" y="591"/>
      <point x="12" y="586"/>
      <point x="12" y="582" type="curve" smooth="yes"/>
      <point x="12" y="576"/>
      <point x="19" y="572"/>
    </contour>
  </outline>
</glyph>
<glyph name="caron" format="2">
  <advance width="256"/>
  <unicode hex="02C7"/>
  <anchor x="147" y="523" name="_top"/>
  <outline>
    <contour>
      <point x="143" y="572" type="curve" smooth="yes"/>
      <point x="154" y="572" type="line" smooth="yes"/>
      <point x="183" y="572"/>
      <point x="204" y="573"/>
      <point x="217" y="591" type="curve" smooth="yes"/>
      <point x="293" y="693" type="line" smooth="yes"/>
      <point x="298" y="699"/>
      <point x="300" y="704"/>
      <point x="300" y="708" type="curve" smooth="yes"/>
      <point x="300" y="714"/>
      <point x="293" y="718"/>
      <point x="281" y="718" type="curve" smooth="yes"/>
      <point x="257" y="718" type="line" smooth="yes"/>
      <point x="229" y="717"/>
      <point x="205" y="715"/>
      <point x="188" y="693" type="curve" smooth="yes"/>
      <point x="157" y="654" type="line"/>
      <point x="132" y="694" type="line" smooth="yes"/>
      <point x="120" y="712"/>
      <point x="97" y="718"/>
      <point x="68" y="718" type="curve" smooth="yes"/>
      <point x="46" y="718" type="line" smooth="yes"/>
      <point x="33" y="718"/>
      <point x="27" y="713"/>
      <point x="27" y="705" type="curve" smooth="yes"/>
      <point x="27" y="701"/>
      <point x="28" y="698"/>
      <point x="30" y="693" type="curve" smooth="yes"/>
      <point x="84" y="591" type="line" smooth="yes"/>
      <point x="94" y="573"/>
      <point x="114" y="572"/>
    </contour>
  </outline>
</glyph>
<glyph name="breve" format="2">
  <advance width="256"/>
  <unicode hex="02D8"/>
  <anchor x="147" y="523" name="_top"/>
  <anchor x="174" y="776" name="tilde"/>
  <anchor x="166" y="686" name="top"/>
  <outline>
    <contour>
      <point x="150" y="575" type="curve" smooth="yes"/>
      <point x="236" y="575"/>
      <point x="309" y="632"/>
      <point x="309" y="691" type="curve" smooth="yes"/>
      <point x="309" y="706"/>
      <point x="297" y="715"/>
      <point x="277" y="715" type="curve" smooth="yes"/>
      <point x="263" y="715"/>
      <point x="255" y="709"/>
      <point x="248" y="702" type="curve" smooth="yes"/>
      <point x="232" y="688"/>
      <point x="218" y="666"/>
      <point x="160" y="666" type="curve" smooth="yes"/>
      <point x="109" y="666"/>
      <point x="95" y="683"/>
      <point x="84" y="697" type="curve" smooth="yes"/>
      <point x="76" y="707"/>
      <point x="70" y="715"/>
      <point x="53" y="715" type="curve" smooth="yes"/>
      <point x="26" y="715"/>
      <point x="14" y="702"/>
      <point x="14" y="678" type="curve" smooth="yes"/>
      <point x="14" y="624"/>
      <point x="67" y="575"/>
    </contour>
  </outline>
</glyph>
<glyph name="dotaccent" format="2">
  <advance width="256"/>
  <unicode hex="02D9"/>
  <anchor x="164" y="523" name="_top"/>
  <outline>
    <contour>
      <point x="157" y="578" type="curve" smooth="yes"/>
      <point x="197" y="578"/>
      <point x="217" y="589"/>
      <point x="220" y="610" type="curve" smooth="yes"/>
      <point x="227" y="670" type="line"/>
      <point x="227" y="691"/>
      <point x="213" y="702"/>
      <point x="170" y="702" type="curve" smooth="yes"/>
      <point x="128" y="702"/>
      <point x="109" y="691"/>
      <point x="107" y="670" type="curve" smooth="yes"/>
      <point x="100" y="610" type="line"/>
      <point x="100" y="589"/>
      <point x="114" y="578"/>
    </contour>
  </outline>
</glyph>
<glyph name="ring" format="2">
  <advance width="256"/>
  <unicode hex="02DA"/>
  <anchor x="146" y="523" name="_top"/>
  <outline>
    <contour>
      <point x="149" y="550" type="curve" smooth="yes"/>
      <point x="219" y="550"/>
      <point x="259" y="599"/>
      <point x="259" y="660" type="curve" smooth="yes"/>
      <point x="259" y="711"/>
      <point x="222" y="749"/>
      <point x="170" y="749" type="curve" smooth="yes"/>
      <point x="102" y="749"/>
      <point x="59" y="700"/>
      <point x="59" y="639" type="curve" smooth="yes"/>
      <point x="59" y="588"/>
      <point x="96" y="550"/>
    </contour>
    <contour>
      <point x="156" y="612" type="curve" smooth="yes"/>
      <point x="137" y="612"/>
      <point x="123" y="626"/>
      <point x="123" y="644" type="curve" smooth="yes"/>
      <point x="123" y="666"/>
      <point x="142" y="685"/>
      <point x="163" y="685" type="curve" smooth="yes"/>
      <point x="182" y="685"/>
      <point x="196" y="670"/>
      <point x="196" y="651" type="curve" smooth="yes"/>
      <point x="196" y="630"/>
      <point x="177" y="612"/>
    </contour>
  </outline>
</glyph>
<glyph name="ogonek" format="2">
  <advance width="256"/>
  <unicode hex="02DB"/>
  <anchor x="140" y="0" name="_ogonek"/>
  <outline>
    <contour>
      <point x="161" y="-183" type="curve" smooth="yes"/>
      <point x="188" y="-183"/>
      <point x="218" y="-178"/>
      <point x="235" y="-161" type="curve" smooth="yes"/>
      <point x="244" y="-154"/>
      <point x="249" y="-143"/>
      <point x="249" y="-129" type="curve" smooth="yes"/>
      <point x="249" y="-107"/>
      <point x="247" y="-99"/>
      <point x="238" y="-99" type="curve" smooth="yes"/>
      <point x="229" y="-99"/>
      <point x="210" y="-113"/>
      <point x="180" y="-113" type="curve" smooth="yes"/>
      <point x="158" y="-113"/>
      <point x="122" y="-110"/>
      <point x="122" y="-70" type="curve" smooth="yes"/>
      <point x="122" y="-35"/>
      <point x="134" y="-13"/>
      <point x="140" y="0" type="curve"/>
      <point x="100" y="15" type="line"/>
      <point x="66" y="-23"/>
      <point x="53" y="-71"/>
      <point x="53" y="-99" type="curve" smooth="yes"/>
      <point x="53" y="-143"/>
      <point x="81" y="-183"/>
    </contour>
  </outline>
</glyph>
<glyph name="hungarumlaut" format="2">
  <advance width="307"/>
  <unicode hex="02DD"/>
  <anchor x="108" y="523" name="_top"/>
  <outline>
    <contour>
      <point x="196" y="575" type="curve" smooth="yes"/>
      <point x="243" y="575"/>
      <point x="262" y="588"/>
      <point x="274" y="600" type="curve" smooth="yes"/>
      <point x="386" y="710"/>
      <point x="390" y="708"/>
      <point x="390" y="721" type="curve" smooth="yes"/>
      <point x="390" y="731"/>
      <point x="370" y="734"/>
      <point x="332" y="734" type="curve" smooth="yes"/>
      <point x="292" y="734"/>
      <point x="258" y="728"/>
      <point x="244" y="707" type="curve" smooth="yes"/>
      <point x="186" y="619"/>
      <point x="167" y="599"/>
      <point x="167" y="588" type="curve" smooth="yes"/>
      <point x="167" y="578"/>
      <point x="174" y="575"/>
    </contour>
    <contour>
      <point x="14" y="575" type="curve" smooth="yes"/>
      <point x="61" y="575"/>
      <point x="80" y="588"/>
      <point x="92" y="600" type="curve" smooth="yes"/>
      <point x="204" y="710"/>
      <point x="208" y="708"/>
      <point x="208" y="721" type="curve" smooth="yes"/>
      <point x="208" y="731"/>
      <point x="188" y="734"/>
      <point x="150" y="734" type="curve" smooth="yes"/>
      <point x="110" y="734"/>
      <point x="76" y="728"/>
      <point x="62" y="707" type="curve" smooth="yes"/>
      <point x="4" y="619"/>
      <point x="-15" y="599"/>
      <point x="-15" y="588" type="curve" smooth="yes"/>
      <point x="-15" y="578"/>
      <point x="-8" y="575"/>
    </contour>
  </outline>
</glyph>
<glyph name="dotaccentcomb" format="2">
  <unicode hex="0307"/>
  <anchor x="25" y="523" name="_top"/>
  <anchor x="44" y="702" name="top"/>
  <outline>
    <contour>
      <point x="31" y="578" type="curve" smooth="yes"/>
      <point x="71" y="578"/>
      <point x="91" y="589"/>
      <point x="94" y="610" type="curve" smooth="yes"/>
      <point x="101" y="670" type="line"/>
      <point x="101" y="691"/>
      <point x="87" y="702"/>
      <point x="44" y="702" type="curve" smooth="yes"/>
      <point x="2" y="702"/>
      <point x="-17" y="691"/>
      <point x="-19" y="670" type="curve" smooth="yes"/>
      <point x="-26" y="610" type="line"/>
      <point x="-26" y="589"/>
      <point x="-12" y="578"/>
    </contour>
  </outline>
</glyph>
<glyph name="hookabovecomb" format="2">
  <advance width="240"/>
  <unicode hex="0309"/>
  <anchor x="28" y="523" name="_top"/>
  <anchor x="62" y="700" name="top"/>
  <outline>
    <contour>
      <point x="56" y="570" type="curve" smooth="yes"/>
      <point x="72" y="570"/>
      <point x="158" y="622"/>
      <point x="158" y="674" type="curve" smooth="yes"/>
      <point x="158" y="717"/>
      <point x="121" y="751"/>
      <point x="53" y="751" type="curve" smooth="yes"/>
      <point x="18" y="751"/>
      <point x="-30" y="733"/>
      <point x="-30" y="720" type="curve" smooth="yes"/>
      <point x="-30" y="705"/>
      <point x="-13" y="678"/>
      <point x="-5" y="678" type="curve" smooth="yes"/>
      <point x="4" y="678"/>
      <point x="17" y="690"/>
      <point x="39" y="690" type="curve" smooth="yes"/>
      <point x="58" y="690"/>
      <point x="71" y="682"/>
      <point x="71" y="668" type="curve" smooth="yes"/>
      <point x="71" y="634"/>
      <point x="-1" y="613"/>
      <point x="-1" y="591" type="curve" smooth="yes"/>
      <point x="-1" y="581"/>
      <point x="18" y="570"/>
    </contour>
  </outline>
</glyph>
<glyph name="dotbelowcomb" format="2">
  <unicode hex="0323"/>
  <anchor x="-27" y="0" name="_bottom"/>
  <anchor x="-46" y="-203" name="bottom"/>
  <outline>
    <contour>
      <point x="-51" y="-204" type="curve" smooth="yes"/>
      <point x="-11" y="-204"/>
      <point x="9" y="-193"/>
      <point x="12" y="-172" type="curve" smooth="yes"/>
      <point x="19" y="-112" type="line"/>
      <point x="19" y="-91"/>
      <point x="5" y="-80"/>
      <point x="-38" y="-80" type="curve" smooth="yes"/>
      <point x="-80" y="-80"/>
      <point x="-99" y="-91"/>
      <point x="-101" y="-112" type="curve" smooth="yes"/>
      <point x="-108" y="-172" type="line"/>
      <point x="-108" y="-193"/>
      <point x="-94" y="-204"/>
    </contour>
  </outline>
</glyph>
<glyph name="commaaccentcomb" format="2">
  <advance width="282"/>
  <unicode hex="0326"/>
  <anchor x="163" y="0" name="_bottom"/>
  <anchor x="149" y="-203" name="bottom"/>
  <outline>
    <contour>
      <point x="93" y="-240" type="curve" smooth="yes"/>
      <point x="128" y="-240"/>
      <point x="216" y="-162"/>
      <point x="216" y="-95" type="curve" smooth="yes"/>
      <point x="216" y="-70"/>
      <point x="206" y="-51"/>
      <point x="171" y="-51" type="curve" smooth="yes"/>
      <point x="152" y="-51" type="line" smooth="yes"/>
      <point x="110" y="-51"/>
      <point x="87" y="-68"/>
      <point x="87" y="-95" type="curve" smooth="yes"/>
      <point x="87" y="-175"/>
      <point x="52" y="-200"/>
      <point x="50" y="-218" type="curve" smooth="yes"/>
      <point x="49" y="-234"/>
      <point x="75" y="-240"/>
    </contour>
  </outline>
</glyph>
<glyph name="Delta" format="2">
  <advance width="708"/>
  <unicode hex="0394"/>
  <outline>
    <contour>
      <point x="445" y="710" type="curve" smooth="yes"/>
      <point x="384" y="710" type="line" smooth="yes"/>
      <point x="364" y="710"/>
      <point x="350" y="702"/>
      <point x="340" y="683" type="curve" smooth="yes"/>
      <point x="39" y="130" type="line" smooth="yes"/>
      <point x="31" y="115"/>
      <point x="27" y="103"/>
      <point x="25" y="86" type="curve" smooth="yes"/>
      <point x="21" y="48"/>
      <point x="20" y="30"/>
      <point x="20" y="27" type="curve" smooth="yes"/>
      <point x="20" y="9"/>
      <point x="31" y="0"/>
      <point x="51" y="0" type="curve" smooth="yes"/>
      <point x="628" y="0" type="line" smooth="yes"/>
      <point x="650" y="0"/>
      <point x="665" y="12"/>
      <point x="667" y="35" type="curve" smooth="yes"/>
      <point x="673" y="91"/>
      <point x="673" y="96"/>
      <point x="673" y="101" type="curve" smooth="yes"/>
      <point x="673" y="111"/>
      <point x="671" y="120"/>
      <point x="668" y="130" type="curve" smooth="yes"/>
      <point x="483" y="683" type="line" smooth="yes"/>
      <point x="477" y="702"/>
      <point x="465" y="710"/>
    </contour>
    <contour>
      <point x="398" y="513" type="line"/>
      <point x="524" y="130" type="line"/>
      <point x="182" y="130" type="line"/>
      <point x="388" y="513" type="line"/>
    </contour>
  </outline>
</glyph>
<glyph name="Omega" format="2">
  <advance width="731"/>
  <unicode hex="03A9"/>
  <anchor x="20" y="700" name="topleft"/>
  <outline>
    <contour>
      <point x="403" y="708" type="curve" smooth="yes"/>
      <point x="191" y="708"/>
      <point x="42" y="568"/>
      <point x="42" y="314" type="curve" smooth="yes"/>
      <point x="42" y="235"/>
      <point x="65" y="166"/>
      <point x="112" y="113" type="curve"/>
      <point x="93" y="119"/>
      <point x="61" y="131"/>
      <point x="32" y="131" type="curve" smooth="yes"/>
      <point x="3" y="131"/>
      <point x="-6" y="71"/>
      <point x="-6" y="36" type="curve"/>
      <point x="-6" y="33" type="line"/>
      <point x="-6" y="10"/>
      <point x="1" y="0"/>
      <point x="18" y="0" type="curve" smooth="yes"/>
      <point x="265" y="0" type="line" smooth="yes"/>
      <point x="298" y="0"/>
      <point x="304" y="55"/>
      <point x="304" y="88" type="curve" smooth="yes"/>
      <point x="304" y="90" type="line" smooth="yes"/>
      <point x="304" y="101"/>
      <point x="301" y="107"/>
      <point x="293" y="110" type="curve" smooth="yes"/>
      <point x="233" y="129"/>
      <point x="198" y="187"/>
      <point x="198" y="290" type="curve" smooth="yes"/>
      <point x="198" y="475"/>
      <point x="271" y="576"/>
      <point x="389" y="576" type="curve" smooth="yes"/>
      <point x="482" y="576"/>
      <point x="531" y="516"/>
      <point x="531" y="402" type="curve" smooth="yes"/>
      <point x="531" y="229"/>
      <point x="466" y="133"/>
      <point x="387" y="110" type="curve" smooth="yes"/>
      <point x="367" y="104"/>
      <point x="366" y="48"/>
      <point x="366" y="35" type="curve"/>
      <point x="366" y="33" type="line"/>
      <point x="366" y="10"/>
      <point x="374" y="0"/>
      <point x="391" y="0" type="curve" smooth="yes"/>
      <point x="638" y="0" type="line" smooth="yes"/>
      <point x="676" y="0"/>
      <point x="678" y="64"/>
      <point x="678" y="92" type="curve"/>
      <point x="678" y="95" type="line"/>
      <point x="678" y="120"/>
      <point x="670" y="131"/>
      <point x="652" y="131" type="curve" smooth="yes"/>
      <point x="636" y="131"/>
      <point x="595" y="120"/>
      <point x="568" y="113" type="curve"/>
      <point x="653" y="189"/>
      <point x="690" y="298"/>
      <point x="690" y="422" type="curve" smooth="yes"/>
      <point x="690" y="607"/>
      <point x="589" y="708"/>
    </contour>
  </outline>
</glyph>
<glyph name="mu" format="2">
  <advance width="566"/>
  <unicode hex="03BC"/>
  <outline>
    <contour>
      <point x="74" y="-206" type="curve" smooth="yes"/>
      <point x="102" y="-206" type="line" smooth="yes"/>
      <point x="141" y="-206"/>
      <point x="163" y="-195"/>
      <point x="165" y="-174" type="curve" smooth="yes"/>
      <point x="190" y="59" type="line"/>
      <point x="134" y="0" type="line"/>
      <point x="150" y="-6"/>
      <point x="167" y="-8"/>
      <point x="183" y="-8" type="curve" smooth="yes"/>
      <point x="263" y="-8"/>
      <point x="338" y="52"/>
      <point x="364" y="102" type="curve"/>
      <point x="339" y="124" type="line"/>
      <point x="339" y="116" type="line" smooth="yes"/>
      <point x="339" y="30"/>
      <point x="380" y="-8"/>
      <point x="459" y="-8" type="curve" smooth="yes"/>
      <point x="536" y="-8"/>
      <point x="554" y="34"/>
      <point x="554" y="104" type="curve" smooth="yes"/>
      <point x="554" y="113"/>
      <point x="552" y="115"/>
      <point x="546" y="115" type="curve" smooth="yes"/>
      <point x="542" y="115"/>
      <point x="531" y="109"/>
      <point x="517" y="109" type="curve" smooth="yes"/>
      <point x="496" y="109"/>
      <point x="487" y="119"/>
      <point x="487" y="142" type="curve" smooth="yes"/>
      <point x="487" y="151"/>
      <point x="525" y="479"/>
      <point x="524" y="494" type="curve" smooth="yes"/>
      <point x="523" y="510"/>
      <point x="507" y="525"/>
      <point x="467" y="525" type="curve" smooth="yes"/>
      <point x="439" y="525" type="line" smooth="yes"/>
      <point x="400" y="525"/>
      <point x="378" y="514"/>
      <point x="376" y="493" type="curve"/>
      <point x="342" y="168" type="line"/>
      <point x="324" y="143"/>
      <point x="294" y="114"/>
      <point x="256" y="114" type="curve" smooth="yes"/>
      <point x="217" y="114"/>
      <point x="202" y="132"/>
      <point x="202" y="163" type="curve" smooth="yes"/>
      <point x="202" y="176"/>
      <point x="236" y="494"/>
      <point x="236" y="494" type="curve"/>
      <point x="236" y="510"/>
      <point x="219" y="525"/>
      <point x="179" y="525" type="curve" smooth="yes"/>
      <point x="151" y="525" type="line" smooth="yes"/>
      <point x="112" y="525"/>
      <point x="90" y="514"/>
      <point x="88" y="493" type="curve" smooth="yes"/>
      <point x="17" y="-175" type="line"/>
      <point x="17" y="-191"/>
      <point x="34" y="-206"/>
    </contour>
  </outline>
</glyph>
<glyph name="Germandbls" format="2">
  <advance width="700"/>
  <unicode hex="1E9E"/>
  <outline>
    <contour>
      <point x="412" y="-8" type="curve" smooth="yes"/>
      <point x="558" y="-8"/>
      <point x="671" y="82"/>
      <point x="671" y="231" type="curve" smooth="yes"/>
      <point x="671" y="303"/>
      <point x="636" y="359"/>
      <point x="527" y="397" type="curve"/>
      <point x="658" y="581" type="line"/>
      <point x="660" y="583"/>
      <point x="661" y="588"/>
      <point x="661" y="596" type="curve" smooth="yes"/>
      <point x="661" y="624"/>
      <point x="648" y="678"/>
      <point x="629" y="683" type="curve" smooth="yes"/>
      <point x="567" y="698"/>
      <point x="501" y="708"/>
      <point x="398" y="708" type="curve" smooth="yes"/>
      <point x="179" y="708"/>
      <point x="97" y="581"/>
      <point x="83" y="422" type="curve" smooth="yes"/>
      <point x="42" y="29" type="line"/>
      <point x="42" y="0"/>
      <point x="82" y="-2"/>
      <point x="99" y="-2" type="curve" smooth="yes"/>
      <point x="134" y="-2" type="line" smooth="yes"/>
      <point x="173" y="-2"/>
      <point x="195" y="9"/>
      <point x="197" y="30" type="curve" smooth="yes"/>
      <point x="239" y="427" type="line" smooth="yes"/>
      <point x="246" y="524"/>
      <point x="295" y="576"/>
      <point x="381" y="576" type="curve" smooth="yes"/>
      <point x="419" y="576"/>
      <point x="449" y="573"/>
      <point x="474" y="570" type="curve"/>
      <point x="360" y="410" type="line"/>
      <point x="358" y="408"/>
      <point x="357" y="403"/>
      <point x="357" y="395" type="curve" smooth="yes"/>
      <point x="357" y="367"/>
      <point x="370" y="308"/>
      <point x="389" y="308" type="curve" smooth="yes"/>
      <point x="428" y="308" type="line"/>
      <point x="494" y="302"/>
      <point x="521" y="272"/>
      <point x="521" y="224" type="curve" smooth="yes"/>
      <point x="521" y="151"/>
      <point x="472" y="109"/>
      <point x="401" y="109" type="curve" smooth="yes"/>
      <point x="335" y="109"/>
      <point x="302" y="149"/>
      <point x="292" y="149" type="curve" smooth="yes"/>
      <point x="281" y="149"/>
      <point x="268" y="127"/>
      <point x="268" y="55" type="curve" smooth="yes"/>
      <point x="268" y="-2"/>
      <point x="369" y="-8"/>
    </contour>
  </outline>
</glyph>
<glyph name="endash" format="2">
  <advance width="500"/>
  <unicode hex="2013"/>
  <outline>
    <contour>
      <point x="26" y="212" type="curve" smooth="yes"/>
      <point x="467" y="212" type="line" smooth="yes"/>
      <point x="500" y="212"/>
      <point x="504" y="261"/>
      <point x="504" y="284" type="curve" smooth="yes"/>
      <point x="504" y="285" type="line" smooth="yes"/>
      <point x="504" y="308"/>
      <point x="495" y="319"/>
      <point x="478" y="319" type="curve" smooth="yes"/>
      <point x="37" y="319" type="line" smooth="yes"/>
      <point x="3" y="319"/>
      <point x="0" y="270"/>
      <point x="0" y="246" type="curve" smooth="yes"/>
      <point x="0" y="245" type="line" smooth="yes"/>
      <point x="0" y="222"/>
      <point x="8" y="212"/>
    </contour>
  </outline>
</glyph>
<glyph name="emdash" format="2">
  <advance width="1000"/>
  <unicode hex="2014"/>
  <outline>
    <contour>
      <point x="26" y="212" type="curve" smooth="yes"/>
      <point x="963" y="212" type="line" smooth="yes"/>
      <point x="996" y="212"/>
      <point x="1000" y="261"/>
      <point x="1000" y="284" type="curve" smooth="yes"/>
      <point x="1000" y="285" type="line" smooth="yes"/>
      <point x="1000" y="308"/>
      <point x="991" y="319"/>
      <point x="974" y="319" type="curve" smooth="yes"/>
      <point x="37" y="319" type="line" smooth="yes"/>
      <point x="3" y="319"/>
      <point x="0" y="270"/>
      <point x="0" y="246" type="curve" smooth="yes"/>
      <point x="0" y="245" type="line" smooth="yes"/>
      <point x="0" y="222"/>
      <point x="8" y="212"/>
    </contour>
  </outline>
</glyph>
<glyph name="quoteleft" format="2">
  <advance width="212"/>
  <unicode hex="2018"/>
  <outline>
    <contour>
      <point x="97" y="475" type="curve" smooth="yes"/>
      <point x="116" y="475" type="line" smooth="yes"/>
      <point x="158" y="475"/>
      <point x="178" y="492"/>
      <point x="180" y="519" type="curve"/>
      <point x="190" y="616"/>
      <point x="218" y="666"/>
      <point x="234" y="699" type="curve" smooth="yes"/>
      <point x="241" y="713"/>
      <point x="246" y="724"/>
      <point x="246" y="734" type="curve" smooth="yes"/>
      <point x="246" y="749"/>
      <point x="221" y="754"/>
      <point x="204" y="754" type="curve" smooth="yes"/>
      <point x="157" y="754"/>
      <point x="41" y="600"/>
      <point x="41" y="515" type="curve" smooth="yes"/>
      <point x="41" y="492"/>
      <point x="57" y="475"/>
    </contour>
  </outline>
</glyph>
<glyph name="quoteright" format="2">
  <advance width="212"/>
  <unicode hex="2019"/>
  <outline>
    <contour>
      <point x="81" y="475" type="curve" smooth="yes"/>
      <point x="128" y="475"/>
      <point x="244" y="629"/>
      <point x="244" y="714" type="curve" smooth="yes"/>
      <point x="244" y="737"/>
      <point x="228" y="754"/>
      <point x="188" y="754" type="curve" smooth="yes"/>
      <point x="169" y="754" type="line" smooth="yes"/>
      <point x="127" y="754"/>
      <point x="107" y="737"/>
      <point x="105" y="710" type="curve"/>
      <point x="96" y="623"/>
      <point x="72" y="573"/>
      <point x="56" y="540" type="curve" smooth="yes"/>
      <point x="46" y="521"/>
      <point x="39" y="507"/>
      <point x="39" y="495" type="curve" smooth="yes"/>
      <point x="39" y="480"/>
      <point x="64" y="475"/>
    </contour>
  </outline>
</glyph>
<glyph name="dagger" format="2">
  <advance width="535"/>
  <unicode hex="2020"/>
  <outline>
    <contour>
      <point x="215" y="-140" type="curve" smooth="yes"/>
      <point x="230" y="-140" type="line" smooth="yes"/>
      <point x="264" y="-140"/>
      <point x="282" y="-129"/>
      <point x="284" y="-108" type="curve" smooth="yes"/>
      <point x="338" y="410" type="line"/>
      <point x="473" y="410" type="line" smooth="yes"/>
      <point x="505" y="410"/>
      <point x="510" y="457"/>
      <point x="510" y="481" type="curve" smooth="yes"/>
      <point x="510" y="483" type="line" smooth="yes"/>
      <point x="510" y="506"/>
      <point x="501" y="517"/>
      <point x="484" y="517" type="curve" smooth="yes"/>
      <point x="349" y="517" type="line"/>
      <point x="365" y="670" type="line"/>
      <point x="365" y="691"/>
      <point x="355" y="702"/>
      <point x="319" y="702" type="curve" smooth="yes"/>
      <point x="304" y="702" type="line" smooth="yes"/>
      <point x="270" y="702"/>
      <point x="252" y="691"/>
      <point x="250" y="670" type="curve" smooth="yes"/>
      <point x="234" y="517" type="line"/>
      <point x="99" y="517" type="line" smooth="yes"/>
      <point x="66" y="517"/>
      <point x="62" y="467"/>
      <point x="62" y="444" type="curve" smooth="yes"/>
      <point x="62" y="443" type="line" smooth="yes"/>
      <point x="62" y="421"/>
      <point x="71" y="410"/>
      <point x="88" y="410" type="curve" smooth="yes"/>
      <point x="223" y="410" type="line"/>
      <point x="168" y="-113" type="line"/>
      <point x="168" y="-131"/>
      <point x="183" y="-140"/>
    </contour>
  </outline>
</glyph>
<glyph name="daggerdbl" format="2">
  <advance width="535"/>
  <unicode hex="2021"/>
  <outline>
    <contour>
      <point x="215" y="-140" type="curve" smooth="yes"/>
      <point x="230" y="-140" type="line" smooth="yes"/>
      <point x="264" y="-140"/>
      <point x="282" y="-129"/>
      <point x="284" y="-108" type="curve" smooth="yes"/>
      <point x="299" y="43" type="line"/>
      <point x="435" y="43" type="line" smooth="yes"/>
      <point x="467" y="43"/>
      <point x="472" y="91"/>
      <point x="472" y="114" type="curve"/>
      <point x="472" y="116" type="line"/>
      <point x="472" y="139"/>
      <point x="463" y="150"/>
      <point x="446" y="150" type="curve" smooth="yes"/>
      <point x="310" y="150" type="line"/>
      <point x="338" y="410" type="line"/>
      <point x="473" y="410" type="line" smooth="yes"/>
      <point x="505" y="410"/>
      <point x="510" y="457"/>
      <point x="510" y="481" type="curve"/>
      <point x="510" y="483" type="line"/>
      <point x="510" y="506"/>
      <point x="501" y="517"/>
      <point x="484" y="517" type="curve" smooth="yes"/>
      <point x="349" y="517" type="line"/>
      <point x="354" y="568"/>
      <point x="365" y="663"/>
      <point x="365" y="670" type="curve" smooth="yes"/>
      <point x="365" y="691"/>
      <point x="355" y="702"/>
      <point x="319" y="702" type="curve" smooth="yes"/>
      <point x="304" y="702" type="line" smooth="yes"/>
      <point x="270" y="702"/>
      <point x="252" y="691"/>
      <point x="250" y="670" type="curve" smooth="yes"/>
      <point x="234" y="517" type="line"/>
      <point x="99" y="517" type="line" smooth="yes"/>
      <point x="67" y="517"/>
      <point x="62" y="470"/>
      <point x="62" y="446" type="curve"/>
      <point x="62" y="444" type="line"/>
      <point x="62" y="421"/>
      <point x="71" y="410"/>
      <point x="88" y="410" type="curve" smooth="yes"/>
      <point x="223" y="410" type="line"/>
      <point x="196" y="150" type="line"/>
      <point x="61" y="150" type="line" smooth="yes"/>
      <point x="29" y="150"/>
      <point x="24" y="102"/>
      <point x="24" y="79" type="curve"/>
      <point x="24" y="77" type="line"/>
      <point x="24" y="54"/>
      <point x="33" y="43"/>
      <point x="50" y="43" type="curve" smooth="yes"/>
      <point x="185" y="43" type="line"/>
      <point x="179" y="-9"/>
      <point x="168" y="-108"/>
      <point x="168" y="-113" type="curve"/>
      <point x="168" y="-131"/>
      <point x="194" y="-140"/>
    </contour>
  </outline>
</glyph>
<glyph name="ellipsis" format="2">
  <advance width="618"/>
  <unicode hex="2026"/>
  <outline>
    <contour>
      <point x="475" y="-2" type="curve" smooth="yes"/>
      <point x="507" y="-2" type="line" smooth="yes"/>
      <point x="548" y="-2"/>
      <point x="569" y="9"/>
      <point x="571" y="30" type="curve" smooth="yes"/>
      <point x="580" y="122" type="line"/>
      <point x="580" y="142"/>
      <point x="567" y="154"/>
      <point x="524" y="154" type="curve" smooth="yes"/>
      <point x="492" y="154" type="line" smooth="yes"/>
      <point x="451" y="154"/>
      <point x="430" y="143"/>
      <point x="428" y="122" type="curve" smooth="yes"/>
      <point x="419" y="30" type="line"/>
      <point x="419" y="8"/>
      <point x="430" y="-2"/>
    </contour>
    <contour>
      <point x="55" y="-2" type="curve" smooth="yes"/>
      <point x="87" y="-2" type="line" smooth="yes"/>
      <point x="128" y="-2"/>
      <point x="149" y="9"/>
      <point x="151" y="30" type="curve" smooth="yes"/>
      <point x="160" y="122" type="line"/>
      <point x="160" y="142"/>
      <point x="147" y="154"/>
      <point x="104" y="154" type="curve" smooth="yes"/>
      <point x="72" y="154" type="line" smooth="yes"/>
      <point x="30" y="154"/>
      <point x="10" y="143"/>
      <point x="8" y="122" type="curve" smooth="yes"/>
      <point x="-1" y="30" type="line"/>
      <point x="-1" y="8"/>
      <point x="10" y="-2"/>
    </contour>
    <contour>
      <point x="265" y="-2" type="curve" smooth="yes"/>
      <point x="297" y="-2" type="line" smooth="yes"/>
      <point x="338" y="-2"/>
      <point x="359" y="9"/>
      <point x="361" y="30" type="curve" smooth="yes"/>
      <point x="370" y="122" type="line"/>
      <point x="370" y="142"/>
      <point x="357" y="154"/>
      <point x="314" y="154" type="curve" smooth="yes"/>
      <point x="282" y="154" type="line" smooth="yes"/>
      <point x="240" y="154"/>
      <point x="220" y="143"/>
      <point x="218" y="122" type="curve" smooth="yes"/>
      <point x="209" y="30" type="line"/>
      <point x="209" y="8"/>
      <point x="220" y="-2"/>
    </contour>
  </outline>
</glyph>
<glyph name="perthousand" format="2">
  <advance width="1038"/>
  <unicode hex="2030"/>
  <outline>
    <contour>
      <point x="104" y="-2" type="curve" smooth="yes"/>
      <point x="148" y="-2" type="line" smooth="yes"/>
      <point x="169" y="-2"/>
      <point x="183" y="8"/>
      <point x="194" y="25" type="curve" smooth="yes"/>
      <point x="620" y="675" type="line" smooth="yes"/>
      <point x="624" y="681"/>
      <point x="626" y="686"/>
      <point x="626" y="690" type="curve" smooth="yes"/>
      <point x="626" y="696"/>
      <point x="619" y="702"/>
      <point x="606" y="702" type="curve" smooth="yes"/>
      <point x="562" y="702" type="line" smooth="yes"/>
      <point x="541" y="702"/>
      <point x="527" y="692"/>
      <point x="516" y="675" type="curve" smooth="yes"/>
      <point x="90" y="25" type="line" smooth="yes"/>
      <point x="86" y="19"/>
      <point x="84" y="14"/>
      <point x="84" y="10" type="curve" smooth="yes"/>
      <point x="84" y="3"/>
      <point x="90" y="-2"/>
    </contour>
    <contour>
      <point x="493" y="-8" type="curve" smooth="yes"/>
      <point x="564" y="-8"/>
      <point x="663" y="25"/>
      <point x="663" y="191" type="curve" smooth="yes"/>
      <point x="663" y="303"/>
      <point x="592" y="328"/>
      <point x="528" y="328" type="curve" smooth="yes"/>
      <point x="455" y="328"/>
      <point x="359" y="294"/>
      <point x="359" y="127" type="curve" smooth="yes"/>
      <point x="359" y="16"/>
      <point x="429" y="-8"/>
    </contour>
    <contour>
      <point x="501" y="74" type="curve" smooth="yes"/>
      <point x="470" y="74"/>
      <point x="461" y="103"/>
      <point x="461" y="134" type="curve" smooth="yes"/>
      <point x="461" y="177"/>
      <point x="472" y="242"/>
      <point x="519" y="242" type="curve" smooth="yes"/>
      <point x="550" y="242"/>
      <point x="559" y="214"/>
      <point x="559" y="182" type="curve" smooth="yes"/>
      <point x="559" y="142"/>
      <point x="546" y="74"/>
    </contour>
    <contour>
      <point x="182" y="372" type="curve" smooth="yes"/>
      <point x="254" y="372"/>
      <point x="351" y="406"/>
      <point x="351" y="573" type="curve" smooth="yes"/>
      <point x="351" y="684"/>
      <point x="281" y="708"/>
      <point x="217" y="708" type="curve" smooth="yes"/>
      <point x="146" y="708"/>
      <point x="47" y="675"/>
      <point x="47" y="508" type="curve" smooth="yes"/>
      <point x="47" y="396"/>
      <point x="118" y="372"/>
    </contour>
    <contour>
      <point x="190" y="454" type="curve" smooth="yes"/>
      <point x="158" y="454"/>
      <point x="150" y="485"/>
      <point x="150" y="517" type="curve" smooth="yes"/>
      <point x="150" y="560"/>
      <point x="162" y="622"/>
      <point x="208" y="622" type="curve" smooth="yes"/>
      <point x="239" y="622"/>
      <point x="248" y="595"/>
      <point x="248" y="565" type="curve" smooth="yes"/>
      <point x="248" y="525"/>
      <point x="237" y="454"/>
    </contour>
    <contour>
      <point x="820" y="-8" type="curve" smooth="yes"/>
      <point x="891" y="-8"/>
      <point x="990" y="25"/>
      <point x="990" y="191" type="curve" smooth="yes"/>
      <point x="990" y="303"/>
      <point x="919" y="328"/>
      <point x="855" y="328" type="curve" smooth="yes"/>
      <point x="782" y="328"/>
      <point x="686" y="294"/>
      <point x="686" y="127" type="curve" smooth="yes"/>
      <point x="686" y="16"/>
      <point x="756" y="-8"/>
    </contour>
    <contour>
      <point x="828" y="74" type="curve" smooth="yes"/>
      <point x="797" y="74"/>
      <point x="788" y="103"/>
      <point x="788" y="134" type="curve" smooth="yes"/>
      <point x="788" y="177"/>
      <point x="799" y="242"/>
      <point x="846" y="242" type="curve" smooth="yes"/>
      <point x="877" y="242"/>
      <point x="886" y="214"/>
      <point x="886" y="182" type="curve" smooth="yes"/>
      <point x="886" y="142"/>
      <point x="873" y="74"/>
    </contour>
  </outline>
</glyph>
